<svg xmlns="http://www.w3.org/2000/svg" width="106" height="38" viewBox="0 0 106 38">
    <g fill="none" fill-rule="nonzero">
        <path fill="#3A3A3A" d="M51.902 3.223c-.204.17-.23.318-.254 1.481l-.026 1.292-3.796.027-3.796.027v1.4l3.796.027 3.796.027.032 1.158.032 1.157-3.208.027-3.21.028v1.4l6.333.027 6.331.026-.07.237c-.163.542-1.004 2.025-1.577 2.778a20.272 20.272 0 0 1-1.54 1.724c-1.066 1.054-.883 1.072-2.412-.248-.883-.764-2.528-2.577-2.667-2.94-.045-.118-.424-.15-1.78-.15h-1.724l.244.409c.87 1.454 3.184 3.958 4.548 4.919.334.235.614.462.614.498 0 .1-1.282.844-2.531 1.466-1.16.58-3.09 1.362-4.34 1.764l-.775.248v.84c0 .743.023.84.195.84.297 0 2.724-.686 3.973-1.125 1.443-.506 3.504-1.41 4.717-2.068l.98-.532 1.066.566a35.956 35.956 0 0 0 4.523 1.997c1.325.477 3.656 1.161 3.952 1.161.169 0 .194-.101.194-.79v-.793l-1.432-.57c-1.562-.62-4.097-1.848-5.32-2.577l-.776-.462.776-.617c1.61-1.283 3.204-3.13 4.144-4.8.417-.743 1.118-2.398 1.263-2.983l.074-.3h-6.6l.031-1.158.033-1.158 3.795-.027 3.796-.027v-1.4h-7.645V3.035h-1.765c-1.53.001-1.798.026-1.994.19zM94.426 4.004v.969H87.32v3.554h3.768V6.374h10.65l.032 1.05.032 1.05 1.923.027 1.921.027-.037-1.518c-.038-1.508-.04-1.52-.34-1.777l-.302-.26H98.408V3.037h-3.983v.968h.001zM67.904 3.278c-.03.073-.886 2.094-1.906 4.496l-1.907 4.49c-.04.098.317.138 1.439.162l1.49.032.026 5.519.028 5.518h3.231V8.862l-.582-.032-.581-.033 1.228-2.8c.674-1.54 1.226-2.811 1.226-2.827 0-.015-.818-.027-1.82-.027-1.355 0-1.832.034-1.872.135zM80.104 5.135v1.777h-8.4v1.4h8.4v6.548c0 4.953-.031 6.58-.129 6.676-.082.082-.494.129-1.13.129h-1.002v1.517l2.477-.03 2.478-.033.35-.35.35-.35.027-7.053.027-7.054h1.4v-1.4h-1.4V3.358H80.106v1.777h-.002zM87.32 10.52v.7h7.32v2.907h-7.32v1.4h7.32V21.558h-7.32v1.399h9.38c7.569 0 9.368-.027 9.324-.139-.029-.078-.312-1.013-.624-2.068-.313-1.055-.658-2.015-.765-2.121-.17-.17-.399-.193-1.863-.193-.915 0-1.669.026-1.669.058 0 .033.194.7.431 1.487.237.786.43 1.46.43 1.502 0 .041-.817.075-1.83.075h-1.83V15.527h7.32v-1.4h-7.32V11.22h7.32v-1.4H87.32v.7z"/>
        <path fill="#3A3A3A" d="M72.89 10.434c0 .04.416 1.383.925 2.988.51 1.604.996 3.143 1.083 3.424l.156.51h1.664c.916 0 1.664-.038 1.664-.086 0-.3-2.05-6.524-2.208-6.697-.176-.195-.34-.215-1.74-.215-.85 0-1.544.033-1.544.076zM58.675 30.71v4.308l2.558-.028 2.557-.028.032-.564.032-.565H60.183v-7.43h-1.508zM69.444 30.71v4.318l.726-.033.727-.033V26.457l-.727-.033-.726-.032zM102.477 27.4c-.252.548-.635 1.357-.85 1.802l-.394.808-.721-1.508a65.904 65.904 0 0 1-.818-1.75c-.09-.222-.162-.242-.904-.242-.442 0-.808.03-.808.065 0 .034.559 1.147 1.238 2.46l1.238 2.396v3.479H101.965v-3.393l1.292-2.53a172.43 172.43 0 0 0 1.293-2.557c0-.015-.367-.027-.808-.027h-.808l-.457.996zM49.264 26.597c-.066.108-3.08 8.315-3.08 8.388 0 .024.344.029.774.01l.776-.033.317-.838.318-.84 1.561.032 1.562.032.28.808.28.806.792.033c.646.027.784.005.754-.122-.021-.087-.715-1.998-1.546-4.26l-1.507-4.102h-.614c-.333 0-.638.039-.667.086zm1.27 3.845c.272.828.495 1.568.495 1.641 0 .1-.301.135-1.13.135-.625 0-1.132-.035-1.133-.076-.003-.215 1.146-3.348 1.204-3.284.038.042.292.754.564 1.584zM77.117 30.738l.026 4.224H78.65l.032-1.64.032-1.643h1.11c1.787 0 2.597-.37 3.122-1.421.663-1.324.144-2.882-1.162-3.492-.517-.24-.674-.255-2.622-.255H77.09l.028 4.227zm3.817-2.972c.402.188.786.812.786 1.276 0 .42-.263.959-.593 1.216-.263.207-.437.237-1.362.237h-1.06V27.59h.925c.636-.002 1.046.055 1.304.177zM89.913 26.812c-.425 1.067-2.916 7.956-2.916 8.066 0 .098.22.14.748.14h.749l.301-.861.302-.861H92.253l.29.86.29.862h.744c.496 0 .744-.042.744-.124 0-.068-.635-1.848-1.411-3.958-.778-2.11-1.459-3.966-1.519-4.129-.1-.276-.15-.295-.732-.295-.583 0-.635.018-.746.3zm1.343 3.565c.277.85.523 1.607.553 1.69.045.122-.172.15-1.141.15-.657 0-1.195-.014-1.195-.03 0-.032.777-2.295 1.131-3.297.03-.085.074-.13.102-.101.027.026.273.736.55 1.588z"/>
        <g fill="#2CA6E0">
            <path d="M8.71 20.957c-1.465.325-2.7.973-3.26 1.709-.633.83-.779 1.26-.779 2.283 0 .851.038 1.04.306 1.55.593 1.13 1.837 2.024 3.419 2.455 1.067.29 3.338.262 4.458-.056 1.196-.34 2.65-1.064 3.727-1.86.926-.684 2.473-2.17 3.096-2.972l.35-.452-.527-.268c-2.058-1.041-4.983-2.102-6.58-2.384-1.067-.188-3.374-.192-4.21-.005z"/>
            <path d="M37.924 31.615L34.65 30.23c-3.166-1.343-9.239-4.007-10.64-4.668l-.678-.32-1.471 1.476c-1.679 1.683-2.976 2.65-4.699 3.509-2.003.994-3.856 1.455-5.858 1.455-2.617 0-4.638-.74-6.149-2.25-1.3-1.3-1.831-2.552-1.831-4.319 0-1.485.472-2.834 1.402-4.005 1.202-1.514 3.358-2.538 5.737-2.73 2.184-.175 6.515.625 10.553 1.95.453.149.888.237.96.193.247-.153 1.775-3.765 1.974-4.669l.07-.323H9.463V14.021h7.536v-2.584l-4.55-.027-4.549-.027-.033-.727-.032-.727h9.164v-2.03c0-1.831.019-2.048.199-2.207.17-.152.485-.178 2.153-.178h1.955V9.93H30.362l-.033.727-.033.727-4.496.027-4.496.027v2.584h3.662c2.702 0 3.66.033 3.66.13 0 .24-.764 2.691-1.144 3.671-.212.548-.721 1.68-1.138 2.532-.417.85-.737 1.552-.717 1.572.021.016.329.13.684.252.356.121 1.616.57 2.8.997 3.285 1.184 6.583 2.209 8.486 2.635l.301.066-.032-10.315-.032-9.809A6.156 6.156 0 0 0 31.76.569H6.662A6.16 6.16 0 0 0 .503 6.728v24.948a6.16 6.16 0 0 0 6.16 6.158h25.102a6.156 6.156 0 0 0 6.148-5.928h-.014l.025-.29z"/>
        </g>
    </g>
</svg>
