<svg xmlns="http://www.w3.org/2000/svg" width="100" height="30" viewBox="0 0 100 30">
    <g fill="none" fill-rule="evenodd">
        <rect width="100" height="30" fill="#000" rx="4"/>
        <g fill="#FFF" fill-rule="nonzero">
            <path d="M6.408 1.648C6.805 1.205 7.075.61 7.003 0c-.581.026-1.291.343-1.702.787-.37.38-.696 1-.61 1.584.652.05 1.305-.291 1.717-.723zM7.532 3.172c-1.025-.056-1.897.536-2.386.536-.49 0-1.24-.508-2.05-.494-1.056.014-2.035.564-2.57 1.44-1.102 1.75-.291 4.346.78 5.771.52.706 1.147 1.482 1.973 1.454.78-.028 1.086-.466 2.035-.466.948 0 1.224.466 2.05.452.856-.014 1.392-.705 1.912-1.411.597-.804.841-1.58.857-1.623-.016-.014-1.652-.593-1.668-2.329C8.45 5.049 9.75 4.357 9.811 4.314c-.734-1-1.881-1.114-2.28-1.142zM14.608 7.763H16.4c1.36 0 2.134-.733 2.134-2.005 0-1.271-.774-1.998-2.127-1.998h-1.799v4.003zm2.21-5.323c1.954 0 3.313 1.348 3.313 3.311 0 1.97-1.387 3.325-3.36 3.325h-2.163v3.444h-1.562V2.44h3.773zM25.685 9.09v-.544l-1.774.108c-.998.06-1.518.41-1.518 1.022 0 .591.542.975 1.39.975 1.083 0 1.902-.653 1.902-1.56zm-4.845.626c0-1.244 1.005-1.956 2.857-2.064l1.988-.114V7c0-.787-.548-1.217-1.525-1.217-.805 0-1.39.39-1.51.988h-1.44c.043-1.257 1.297-2.171 2.993-2.171 1.824 0 3.014.9 3.014 2.299v4.827h-1.475v-1.163h-.036c-.42.76-1.346 1.237-2.35 1.237-1.483 0-2.516-.834-2.516-2.084zM27.958 14.638v-1.212c.1.014.342.028.47.028.705 0 1.104-.294 1.346-1.05l.142-.449L27.217 4.6h1.666l1.88 5.968h.036L32.68 4.6h1.624l-2.799 7.726c-.64 1.772-1.375 2.354-2.927 2.354-.12 0-.512-.014-.62-.042z" transform="translate(32 8)"/>
        </g>
    </g>
</svg>
