<svg xmlns="http://www.w3.org/2000/svg" fill="none" viewBox="0 0 40 24">
  <path fill="#231F20" d="M35.874 0H3.73c-.112.001-.223.003-.334.006-.243.006-.488.02-.728.062a2.5 2.5 0 0 0-.691.22 2.315 2.315 0 0 0-1.017.986 2.322 2.322 0 0 0-.227.67 4.4 4.4 0 0 0-.064.705 19.49 19.49 0 0 0-.006.324v18.055l.006.324c.006.234.02.472.064.704a2.25 2.25 0 0 0 .655 1.241c.173.168.372.308.589.415.221.11.448.178.691.221.24.041.485.056.728.062L3.73 24h32.54c.111 0 .222-.003.334-.005.243-.006.488-.02.728-.062.243-.043.47-.112.69-.221a2.31 2.31 0 0 0 1.017-.985 2.3 2.3 0 0 0 .228-.67c.043-.233.057-.47.064-.705.003-.108.005-.216.005-.324l.001-.385V2.973l-.006-.324a4.607 4.607 0 0 0-.064-.705 2.265 2.265 0 0 0-.656-1.241 2.318 2.318 0 0 0-.588-.414 2.515 2.515 0 0 0-.691-.221 4.982 4.982 0 0 0-.728-.062A14.332 14.332 0 0 0 36.271 0h-.397Z"/>
  <path fill="#FEFEFE" d="m35.874.8.391.001c.105 0 .212.002.318.005.185.005.401.014.604.05.175.03.322.077.463.146a1.493 1.493 0 0 1 .655.636c.072.136.12.278.15.449.037.193.047.404.052.584a39.76 39.76 0 0 1 .006.686v17.287c0 .126 0 .252-.002.38 0 .103-.001.204-.004.306-.005.18-.015.39-.052.587a1.49 1.49 0 0 1-.15.447 1.489 1.489 0 0 1-.656.636c-.14.07-.287.116-.461.146a4.309 4.309 0 0 1-.602.05 14.84 14.84 0 0 1-.322.004H3.733c-.106 0-.212-.002-.315-.004a4.351 4.351 0 0 1-.604-.05 1.645 1.645 0 0 1-.464-.147 1.47 1.47 0 0 1-.805-1.085 3.874 3.874 0 0 1-.052-.583 15.11 15.11 0 0 1-.004-.307V2.978c0-.102.001-.205.004-.307a3.88 3.88 0 0 1 .052-.585 1.453 1.453 0 0 1 .427-.816c.11-.109.239-.199.38-.268.14-.07.287-.116.462-.147.202-.035.419-.044.604-.05l.316-.004h32.142Z"/>
  <path fill="#231F20" d="M10.828 8.102c.328-.398.55-.931.492-1.477-.48.023-1.066.307-1.405.705-.304.34-.574.897-.504 1.42.539.045 1.077-.262 1.417-.648Zm.485.75c-.476-.028-.908.137-1.258.271-.226.086-.417.159-.563.159-.161 0-.36-.076-.583-.162-.294-.112-.63-.241-.982-.235a2.319 2.319 0 0 0-1.962 1.155c-.84 1.405-.221 3.489.596 4.632.397.566.876 1.19 1.506 1.167.276-.01.475-.092.68-.175.238-.098.485-.199.874-.199.37 0 .606.098.832.192.216.09.424.176.732.17.654-.01 1.063-.566 1.46-1.132a4.974 4.974 0 0 0 .65-1.293l.003-.01-.016-.007c-.146-.065-1.245-.555-1.256-1.861-.011-1.096.864-1.652 1.009-1.743l.018-.013c-.56-.803-1.436-.894-1.74-.916Zm7.438 2.907h-1.56V8.386h1.567c1.178 0 1.852.613 1.852 1.684s-.674 1.69-1.859 1.69Zm3.25-1.695c0-1.654-1.184-2.79-2.885-2.79H15.83v8.495h1.36v-2.903h1.883c1.72 0 2.928-1.142 2.928-2.802Zm4.466 3.397v-.477l-1.512.094c-.85.053-1.293.36-1.293.895 0 .518.461.854 1.184.854.923 0 1.622-.571 1.622-1.366Zm-4.13.548c0-1.09.857-1.714 2.436-1.808l1.695-.1v-.471c0-.689-.468-1.066-1.3-1.066-.687 0-1.185.342-1.287.866h-1.228c.037-1.101 1.106-1.902 2.551-1.902 1.555 0 2.57.789 2.57 2.013v4.228h-1.258V14.75h-.03c-.358.665-1.148 1.084-2.005 1.084-1.263 0-2.143-.73-2.143-1.825Zm6.593 3.014v1.018c.09.023.425.035.528.035 1.324 0 1.95-.488 2.496-1.978l2.388-6.494h-1.385l-1.604 5.017h-.03l-1.604-5.017h-1.421l2.302 6.182-.122.377c-.206.636-.546.883-1.147.883-.11 0-.316-.012-.401-.023Z"/>
</svg>
