<svg xmlns="http://www.w3.org/2000/svg" fill="none" viewBox="0 0 65 25">
  <rect width="64.709" height="24.003" fill="#1D2051" rx="3.31"/>
  <path fill="#fff" d="M6.816 10.95a.403.403 0 0 0 .254.058h9.032a.403.403 0 0 0 .274-.73L11.86 7.12a.489.489 0 0 0-.548 0l-4.516 3.157a.403.403 0 0 0 .02.673Zm9.736 4.527H6.621v1.49h9.931v-1.49Zm-8.441-3.476h1.986v2.483H8.11v-2.483Zm6.951 0h-1.986v2.483h1.986v-2.483Zm8.111-2.067h2.905c.976 0 1.46-.626 1.46-1.348 0-.626-.418-1.133-.946-1.215.469-.104.849-.521.849-1.14 0-.625-.47-1.265-1.453-1.265h-2.815v4.968Zm1.281-3.047v-.856h1.244c.26 0 .44.178.44.424a.42.42 0 0 1-.44.432h-1.244Zm0 1.982v-.924h1.289c.312 0 .491.216.491.47 0 .267-.186.454-.491.454h-1.289Zm7.364 1.065h1.393l-1.877-4.968h-1.609l-1.87 4.968h1.393l.254-.753h2.063l.253.753ZM30.53 6.083l.7 2.018h-1.393l.693-2.018Zm6.578 3.851h1.237V4.966h-1.289v2.86l-2.01-2.86h-1.32v4.968h1.282V6.932l2.1 3.002Zm5.202 0h1.57l-2.033-2.645 1.93-2.323h-1.58l-1.526 2.04v-2.04h-1.282v4.968h1.282V8.48l.335-.417 1.303 1.87Zm-19.137 9.103h1.281v-1.683h1.207c1.117 0 1.728-.737 1.728-1.631 0-.902-.611-1.654-1.728-1.654h-2.488v4.968Zm2.912-3.322c0 .335-.253.552-.596.552h-1.035v-1.118h1.035c.343 0 .596.224.596.566Zm4.918 3.322h1.393L30.52 14.07h-1.608l-1.87 4.968h1.393l.253-.752h2.063l.253.752Zm-1.288-3.85.7 2.018h-1.393l.693-2.018Zm4.044 3.85h1.28v-2.003l1.878-2.965h-1.453L34.4 15.901l-1.08-1.832h-1.445l1.885 2.965v2.003Zm8.031 0h1.281V14.07h-1.78l-1.043 2.816-1.035-2.816h-1.78v4.968h1.281v-3.351l1.251 3.351h.566l1.26-3.351v3.351Zm2.324 0h3.642v-1.08h-2.361v-.893h2.309v-1.088h-2.31v-.827h2.362v-1.08h-3.642v4.968Zm7.916 0h1.237V14.07h-1.289v2.86l-2.01-2.86h-1.32v4.968h1.282v-3.001l2.1 3.001Zm3.391 0h1.281v-3.85h1.386v-1.118h-4.06v1.117h1.393v3.851Z"/>
</svg>
