<?xml version="1.0" encoding="UTF-8"?>
<svg width="100px" height="100px" viewBox="0 0 100 100" version="1.1" xmlns="http://www.w3.org/2000/svg" xmlns:xlink="http://www.w3.org/1999/xlink">
    <!-- Generator: Sketch 60 (88103) - https://sketch.com -->
    <title>Group 3</title>
    <desc>Created with Sketch.</desc>
    <g id="SDK" stroke="none" stroke-width="1" fill="none" fill-rule="evenodd">
        <g id="Artboard" transform="translate(-238.000000, -365.000000)">
            <g id="Group-3" transform="translate(238.000000, 365.000000)">
                <g id="Group-2">
                    <rect id="Rectangle" fill="#B2D235" fill-rule="nonzero" x="0" y="0" width="99.8117647" height="99.8117647" rx="2.688"></rect>
                    <path d="M49.7082353,12.9458824 C32.6611765,19.1223529 20.0117647,34.6376471 17.1458824,53.5623529 C13.8352941,77.28 29.3505882,95.8094118 53.4635294,95.5623529 C58.7505882,95.5129412 70.2635294,94.3764706 75.5505882,92.1035294 L80.7882353,60.8258824 C75.3035294,65.4211765 69.2752941,68.7317647 62.2588235,68.7811765 C53.2164706,68.88 46.5952941,61.6164706 47.7811765,52.5247059 C49.2141176,43.4329412 57.6635294,36.0705882 66.7552941,35.9717647 C73.5247059,35.9223529 79.1082353,39.8752941 83.4070588,44.3717647 L87.8047059,12.6 C87.8047059,12.6 74.8094118,9.73411765 66.4094118,10.1294118 C59.8376471,10.3764706 49.7082353,12.9458824 49.7082353,12.9458824" id="Path" fill="#FFFFFF"></path>
                    <path d="M66.4588235,10.2282353 C74.3647059,9.88235294 86.52,12.4517647 87.7058824,12.6988235 C87.6564706,12.9458824 83.4070588,43.6305882 83.3576471,44.1247059 C77.9223529,38.4917647 72.4870588,35.7741176 66.8047059,35.8235294 C57.7129412,35.9223529 49.1647059,43.3835294 47.7317647,52.4752941 C47.1882353,56.8729412 48.3741176,60.9741176 51.0917647,64.0376471 C53.8588235,67.1505882 57.8611765,68.88 62.3082353,68.8305882 C68.4352941,68.7811765 74.3152941,66.2611765 80.64,61.0235294 C80.5411765,61.6658824 75.5011765,91.8070588 75.4517647,91.9058824 C70.0658824,94.2282353 58.5035294,95.3152941 53.4635294,95.3647059 C42.0494118,95.4635294 32.0682353,91.3129412 25.3482353,83.6541176 C19.8141176,77.3294118 16.8494118,69.1270588 16.8,60.0847059 C16.8,57.9105882 16.9482353,55.7364706 17.2447059,53.5129412 C20.0611765,34.7858824 32.5129412,19.2705882 49.7082353,12.9952941 C49.9552941,12.9952941 59.9858824,10.4752941 66.4588235,10.2282353 M66.4588235,9.98117647 C59.9364706,10.2776471 49.8070588,12.7976471 49.7082353,12.7976471 L49.7082353,12.7976471 C32.4141176,19.0729412 19.9129412,34.6870588 17.0964706,53.5129412 C15.4164706,65.2235294 18.2823529,76.0447059 25.2,83.9011765 C31.9694118,91.6094118 42,95.76 53.5129412,95.6611765 C58.6023529,95.6117647 70.2635294,94.5247059 75.6494118,92.1529412 L75.6988235,92.1035294 L80.9858824,60.4305882 L80.7388235,60.6776471 C74.3152941,66.0141176 68.4847059,68.5835294 62.3082353,68.6329412 C57.9105882,68.6823529 54.0070588,67.0023529 51.24,63.9388235 C48.5223529,60.8752941 47.3858824,56.8729412 47.9294118,52.5741176 C49.3129412,43.5811765 57.7623529,36.2188235 66.7552941,36.12 C72.4870588,36.0705882 77.8729412,38.8376471 83.3082353,44.52 L83.4564706,44.7176471 L87.9035294,12.5505882 L87.7552941,12.5011765 C87.7552941,12.4517647 74.76,9.63529412 66.4588235,9.98117647" id="Shape" fill="#FFFFFF"></path>
                    <path d="M47.3858824,11.3647059 C30.3388235,17.5905882 17.6894118,33.0564706 14.8235294,51.9811765 C11.5129412,75.6988235 27.0282353,94.2282353 51.1411765,93.9811765 C56.4282353,93.9317647 67.9905882,92.7952941 73.2282353,90.4729412 L78.4658824,59.1952941 C72.9811765,63.7905882 67.0023529,67.1011765 59.9364706,67.1505882 C50.8941176,67.2494118 44.2729412,59.9858824 45.4588235,50.8941176 C46.8917647,41.8023529 55.3905882,34.44 64.4329412,34.3411765 C71.2023529,34.2423529 76.7858824,38.2447059 81.0847059,42.7411765 L85.4823529,10.9694118 C85.4823529,10.9694118 73.2776471,7.65882353 65.3223529,7.85647059 C58.2564706,8.15294118 47.3858824,11.3647059 47.3858824,11.3647059" id="Path" fill="#ED1D24"></path>
                    <polygon id="Path" fill="#000000" fill-rule="nonzero" points="31.3764706 16.2070588 29.4494118 29.8447059 35.7741176 29.7952941 37.6517647 16.1576471"></polygon>
                    <path d="M38.3435294,11.8588235 C38.8376471,10.08 37.5529412,8.84470588 35.5764706,8.84470588 C33.5505882,8.84470588 31.8211765,10.1294118 31.5741176,11.9082353 C31.3270588,14.1811765 32.8588235,15.1694118 34.6376471,15.1694118 C36.3670588,15.12 38.0964706,14.1317647 38.3435294,11.8588235" id="Path" fill="#000000" fill-rule="nonzero"></path>
                    <path d="M14.1811765,10.5741176 L11.3647059,29.7458824 L20.4070588,29.6470588 C23.6682353,29.6470588 27.4235294,28.3129412 27.9176471,24.5576471 C28.1647059,22.0376471 27.1270588,20.5552941 25.3482353,19.7647059 C27.0776471,19.2705882 28.0658824,17.4917647 28.3129412,15.96 C28.7576471,11.4141176 25.2494118,10.4258824 21.7411765,10.4752941 L14.1811765,10.5741176 Z M19.8141176,18.0847059 L19.32,18.0847059 L19.5176471,15.3176471 L20.0117647,15.3176471 C21,15.3176471 22.2847059,15.0705882 22.0376471,16.5529412 C21.84,17.7882353 20.8023529,18.0847059 19.8141176,18.0847059 L19.8141176,18.0847059 Z M18.1341176,25.1505882 L18.5788235,22.1364706 L19.32,22.1364706 C20.3082353,22.1364706 22.0870588,22.1364706 21.84,23.6188235 C21.5929412,25.1505882 20.1105882,25.1505882 18.8258824,25.1505882 L18.1341176,25.1505882 L18.1341176,25.1505882 Z" id="Shape" fill="#000000" fill-rule="nonzero"></path>
                    <path d="M53.6117647,28.8564706 L55.4894118,16.0094118 L49.2141176,16.0588235 L49.2141176,18.0847059 L48.9670588,18.0847059 C48.4235294,16.6023529 47.1882353,15.8117647 45.6564706,15.8611765 C41.9011765,15.9105882 39.4305882,19.4682353 38.9364706,22.9764706 C38.4423529,26.2376471 39.9741176,30.0423529 43.5317647,29.9929412 C45.0635294,29.9929412 46.7929412,29.2023529 47.7811765,27.6705882 L47.5341176,28.9058824 C47.2870588,30.6847059 46.0517647,31.9694118 44.3223529,31.9694118 C42.7905882,31.9694118 41.0117647,31.4752941 40.0235294,30.4870588 L38.0470588,35.0329412 L38.5411765,35.28 C40.32,36.0211765 41.8517647,36.2682353 43.8282353,36.2682353 C48.3741176,36.2188235 52.8705882,34.1435294 53.6117647,28.8564706 M46.7929412,24.6564706 C45.7552941,24.6564706 45.0141176,23.9152941 45.2611765,22.9270588 C45.5082353,21.8894118 46.2494118,20.9011765 47.2376471,20.9011765 C48.2258824,20.9011765 48.7694118,21.8894118 48.5223529,22.9270588 C48.5223529,23.8658824 47.7811765,24.6070588 46.7929412,24.6564706" id="Shape" fill="#000000" fill-rule="nonzero"></path>
                    <polygon id="Path" fill="#FFDD00" points="29.8447059 14.0329412 27.9670588 27.6705882 33.9952941 27.6211765 35.8729412 13.9835294"></polygon>
                    <path d="M36.8117647,9.68470588 C37.0588235,7.90588235 35.7741176,6.67058824 33.7482353,6.67058824 C31.7223529,6.67058824 30.24,7.95529412 29.9929412,9.73411765 C29.4988235,12.0070588 31.0305882,12.9952941 32.8094118,12.9952941 C34.8352941,12.9952941 36.6141176,11.9576471 36.8117647,9.68470588" id="Path" fill="#FFDD00"></path>
                    <path d="M12.4517647,8.4 L9.83294118,27.5717647 L18.8752941,27.4729412 C22.1364706,27.4729412 25.6447059,26.1388235 26.3858824,22.3835294 C26.6329451,19.8635294 25.5952941,18.3811765 23.5694118,17.64 C25.2988235,17.1458824 26.2870588,15.3670588 26.5341176,13.5882353 C27.2752941,9.28941176 23.7176471,8.30117647 20.2094118,8.35058824 L12.4517647,8.4 Z M18.2823529,15.9105882 L17.5411765,15.9105882 L18.0352941,13.1435294 L18.5294118,13.1435294 C19.5176471,13.1435294 20.8023529,12.8470588 20.5552941,14.3788235 C20.3082353,15.6141176 19.2705882,15.9105882 18.2823529,15.9105882 L18.2823529,15.9105882 Z M16.6023529,22.9764706 L17.0964706,19.9623529 L17.8376471,19.9623529 C18.8752941,19.9623529 20.6047059,19.9129412 20.3576471,21.4447059 C20.1105882,22.9764706 18.3811765,22.9764706 17.3435294,22.9764706 L16.6023529,22.9764706 L16.6023529,22.9764706 Z" id="Shape" fill="#FFDD00"></path>
                    <path d="M45.2611765,22.4823529 C43.9764706,22.4823529 43.4823529,21.7411765 43.7294118,20.7529412 C43.7294118,19.7152941 44.7176471,18.7270588 45.7058824,18.7270588 C46.6941176,18.7270588 47.2376471,19.7152941 46.9905882,20.7529412 C46.7435294,21.6917647 46.2494118,22.4329412 45.2611765,22.4823529 M52.08,26.6823529 L53.7105882,13.8352941 L47.6823529,13.8847059 L47.6823529,15.9105882 L47.4352941,15.9105882 C46.6941176,14.4282353 45.6564706,13.6376471 43.9270588,13.6870588 C40.4188235,13.6870588 37.8988235,17.2447059 37.4541176,20.8023529 C37.0094118,24.0635294 38.5411765,27.8682353 42.0494118,27.8188235 C43.5811765,27.8188235 45.3105882,27.0282353 46.0517647,25.4964706 L46.2988235,25.4964706 L46.0517647,26.7811765 C45.8047059,28.56 44.3223529,29.8447059 42.5435294,29.8447059 C41.0117647,29.8447059 39.5294118,29.3505882 38.2447059,28.3623529 L36.2682353,32.9082353 L37.0588235,33.1058824 C38.7882353,33.6 40.32,34.0941176 42.3458824,34.0447059 C46.8423529,34.0447059 51.3388235,31.9694118 52.08,26.6823529" id="Shape" fill="#FFDD00"></path>
                </g>
            </g>
        </g>
    </g>
</svg>