<svg xmlns="http://www.w3.org/2000/svg" fill="none" viewBox="0 0 50 25">
  <path fill="url(#blik__a)" d="M46.83.32H3.17a2.465 2.465 0 0 0-.988.206 2.577 2.577 0 0 0-.837.59c-.24.254-.43.555-.56.885a2.86 2.86 0 0 0-.197 1.044V21.67c0 .358.067.713.197 1.044.13.33.32.631.56.884.24.253.524.454.837.59.314.138.65.208.988.208h43.66c.34 0 .675-.07.988-.207.313-.137.598-.338.838-.59.24-.254.43-.555.56-.885.13-.331.196-.686.196-1.044V3.045c0-.723-.272-1.417-.756-1.928A2.513 2.513 0 0 0 46.83.32Z"/>
  <path fill="url(#blik__b)" d="M19.3 5.794c.01-1.516-1.146-2.753-2.58-2.763-1.435-.01-2.606 1.211-2.615 2.727-.01 1.517 1.146 2.754 2.581 2.763 1.435.01 2.605-1.21 2.615-2.727Z"/>
  <path fill="#fff" d="M13.793 9.805a5.254 5.254 0 0 0-2.605.69V3.912H8.284V15.62a6.054 6.054 0 0 0 .926 3.235 5.586 5.586 0 0 0 2.47 2.146 5.233 5.233 0 0 0 3.183.333 5.422 5.422 0 0 0 2.822-1.591 5.93 5.93 0 0 0 1.509-2.98 6.122 6.122 0 0 0-.313-3.363 5.763 5.763 0 0 0-2.028-2.613 5.3 5.3 0 0 0-3.06-.982Zm0 8.62a2.55 2.55 0 0 1-1.473-.473 2.774 2.774 0 0 1-.976-1.257 2.949 2.949 0 0 1-.15-1.618 2.854 2.854 0 0 1 .724-1.434 2.61 2.61 0 0 1 1.358-.767 2.518 2.518 0 0 1 1.531.16c.484.212.898.57 1.19 1.031a2.94 2.94 0 0 1 .245 2.628c-.134.34-.33.648-.575.908-.246.26-.539.466-.86.607a2.54 2.54 0 0 1-1.014.213v.001ZM24.246 3.911h-2.903v17.407h2.903V3.912Zm5.48 6.004h-2.904V21.32h2.904V9.916ZM43.152 21.31h-3.738l-4.069-6.078v6.078h-2.9V3.92h2.9v11.296l3.998-5.296h3.388l-4.07 5.263 4.49 6.126Z"/>
  <defs>
    <linearGradient id="blik__a" x1="25" x2="25" y1="24.227" y2=".415" gradientUnits="userSpaceOnUse">
      <stop stop-color="#5A5A5A"/>
      <stop offset=".146" stop-color="#484848"/>
      <stop offset=".52" stop-color="#212121"/>
      <stop offset=".817" stop-color="#080808"/>
      <stop offset="1"/>
    </linearGradient>
    <linearGradient id="blik__b" x1="14.852" x2="18.755" y1="7.702" y2="4.061" gradientUnits="userSpaceOnUse">
      <stop stop-color="#E52F08"/>
      <stop offset="1" stop-color="#E94F96"/>
    </linearGradient>
  </defs>
</svg>
