<svg xmlns="http://www.w3.org/2000/svg" width="140" height="42" viewBox="0 0 140 42">
    <defs>
        <linearGradient id="a" x1="0%" y1="0%" y2="0%">
            <stop offset="0%" stop-color="#11AAE2"/>
            <stop offset="59%" stop-color="#0880B7"/>
            <stop offset="100%" stop-color="#016197"/>
        </linearGradient>
        <linearGradient id="b" x1="0%" x2="0%" y1="0%" y2="100%">
            <stop offset="0%" stop-color="#F9AA4B"/>
            <stop offset="100%" stop-color="#F7931A"/>
        </linearGradient>
    </defs>
    <g fill="none" fill-rule="nonzero">
        <path fill="#BEBEBE" stroke="#393939" d="M138.882 25.99c2.738-10.961-3.945-22.064-14.927-24.796-10.981-2.733-22.104 3.939-24.84 14.9-2.74 10.959 3.943 22.06 14.922 24.793 10.984 2.734 22.107-3.937 24.845-14.897z"/>
        <path fill="#FFF" stroke="#393939" d="M105.882 25.99c2.738-10.961-3.945-22.064-14.927-24.796-10.981-2.733-22.104 3.939-24.84 14.9-2.74 10.959 3.943 22.06 14.922 24.793 10.984 2.734 22.107-3.937 24.845-14.897z"/>
        <path fill="url(#a)" d="M15.865.673c-1.705.965-2.714 2.707-2.714 4.545 0 .965.402 1.937.905 2.805.403.775.6 2.128-.804 2.805-1.001.578-2.312.193-2.911-.775-.6-.775-1.303-1.55-2.209-2.128a5.437 5.437 0 0 0-5.42 0C1.007 8.89 0 10.637 0 12.475c0 1.839 1.002 3.58 2.711 4.548a5.437 5.437 0 0 0 5.421 0c.906-.485 1.609-1.255 2.107-2.127.402-.678 1.508-1.55 2.912-.775 1.001.577 1.302 1.84.804 2.805-.503.872-.804 1.84-.804 2.805 0 1.84 1.001 3.58 2.714 4.545a5.437 5.437 0 0 0 5.42 0C22.99 23.311 24 21.57 24 19.731s-1.004-3.58-2.714-4.548c-.906-.485-1.91-.677-3.013-.677-.906 0-2.107-.578-2.107-2.03 0-1.163.906-2.03 2.107-2.03 1.002 0 2.107-.193 3.013-.678C22.99 8.803 24 7.06 24 5.223c0-1.838-1.004-3.58-2.714-4.545C20.48.193 19.48 0 18.574 0c-.9-.005-1.91.193-2.709.673" transform="translate(72 8)"/>
        <path fill="#FFF" stroke="#393939" d="M73.882 25.99C76.62 15.029 69.937 3.926 58.955 1.194c-10.981-2.733-22.104 3.939-24.84 14.9-2.74 10.959 3.943 22.06 14.922 24.793 10.984 2.734 22.107-3.937 24.845-14.897z"/>
        <path fill="#343434" d="M53.998 8l-.175.57v16.526l.175.168 7.997-4.535z"/>
        <path fill="#8C8C8C" d="M53.998 8L46 20.729l7.998 4.535v-8.022z"/>
        <path fill="#3C3C3B" d="M53.998 26.716l-.099.115v5.888l.099.275L62 22.184z"/>
        <path fill="#8C8C8C" d="M53.998 32.994v-6.278L46 22.184z"/>
        <path fill="#141414" d="M53.998 25.264l7.997-4.535-7.997-3.487z"/>
        <path fill="#393939" d="M46 20.73l7.998 4.534v-8.022z"/>
        <g>
            <path fill="url(#b)" stroke="#393939" d="M40.882 25.99C43.62 15.029 36.937 3.926 25.955 1.194 14.974-1.54 3.85 5.133 1.115 16.094c-2.74 10.959 3.943 22.06 14.922 24.793 10.984 2.734 22.107-3.937 24.845-14.897z"/>
            <path fill="#FFF" d="M30.254 18.055c.418-2.789-1.71-4.288-4.619-5.288l.944-3.778-2.304-.573-.92 3.678a96.544 96.544 0 0 0-1.845-.434l.925-3.702-2.303-.573-.944 3.776a77.207 77.207 0 0 1-1.471-.345l.002-.012-3.177-.791-.613 2.456s1.71.39 1.673.415c.933.232 1.102.849 1.074 1.337l-2.586 10.35c-.114.283-.403.707-1.056.546.023.033-1.674-.417-1.674-.417l-1.144 2.632 2.998.746c.558.14 1.105.286 1.643.423l-.954 3.821 2.302.573.944-3.78c.629.17 1.24.327 1.836.475l-.94 3.763 2.303.573.954-3.814c3.929.742 6.883.443 8.127-3.104 1.002-2.855-.05-4.503-2.117-5.577 1.505-.346 2.64-1.335 2.942-3.376zm-5.265 7.368c-.712 2.855-5.53 1.312-7.091.925l1.265-5.063c1.562.39 6.57 1.16 5.826 4.138zm.713-7.41c-.65 2.598-4.66 1.279-5.96.955l1.147-4.591c1.3.323 5.49.927 4.813 3.637z"/>
        </g>
        <path fill="#FFF" d="M119.664 21.358l3.883-1.404.966-3.594-.033-.089-3.822 1.383 2.754-10.267h-7.81L112 20.785l-3.006 1.088-.994 3.704 3.005-1.086-2.123 7.896h20.785L131 27.472h-12.976z"/>
    </g>
</svg>
