<svg fill="none" viewBox="0 0 160 100" xmlns="http://www.w3.org/2000/svg" xmlns:xlink="http://www.w3.org/1999/xlink"><clipPath id="a"><path d="m0 0h160v100h-160z"/></clipPath><g clip-path="url(#a)"><path clip-rule="evenodd" d="m75.27 34.796h8.298s8.216-.166 8.133 7.302c-.082 5.56-7.966 6.39-7.966 6.39h-8.465zm24.825 26.806c.233 1.087 1.019 2.284 3.64 2.407 3.485.082 5.477-1.247 5.477-1.247v2.573s-3.817.914-5.644.914c-1.908 0-7.551-.416-7.551-5.643 0-4.232 4.597-5.595 7.252-5.595 4.648.165 6.938 1.861 6.855 6.59 0 .069-7.646.018-10.029.001zm.011-2.076h6.367s0-2.406-3.07-2.406c-2.31 0-3.066 1.245-3.297 2.406zm20.143-2.598c.921-1 2.468-1.8 5.062-1.8 5.146 0 5.976 4.315 5.893 5.477-.083 1.161-.498 5.56-6.472 5.56-2.257 0-3.638-.77-4.483-1.727v1.394h-4.066v-14.938h4.066zm3.486 6.913c2.407-.084 3.485-2.157 3.485-3.153s-.581-3.07-3.652-3.07c-2.383 0-3.108 1.8-3.319 2.679v1.082c.209.897.938 2.462 3.486 2.462zm35.104-.414.082 2.324s-1.908.414-3.153.414c-1.244 0-4.482-.746-4.482-3.9v-4.815h-3.402v-2.157h3.402v-2.572h4.15v2.572h3.403v2.157h-3.403v4.15s0 2.075 1.661 2.075c1.659 0 1.742-.25 1.742-.25zm-12.614-26.39h4.813v11.533h4.065v-11.534h4.897v-2.406h-13.775zm-1.661.58.498-2.407s-2.075-.912-5.725-.912c-3.569 0-9.294 1.992-9.294 7.386 0 5.311 6.057 7.137 9.792 7.137 3.734 0 4.979-.581 4.979-.581l-.415-2.656s-1.66.498-4.482.498c-2.739-.083-5.558-2.24-5.558-4.647.082-2.157 2.571-4.564 5.809-4.564 2.488 0 4.396.746 4.396.746zm-36.68-2.904s6.805-.331 6.805 3.652c0 3.403-3.899 3.651-3.899 3.651s1.077.166 1.576.912c.415.664 3.153 5.644 3.153 5.644h-4.15s-.664-.83-.996-1.41c-.249-.581-.996-1.826-.996-1.826s-.58-2.075-2.573-2.075c-.05 0-.86-.031-1.494-.055v5.366h-3.983v-13.859zm-2.573 6.224h2.158s2.987-.166 3.153-1.992c.084-1.742-2.903-1.992-2.903-1.992h-2.408zm16.68 2.158h6.64v-2.573h-6.64v-3.152h7.221v-2.656h-11.285v13.859h11.369v-2.49h-7.304v-2.987h-.001zm16.182 10.622h4.067v-2.823h-4.067zm0 12.116h4.067v-10.539h-4.067zm-44.313-17.261h3.983v-13.859h-3.983zm-18.59 3.486h8.298s8.216-.168 8.133 7.302c-.082 5.56-7.966 6.391-7.966 6.391h-8.465zm4.066 11.12h2.656s5.477-.332 5.477-4.564c0-4.233-5.81-4.648-5.81-4.648h-2.323zm0-17.262h2.656s5.477-.415 5.477-4.564c0-4.316-5.81-4.647-5.81-4.647h-2.323zm-41.328-2.87v27.767s-16.1-2.905-16.1-13.942c0-8.803 11.919-12.683 16.1-13.825zm0-.518c-9.677-.7-31.618 3.835-31.618 13.761 0 6.472 11.619 15.934 30.54 16.183.746 0 22.24-.83 21.908-23.901-.279-19.377-14.781-22.77-19.419-23.362v-1.18c18.489 1.173 33.03 12.292 33.03 25.787 0 14.274-16.267 25.891-36.266 25.891-20 0-36.183-11.617-36.183-25.891 0-18.52 22.757-26.41 38.009-25.86v18.572z" fill="#000" fill-rule="evenodd"/></g></svg>