<?xml version="1.0" encoding="utf-8"?>
<!-- Generator: Adobe Illustrator 27.5.0, SVG Export Plug-In . SVG Version: 6.00 Build 0)  -->
<svg version="1.1" id="Layer_1" xmlns="http://www.w3.org/2000/svg" xmlns:xlink="http://www.w3.org/1999/xlink" x="0px" y="0px"
	 viewBox="0 0 271.46 271.46" style="enable-background:new 0 0 271.46 271.46;" xml:space="preserve">
<style type="text/css">
	.st0{fill:#060316;}
</style>
<g>
	<path class="st0" d="M174.25,113.38H97.79c-5.69,0-10.05-1.52-13.09-4.56s-4.56-7.21-4.56-12.5s1.52-9.46,4.56-12.5
		s7.4-4.56,13.09-4.56h76.46c5.68,0,10.04,1.52,13.09,4.56c3.04,3.04,4.56,7.21,4.56,12.5s-1.52,9.46-4.56,12.5
		S179.94,113.38,174.25,113.38 M164.84,152.79H136.9c-5.69,0-10.05-1.52-13.09-4.56c-3.04-3.04-4.56-7.21-4.56-12.5
		s1.52-9.46,4.56-12.5s7.4-4.56,13.09-4.56h27.94c5.68,0,10.04,1.52,13.09,4.56c3.04,3.04,4.56,7.21,4.56,12.5s-1.52,9.46-4.56,12.5
		C174.89,151.27,170.53,152.79,164.84,152.79 M114.26,135.73v1.76c0,6.47,1.96,11.52,5.88,15.15c3.92,3.63,8.92,5.44,15,5.44h39.11
		c5.68,0,10.04,1.52,13.09,4.56c3.04,3.04,4.56,7.21,4.56,12.5s-1.52,9.46-4.56,12.5s-7.4,4.56-13.09,4.56H97.79
		c-5.69,0-10.05-1.52-13.09-4.56s-4.56-7.4-4.56-13.09v-38.82c0-5.68,1.52-10.05,4.56-13.09c3.04-3.04,7.2-4.56,12.5-4.56
		c5.29,0,9.46,1.52,12.5,4.56C112.75,125.68,114.26,130.04,114.26,135.73 M89.26,210.73h92.93c8.04,0,14.8-2.74,20.29-8.24
		c5.49-5.49,8.23-12.25,8.23-20.29V89.26c0-8.04-2.75-14.8-8.23-20.29c-5.49-5.49-12.25-8.24-20.29-8.24H89.26
		c-8.04,0-14.81,2.75-20.29,8.24c-5.49,5.49-8.23,12.26-8.23,20.29v92.94c0,7.84,2.79,14.56,8.38,20.15
		C74.71,207.93,81.43,210.73,89.26,210.73"/>
</g>
</svg>
