<svg width="100" height="100" viewBox="0 0 100 100" fill="none" xmlns="http://www.w3.org/2000/svg">
<path d="M75.68 35.0865H24.7C20.91 35.0865 18 34.0766 15.97 32.0468C13.94 30.027 12.93 27.2473 12.93 23.7176C12.93 20.188 13.94 17.4083 15.97 15.3885C17.99 13.3687 20.9 12.3488 24.7 12.3488H75.68C79.47 12.3488 82.38 13.3587 84.41 15.3885C86.43 17.4183 87.45 20.188 87.45 23.7176C87.45 27.2473 86.44 30.027 84.41 32.0468C82.38 34.0866 79.47 35.0865 75.68 35.0865ZM69.41 61.3639H50.78C46.99 61.3639 44.08 60.354 42.05 58.3242C40.02 56.3044 39.01 53.5246 39.01 49.995C39.01 46.4654 40.02 43.6856 42.05 41.6658C44.07 39.646 46.98 38.6261 50.78 38.6261H69.41C73.2 38.6261 76.11 39.636 78.14 41.6658C80.16 43.6956 81.18 46.4654 81.18 49.995C81.18 53.5246 80.17 56.3044 78.14 58.3242C76.11 60.364 73.2 61.3639 69.41 61.3639ZM35.68 50.005V51.1849C35.68 55.4944 36.99 58.8641 39.6 61.2839C42.21 63.7036 45.55 64.9135 49.6 64.9135H75.68C79.47 64.9135 82.38 65.9234 84.41 67.9532C86.43 69.983 87.45 72.7527 87.45 76.2824C87.45 79.812 86.44 82.5917 84.41 84.6115C82.38 86.6413 79.47 87.6512 75.68 87.6512H24.7C20.91 87.6512 18 86.6413 15.97 84.6115C13.94 82.5917 12.93 79.682 12.93 75.8824V50.005C12.93 46.2154 13.94 43.3057 15.97 41.2759C17.99 39.2561 20.77 38.2362 24.3 38.2362C27.83 38.2362 30.61 39.2461 32.63 41.2759C34.67 43.3057 35.68 46.2054 35.68 50.005ZM19.02 100H80.98C86.34 100 90.85 98.1702 94.51 94.5105C98.17 90.8509 100 86.3414 100 80.9819V19.0181C100 13.6586 98.17 9.14909 94.51 5.48945C90.85 1.82982 86.34 0 80.98 0H19.02C13.66 0 9.15 1.82982 5.49 5.48945C1.83 9.14909 0 13.6586 0 19.0181V80.9719C0 86.2014 1.86 90.6809 5.59 94.4006C9.31 98.1202 13.79 100 19.02 100Z" fill="#060316"/>
</svg>
