<?xml version="1.0" encoding="utf-8"?>
<!-- Generator: Adobe Illustrator 24.2.3, SVG Export Plug-In . SVG Version: 6.00 Build 0)  -->
<svg version="1.1" id="Слой_1" xmlns="http://www.w3.org/2000/svg" xmlns:xlink="http://www.w3.org/1999/xlink" x="0px" y="0px"
	 viewBox="0 0 24.8618622 19.9243698" style="enable-background:new 0 0 24.8618622 19.9243698;" xml:space="preserve">
<style type="text/css">
	.st0{clip-path:url(#SVGID_2_);}
	.st1{clip-path:url(#SVGID_4_);fill:#4A4A4A;}
	.st2{clip-path:url(#SVGID_6_);}
	.st3{clip-path:url(#SVGID_8_);enable-background:new    ;}
	.st4{clip-path:url(#SVGID_10_);}
	.st5{clip-path:url(#SVGID_12_);}
	.st6{clip-path:url(#SVGID_14_);fill:#4A4A4A;}
</style>
<g>
	<g>
		<defs>
			<path id="SVGID_1_" d="M24.4341164,7.8299503c0.4518585,0.3225298,0.5636692,0.9608498,0.2490597,1.4256306l-6.2662106,9.2633743
				c-0.5964394,0.880415-1.5741692,1.4054146-2.6185999,1.4054146H0L7.3742652,9.0241804l1.702168,2.5120754L5.342844,17.0545006
				h9.9720516c0.1306896,0,0.2525301-0.065773,0.3269396-0.1759243L21.8879948,7.6461h1.9770603
				C24.0686264,7.6461,24.2671757,7.7102909,24.4341164,7.8299503"/>
		</defs>
		<clipPath id="SVGID_2_">
			<use xlink:href="#SVGID_1_"  style="overflow:visible;"/>
		</clipPath>
		<g class="st0">
			<defs>
				<rect id="SVGID_3_" x="-24.0001545" y="-9.3964195" width="320" height="895"/>
			</defs>
			<clipPath id="SVGID_4_">
				<use xlink:href="#SVGID_3_"  style="overflow:visible;"/>
			</clipPath>
			<rect x="-5" y="2.646101" class="st1" width="34.861866" height="22.2782688"/>
		</g>
	</g>
	<g>
		<defs>
			<rect id="SVGID_5_" x="9.2862892" width="14.8123856" height="14.8715"/>
		</defs>
		<clipPath id="SVGID_6_">
			<use xlink:href="#SVGID_5_"  style="overflow:visible;"/>
		</clipPath>
		<g class="st2">
			<defs>
				<rect id="SVGID_7_" x="-24.0001545" y="-9.3964195" width="320" height="895"/>
			</defs>
			<clipPath id="SVGID_8_">
				<use xlink:href="#SVGID_7_"  style="overflow:visible;"/>
			</clipPath>
			<g class="st3">
				<g>
					<defs>
						<rect id="SVGID_9_" x="8.9998455" y="-0.3964195" width="16" height="16"/>
					</defs>
					<clipPath id="SVGID_10_">
						<use xlink:href="#SVGID_9_"  style="overflow:visible;"/>
					</clipPath>
					<g class="st4">
						<defs>
							<path id="SVGID_11_" d="M24.0824661,0.1747398c0.0265999,0.0622101,0.0162086,0.1450214-0.0007706,0.2230816
								c-0.0670795,0.3106384-0.2328701,0.545599-0.3982601,0.7841282
								c-0.4395199,0.6355515-0.8721008,1.2881317-1.3042908,1.9407101l-7.6372089,11.3427792
								c-0.0659304,0.0986605-0.1499701,0.1834526-0.2482901,0.2496223c-0.4217806,0.2872639-0.99084,0.1676044-1.2699699-0.266264
								c-2.4424105-3.7954531-2.9413004-4.5712671-3.3021727-5.1275663
								C9.5594797,8.7645302,9.3362503,8.4269505,9.2938404,8.1507807c-0.0424089-0.2761698,0.096386-0.4917202,0.351615-0.6624899
								c0.2548428-0.1707802,0.6265106-0.2967806,4.1241398,1.1787701c2.2226505-2.0790005,4.4456911-4.1576004,6.5850611-6.3653812
								c0.5918102-0.6101799,1.1774502-1.2302799,1.8748989-1.69981c0.236721-0.1588783,0.4857807-0.3007298,0.7417812-0.4215794
								c0.2490597-0.1176796,0.5035191-0.21595,0.8080997-0.1679993
								C23.9055061,0.0325012,24.0408249,0.0776596,24.0824661,0.1747398"/>
						</defs>
						<clipPath id="SVGID_12_">
							<use xlink:href="#SVGID_11_"  style="overflow:visible;"/>
						</clipPath>
						<g class="st5">
							<defs>
								<rect id="SVGID_13_" x="8.9998455" y="-0.3964195" width="16" height="16"/>
							</defs>
							<clipPath id="SVGID_14_">
								<use xlink:href="#SVGID_13_"  style="overflow:visible;"/>
							</clipPath>
							<rect x="4.2862902" y="-5.0001297" class="st6" width="24.812397" height="24.8716297"/>
						</g>
					</g>
				</g>
			</g>
		</g>
	</g>
</g>
</svg>
