<svg xmlns="http://www.w3.org/2000/svg" fill="none" viewBox="0 0 46 24">
  <path fill="#fff" d="M33.574 0H12.426C5.817 0 .41 5.4.41 12s5.407 12 12.016 12h21.148c6.609 0 12.016-5.4 12.016-12S40.183 0 33.574 0Z"/>
  <path fill="#3C4043" d="M33.574.972c1.484 0 2.926.294 4.284.87a11.139 11.139 0 0 1 5.888 5.88c.576 1.356.87 2.796.87 4.278 0 1.482-.294 2.922-.87 4.278a11.124 11.124 0 0 1-5.888 5.88c-1.358.576-2.8.87-4.284.87H12.426c-1.484 0-2.926-.294-4.284-.87a11.14 11.14 0 0 1-5.888-5.88A10.874 10.874 0 0 1 1.384 12c0-1.482.294-2.922.87-4.278a11.123 11.123 0 0 1 5.888-5.88c1.358-.576 2.8-.87 4.284-.87h21.148Zm0-.972H12.426C5.817 0 .41 5.4.41 12s5.407 12 12.016 12h21.148c6.609 0 12.016-5.4 12.016-12S40.183 0 33.574 0Z"/>
  <path fill="#3C4043" d="M21.955 12.852v3.63H20.8V7.518h3.058c.775 0 1.436.258 1.977.774.552.516.829 1.146.829 1.89 0 .762-.277 1.392-.83 1.902-.534.51-1.195.762-1.976.762h-1.904v.006Zm0-4.224v3.12h1.928c.457 0 .841-.156 1.142-.462a1.51 1.51 0 0 0 .462-1.098c0-.414-.156-.78-.462-1.086-.3-.318-.68-.474-1.142-.474h-1.928Zm7.726 1.518c.853 0 1.526.228 2.018.684.493.456.74 1.08.74 1.872v3.78h-1.1v-.852h-.048c-.475.702-1.112 1.05-1.905 1.05-.679 0-1.243-.198-1.7-.6a1.915 1.915 0 0 1-.685-1.5c0-.636.24-1.14.721-1.512.48-.378 1.123-.564 1.923-.564.684 0 1.25.126 1.688.378v-.264c0-.402-.156-.738-.475-1.02a1.63 1.63 0 0 0-1.117-.42c-.643 0-1.154.27-1.526.816l-1.016-.636c.56-.81 1.388-1.212 2.482-1.212Zm-1.49 4.452c0 .3.126.552.384.75.253.198.553.3.895.3.487 0 .92-.18 1.298-.54.379-.36.57-.78.57-1.266-.36-.282-.858-.426-1.501-.426-.469 0-.86.114-1.172.336-.318.234-.474.516-.474.846Zm6.675 4.577 3.845-8.832h-1.255l-1.779 4.405h-.024l-1.826-4.404H32.57l2.535 5.742-1.43 3.09h1.19Z"/>
  <path fill="#4285F4" d="M17.366 12.12c0-.375-.034-.735-.096-1.08h-4.835v1.98h2.784a2.382 2.382 0 0 1-1.033 1.595V15.9h1.658c.968-.895 1.522-2.217 1.522-3.78Z"/>
  <path fill="#34A853" d="M14.187 14.615c-.462.31-1.056.493-1.75.493-1.344 0-2.483-.904-2.89-2.122h-1.71v1.325a5.148 5.148 0 0 0 4.6 2.83c1.39 0 2.557-.456 3.408-1.242l-1.658-1.284Z"/>
  <path fill="#FABB05" d="M9.385 12.003c0-.342.057-.672.161-.983V9.695h-1.71a5.108 5.108 0 0 0-.547 2.308c0 .83.197 1.614.547 2.309l1.71-1.325a3.096 3.096 0 0 1-.161-.984Z"/>
  <path fill="#E94235" d="M12.436 8.898c.759 0 1.438.261 1.975.771l1.469-1.466c-.892-.83-2.055-1.339-3.444-1.339a5.149 5.149 0 0 0-4.6 2.83l1.71 1.326c.408-1.218 1.547-2.122 2.89-2.122Z"/>
</svg>
