<svg xmlns="http://www.w3.org/2000/svg" width="179" height="48" viewBox="0 0 179 48">
    <g fill="none" fill-rule="evenodd">
        <rect width="179" height="48" fill="#000" rx="4.608"/>
        <g fill-rule="nonzero">
            <g fill="#FFF">
                <path d="M1.802 8.502v5.713H.012V.112h4.75C5.907.09 7.02.53 7.832 1.338c1.624 1.53 1.724 4.105.2 5.758l-.2.203c-.834.798-1.858 1.203-3.07 1.203h-2.96zm0-6.658V6.77h3.004c.668.023 1.313-.247 1.769-.73.934-.98.912-2.554-.056-3.498-.456-.45-1.068-.698-1.713-.698H1.802zM13.25 4.251c1.324 0 2.37.36 3.137 1.069.768.708 1.146 1.698 1.146 2.946v5.95H15.82v-1.339h-.078c-.745 1.102-1.724 1.653-2.96 1.653-1.045 0-1.935-.315-2.636-.944-.69-.585-1.079-1.451-1.057-2.362 0-1.001.378-1.788 1.124-2.384.745-.596 1.747-.889 2.993-.889 1.068 0 1.935.203 2.625.585V8.12c0-.619-.267-1.203-.734-1.608-.479-.428-1.09-.664-1.725-.664-1 0-1.79.427-2.37 1.282l-1.579-1c.846-1.25 2.125-1.879 3.827-1.879zm-2.314 7.007c0 .472.223.91.59 1.18.4.315.89.484 1.39.473.757 0 1.48-.304 2.014-.844.59-.562.89-1.226.89-1.99-.556-.45-1.335-.675-2.336-.664-.723 0-1.335.18-1.825.529-.478.348-.723.787-.723 1.316zM27.368 4.566L21.383 18.455 19.536 18.455 21.761 13.597 17.834 4.566 19.78 4.566 22.617 11.494 22.651 11.494 25.421 4.566z" transform="translate(66 16) translate(21.249 1.125)"/>
            </g>
            <g>
                <path fill="#4285F4" d="M15.809 8.39c0-.551-.045-1.102-.134-1.642H8.121v3.115h4.328c-.178 1.001-.756 1.9-1.602 2.463v2.024h2.581c1.513-1.405 2.38-3.486 2.38-5.96z" transform="translate(66 16)"/>
                <path fill="#34A853" d="M8.121 16.307c2.159 0 3.983-.72 5.307-1.957l-2.581-2.024c-.723.495-1.647.776-2.726.776-2.091 0-3.86-1.428-4.494-3.34H.967v2.092c1.358 2.733 4.128 4.453 7.154 4.453z" transform="translate(66 16)"/>
                <path fill="#FBBC04" d="M3.627 9.762c-.334-1.001-.334-2.092 0-3.104v-2.08H.967c-1.145 2.282-1.145 4.981 0 7.264l2.66-2.08z" transform="translate(66 16)"/>
                <path fill="#EA4335" d="M8.121 3.318c1.146-.023 2.248.416 3.07 1.214l2.293-2.316C12.026.843 10.113.09 8.12.112 5.095.112 2.325 1.844.968 4.577L3.627 6.67C4.26 4.746 6.03 3.318 8.12 3.318z" transform="translate(66 16)"/>
            </g>
        </g>
    </g>
</svg>
