<svg width="160" height="33" fill="none" xmlns="http://www.w3.org/2000/svg"><path d="M56.503 19.228c0-2.641-1.388-3.492-3.581-3.492-2.015 0-3.358 1.12-4.164 2.104v13.968h-6.894V1.947h6.894v10.879c1.299-1.522 3.85-3.179 7.476-3.179 4.925 0 7.164 2.776 7.164 6.76v15.401h-6.895v-12.58zm23.087 12.58h6.894V10.185H79.59v13.968c-.806 1.03-2.15 2.104-4.12 2.104-2.238 0-3.58-.896-3.58-3.492v-12.58h-6.895v15.4c0 3.985 2.193 6.76 7.118 6.76 3.626 0 6.134-1.611 7.477-3.133v2.596zm63.523-22.16c-3.403 0-6.223 1.97-7.476 3.85-.896-2.552-3.045-3.85-6.134-3.85-3.191 0-5.822 1.69-6.914 2.934a4.947 4.947 0 0 0-2.108-2.2c-1.023-.6-2.31-.894-3.808-.894-.826 0-1.618.118-2.362.32-2.655.497-4.794 2.12-5.84 3.69-.896-2.552-3.045-3.85-6.134-3.85-3.402 0-6.178 1.924-7.118 3.178v-2.641h-6.894v21.623h6.894V17.84c.716-.895 2.015-2.104 3.85-2.104 2.104 0 2.866 1.253 2.866 2.91v13.162h6.894V17.84c.498-.665 1.368-1.5 2.552-1.889.226-.065.463-.121.709-.167.204-.03.415-.048.634-.048 1.653 0 2.497.808 2.766 1.984v14.088h6.949V17.774c.726-.887 2.004-2.038 3.796-2.038 2.104 0 2.865 1.253 2.865 2.91v13.162h6.894V17.84c.672-.895 2.015-2.104 3.895-2.104 2.06 0 2.865 1.253 2.865 2.91v13.162h6.85V16.14c0-4.432-2.507-6.492-6.491-6.492zM34.091 1.566l-14.93 14.931a.597.597 0 0 1-.848 0 .599.599 0 0 1 0-.847L28.748 5.215l-.23-.357A15.458 15.458 0 0 0 17.949.694C13.672.695 9.8 2.424 6.993 5.22 5.985 6.245 2.699 6.42.45 6.161c1.39 1.787 2.75 4.507 2.46 6.2a15.55 15.55 0 0 0-.483 3.854c0 8.572 6.949 15.52 15.52 15.52l.267-.002v.003H33.47V21.18c5.37-5.388 5.577-13.976.622-19.614zM155.265 18.886c2.401 0 4.315-1.909 4.315-4.259 0-2.37-1.914-4.258-4.315-4.258-2.382 0-4.316 1.888-4.316 4.258 0 2.35 1.934 4.259 4.316 4.259zm0-7.814c1.994 0 3.602 1.566 3.602 3.555 0 1.948-1.608 3.556-3.602 3.556-1.995 0-3.603-1.608-3.603-3.556 0-1.989 1.608-3.555 3.603-3.555zm1.16 6.006h.915l-1.322-1.949c.285 0 1.262-.361 1.262-1.446 0-.904-.713-1.486-1.67-1.486h-2.015v4.88h.753V15.15h.794l1.283 1.929zm-.815-4.259c.55 0 .896.322.896.864 0 .502-.346.824-.896.824h-1.262v-1.688h1.262z" fill="#FF6C00"/><path d="M11.467 10.207c-.9 0-1.672-.545-2.006-1.323a2.575 2.575 0 0 1-.176-.9c0-.056.005-.11.01-.164l.005-.052a1.182 1.182 0 0 0 2.28-.444c0-.654-.53-1.184-1.185-1.184-.014 0-.027.004-.042.005a2.184 2.184 0 1 1 1.113 4.062z" fill="#fff"/></svg>
