<svg xmlns="http://www.w3.org/2000/svg" fill="none" viewBox="0 0 32 26">
  <path fill="#fff" d="M.806 0v25.792h15.962c10.529 0 15.095-5.555 15.095-12.921C31.863 5.533 27.297 0 16.768 0H.806Z"/>
  <path fill="#000" d="M2.532 1.627h14.239c9.664 0 13.368 4.972 13.368 11.244 0 7.52-5.173 11.294-13.368 11.294H2.532V1.627Zm1.38 1.3v19.938h12.859c7.763 0 11.986-3.407 11.986-9.994 0-6.77-4.578-9.944-11.986-9.944H3.913Zm1.725 11.41h4.116v6.901H5.637v-6.902Zm4.617-3.478c0 1.33-1.145 2.41-2.558 2.41-1.413 0-2.558-1.08-2.558-2.41 0-1.331 1.145-2.41 2.558-2.41 1.413 0 2.558 1.079 2.558 2.41Z"/>
  <path fill="#D50072" d="M18.385 11.986v1.118h-2.933V8.619h2.84v1.118h-1.654v.519h1.564v1.117h-1.564v.614h1.747Zm.513 1.119 1.436-4.487h1.687l1.434 4.487h-1.234l-.269-.868h-1.551l-.27.868h-1.233Zm1.85-1.985h.859l-.394-1.267h-.072l-.392 1.267Zm3.304-2.502h1.186v3.369h1.757c-.482-6.112-5.585-7.433-10.224-7.433h-4.945v4.067h.732c1.334 0 2.163.852 2.163 2.223 0 1.416-.809 2.26-2.163 2.26h-.732v8.137h4.945c7.54 0 10.165-3.299 10.258-8.137h-2.977V8.618Zm-12.227 1.12v2.249h.733c.508 0 .977-.139.977-1.143 0-.98-.522-1.106-.977-1.106h-.733Z"/>
</svg>
