<?xml version="1.0" encoding="UTF-8"?>
<svg width="140px" height="38px" viewBox="0 0 140 38" version="1.1" xmlns="http://www.w3.org/2000/svg" xmlns:xlink="http://www.w3.org/1999/xlink">
    <!-- Generator: Sketch 50.1 (55044) - http://www.bohemiancoding.com/sketch -->
    <title>Group 4</title>
    <desc>Created with Sketch.</desc>
    <defs></defs>
    <g id="Page-1" stroke="none" stroke-width="1" fill="none" fill-rule="evenodd">
        <g id="Artboard-1" transform="translate(-252.000000, -236.000000)" fill="#FF6402">
            <g id="Group-4" transform="translate(252.000000, 236.000000)">
                <path d="M128.174339,13.396045 C128.001856,13.5113512 127.797849,13.6156137 127.572627,13.755145 C127.568192,13.5226325 127.564476,12.6948262 127.564476,12.6948262 C127.564476,12.6948262 127.093175,12.68782 126.831034,12.6938762 C125.353603,12.72772 123.874613,12.7207137 122.396822,12.6964887 C122.171719,12.6928075 121.816565,12.6995762 121.816565,12.6995762 C121.816565,12.6995762 121.813928,13.0551137 121.814168,13.2740887 C121.825075,19.50787 121.816445,32.5555262 121.816445,32.5555262 L127.652815,32.5601575 C127.652815,32.5601575 127.642747,24.96467 127.654373,21.501445 C127.656051,21.010295 127.680863,20.5095262 127.782027,20.0300137 C128.152524,18.4409012 129.261377,17.4803325 130.889476,17.4977887 C132.532438,17.4909012 133.386462,18.2330887 133.771103,19.3265387 C133.901034,19.7124762 133.943466,20.1257262 133.950658,20.3708262 C133.959408,20.6628325 133.954733,20.891545 133.954973,21.0655137 C133.960846,24.6078262 133.957729,32.5563575 133.957729,32.5563575 C133.957729,32.5563575 138.106068,32.55232 139.794339,32.567045 L139.794339,19.552045 C139.774322,19.13357 139.709596,18.7610512 139.648106,18.35932 C138.816497,12.9350575 132.778517,10.3212512 128.174339,13.396045" id="Fill-22"></path>
                <path d="M71.4458955,19.8502975 C71.5645599,18.4708975 73.1893031,17.2591725 74.9580017,17.20716 C76.9235154,17.1493287 78.5001935,18.2238975 78.7383613,19.8502975 L71.4458955,19.8502975 Z M68.3065634,14.88251 C65.8692688,17.2920662 65.0030188,20.2549975 65.2607243,23.6084975 C65.8340291,31.0677787 72.8648339,34.7530662 79.2794229,32.4224787 C81.2764606,31.6969162 82.7739092,30.3435225 83.8610668,28.4454225 C82.0667175,27.9477412 80.3265462,27.4611037 78.5815805,26.9910912 C78.5374709,26.9790975 78.3918373,26.9288662 78.3918373,26.9288662 C78.3918373,26.9288662 78.2671798,27.0659037 78.209286,27.11091 C76.9974709,28.0498662 75.6189264,28.0853725 74.2191661,27.764035 C72.6798853,27.4105162 71.3581558,25.968535 71.2213921,24.5033975 L72.0225565,24.5033975 L83.1694572,24.5033975 C83.8067688,24.5033975 84.4205873,24.48511 84.4205873,24.48511 C84.4205873,24.48511 84.7474538,23.8620287 84.7832928,22.9768662 C84.8971627,20.1738912 84.3686866,17.5395412 82.5152449,15.301935 C79.4191832,11.5640412 72.4703647,10.76616 68.3065634,14.88251 Z" id="Fill-24"></path>
                <path d="M112.405568,26.6901312 C109.857041,28.9641937 105.892212,27.5973812 105.144627,24.1866437 C104.847726,22.8324187 104.864747,21.4741562 105.443925,20.172775 C106.272658,18.3105375 107.918017,17.3266937 109.881613,17.5120625 C111.866305,17.6993312 113.364712,19.0015437 113.803051,20.9635312 C113.922795,21.49945 113.945089,22.056625 114.011973,22.6041812 C114.004301,24.1804687 113.616425,25.6095062 112.405568,26.6901312 M109.498051,12.1301938 C103.597195,12.0946875 99.0957397,16.6432875 99.0993356,22.5752062 C99.1030514,28.6312188 103.489079,33.088025 109.458616,33.1016812 C115.37074,33.1152188 119.771271,28.6964125 119.881185,22.823275 C119.989421,17.0390812 115.781031,12.1679563 109.498051,12.1301938" id="Fill-26"></path>
                <path d="M56.1072894,4.84697125 C56.1072894,4.84697125 56.1027346,17.610815 56.0943442,23.4674462 C56.0921866,24.909665 55.2662106,25.9381587 54.0234709,26.1121275 C52.7077346,26.29619 51.6415531,25.5701525 51.2364161,24.15964 C51.1902688,23.9983775 51.1773236,23.7550587 51.1773236,23.7550587 C51.1773236,23.7550587 50.8164161,23.7495962 50.6438134,23.7504275 C48.6866901,23.76064 46.7293271,23.7713275 44.7724435,23.7450837 C44.5131798,23.7415212 44.1569469,23.756365 44.1569469,23.756365 C44.1569469,23.756365 44.150714,24.1557212 44.1600634,24.398565 C44.365149,29.7079962 49.8053716,33.97504 55.1468271,32.99844 C59.9849777,32.1138712 63.157512,28.3468837 63.1589503,23.48419 C63.1597894,20.6153087 63.1591901,17.7464275 63.1591901,14.8775462 L63.1591901,14.521415 C63.1591901,11.49424 63.1552346,4.84673375 63.1552346,4.84673375 L56.1072894,4.84697125 Z" id="Fill-28"></path>
                <path d="M26.5534452,11.5490431 C26.2823151,11.1132306 26.0009966,11.0233369 25.5237021,11.1655994 C24.5122979,11.4669869 23.4863904,11.7205181 22.465637,11.9906744 C15.2606712,13.8968494 8.0572637,15.8093181 0.847023973,17.6955431 C0.252383562,17.8509869 0.0609623288,18.1092681 0.0547294521,18.7112119 C0.0266815068,21.4324869 0.722726027,23.9444056 2.10318836,26.2906681 C2.39301712,26.7832431 2.67948973,26.9186181 3.25519178,26.7645994 C11.283976,24.6162931 19.3201918,22.4951806 27.3528116,20.3608869 C28.8457055,19.9642619 28.6255171,20.2637494 28.64925,18.6963681 C28.6339075,16.2486931 27.8492842,13.6326306 26.5534452,11.5490431" id="Fill-30"></path>
                <path d="M97.7012774,27.635025 C97.7007979,27.5032125 97.699839,27.150525 97.7036747,27.0503 C96.5873904,27.3398125 95.9957466,27.46545 95.191226,27.4413438 C94.1831781,27.4111813 93.8457637,27.0168125 93.8408493,26.0208563 C93.8285034,23.527225 93.8443253,21.033475 93.8249075,18.5400813 C93.8232295,18.3290625 93.8239486,17.9851625 93.8239486,17.9851625 C93.8239486,17.9851625 94.2003185,17.9700813 94.4280582,17.97495 C95.3465685,17.994425 96.2659178,17.9707938 97.1845479,17.9848063 C97.3635034,17.9876563 97.6837774,17.9829063 97.6837774,17.9829063 L97.6771849,12.7107625 L93.8159178,12.69865 C93.8159178,12.69865 93.8143596,12.3040438 93.8207123,12.059775 C93.8579897,10.6160125 93.8425274,7.07405625 93.8425274,7.07405625 L88.0235377,7.06384375 L88.029411,12.7167 L85.7156952,12.7112375 C85.7156952,12.7112375 85.7049075,15.4287125 85.7046678,16.517175 C85.7046678,17.2539 85.7041884,17.9778 85.7041884,17.9778 C85.7041884,17.9778 86.4548904,17.978275 87.1901301,17.9804125 C87.5753699,17.9816 88.0110719,17.9703188 88.0110719,17.9703188 C88.0110719,17.9703188 88.0182637,18.3638563 88.0198219,18.800025 C88.03025,21.6695 87.9624075,24.5420625 88.0760377,27.4075 C88.1665342,29.6863125 89.3153014,31.4054563 91.504,32.2694813 C93.3925616,33.0149938 95.3288288,32.9380438 97.2529897,32.32565 C97.5900445,32.1862375 97.7081096,32.0693875 97.7081096,32.0693875 C97.7081096,32.0693875 97.7135034,31.83735 97.7113459,31.6722875 C97.6938459,30.3267313 97.7057123,28.9808188 97.7012774,27.635025" id="Fill-32"></path>
                <path d="M2.41134418,12.2618875 C2.58586473,12.2205625 2.76098459,12.1820875 2.93418664,12.1361313 C8.36649829,10.6962875 13.7985702,9.25596875 19.2306421,7.815175 C19.8855736,7.64144375 20.5430223,7.4753125 21.1912414,7.27996875 C21.409512,7.2140625 21.5269777,7.097925 21.5326113,6.944975 C21.5370462,6.82990625 21.5119949,6.75889375 21.2698716,6.603925 C21.1552825,6.5305375 21.0289469,6.4657 20.9045291,6.4027625 C15.1433134,3.4819875 8.17088185,4.70879375 3.80199486,9.444425 C3.17295377,10.1264063 2.65430651,10.912175 2.12271404,11.675975 C1.87351884,12.034125 2.02119007,12.2741188 2.41134418,12.2618875" id="Fill-34"></path>
                <path d="M26.0427329,25.7600812 C19.9530925,27.361425 13.8659692,28.9720312 7.78196233,30.5941562 C7.55805822,30.6538875 7.18947945,30.7332125 7.16442808,30.9726125 C7.13913699,31.2139125 7.48661986,31.3643687 7.69434247,31.4726687 C9.78067808,32.5610125 12.0026986,33.1215125 14.3704726,33.1418187 C15.1049932,33.0736562 15.8467055,33.0493125 16.5725959,32.9300875 C20.8741199,32.2238812 24.191089,30.0278375 26.5293767,26.3866062 C26.630661,26.22855 26.7732979,25.9555437 26.6485205,25.795825 C26.5243425,25.6364625 26.2284007,25.711275 26.0427329,25.7600812" id="Fill-36"></path>
                <path d="M35.5226866,37.8836012 L37.3115223,37.8836012 L37.3115223,0.1034075 L35.5226866,0.1034075 C35.5226866,0.1034075 35.5183716,37.63387 35.5226866,37.8836012" id="Fill-38"></path>
                <path d="M137.227856,6.47793125 C137.269688,6.47341875 137.333336,6.4716375 137.43414,6.4716375 C137.654688,6.4740125 137.769757,6.536 137.769757,6.73265 C137.769757,6.9065 137.664277,7.0098125 137.441212,7.0098125 L137.227856,7.0098125 L137.227856,6.47793125 Z M137.227856,7.2302125 L137.424551,7.2302125 C137.613935,7.23698125 137.616212,7.25669375 137.664277,7.4667625 C137.709825,7.656525 137.745784,7.78750625 137.772154,7.83049375 L138.071812,7.83049375 C138.03837,7.7717125 137.999894,7.62481875 137.947154,7.41249375 C137.908918,7.2544375 137.834603,7.1459 137.709825,7.1052875 L137.709825,7.09851875 C137.880031,7.04436875 138.014397,6.9110125 138.014397,6.70996875 C138.014397,6.592525 137.968849,6.48861875 137.887223,6.42093125 C137.786538,6.335075 137.642702,6.2966 137.419757,6.2966 C137.275801,6.2966 137.048421,6.29814375 136.936229,6.299925 L136.93539,7.83049375 L137.227856,7.83049375 L137.227856,7.2302125 Z" id="Fill-40"></path>
                <path d="M137.521317,5.15858313 C138.588697,5.15858313 139.454108,6.01583938 139.454108,7.07342688 C139.454108,8.13089563 138.588697,8.98827063 137.521317,8.98827063 C136.453817,8.98827063 135.588526,8.13089563 135.588526,7.07342688 C135.588526,6.01583938 136.453817,5.15858313 137.521317,5.15858313 M137.521317,9.46327063 C138.851437,9.46327063 139.93356,8.39119563 139.93356,7.07342688 C139.93356,5.75553938 138.851437,4.68358313 137.521317,4.68358313 C136.191077,4.68358313 135.109074,5.75553938 135.109074,7.07342688 C135.109074,8.39119563 136.191077,9.46327063 137.521317,9.46327063" id="Fill-42"></path>
            </g>
        </g>
    </g>
</svg>