<svg xmlns="http://www.w3.org/2000/svg" fill="none" viewBox="0 0 57 23">
  <path fill="#FFB3C7" d="M50.31 0H6.69C2.997 0 0 2.952 0 6.593v9.532c0 3.64 2.996 6.592 6.69 6.592h43.62c3.694 0 6.69-2.951 6.69-6.592V6.593C57 2.952 54.004 0 50.31 0Z"/>
  <path fill="#000" d="M6.909 6.593h2.176v9.535H6.91V6.593Zm7.721 0h-2.172a5.41 5.41 0 0 1-.589 2.473 5.496 5.496 0 0 1-1.658 1.945l-.86.636 3.335 4.48h2.742l-3.069-4.122a7.578 7.578 0 0 0 1.687-2.482c.39-.929.589-1.925.585-2.93Zm1.446.001h2.096v9.53h-2.096v-9.53Zm27.777 2.762c.641.035 1.26.242 1.791.598v-.422h2.003v6.593h-2.003v-.421a3.567 3.567 0 0 1-3.638.2 3.51 3.51 0 0 1-1.374-1.28 3.44 3.44 0 0 1 0-3.59 3.51 3.51 0 0 1 1.374-1.28 3.574 3.574 0 0 1 1.847-.398Zm-.963 4.84c.271.197.596.311.932.329.47.012.924-.16 1.264-.478.34-.318.539-.756.552-1.218a1.68 1.68 0 0 0-.285-.934 1.716 1.716 0 0 0-.759-.627 1.748 1.748 0 0 0-1.866.328 1.675 1.675 0 0 0-.431 1.82 1.7 1.7 0 0 0 .593.78Zm-6.322-4.841a2.466 2.466 0 0 0-1.147.21 2.41 2.41 0 0 0-.916.71v-.742H32.51v6.592h2.019V12.66a1.37 1.37 0 0 1 .405-1.085 1.412 1.412 0 0 1 1.098-.408c.88 0 1.387.518 1.387 1.48v3.478h2v-4.192c0-1.535-1.237-2.578-2.85-2.578Zm-13.849 0c.641.036 1.26.243 1.791.6v-.423h2.003v6.593H24.51v-.421a3.575 3.575 0 0 1-3.638.2 3.51 3.51 0 0 1-1.374-1.28 3.44 3.44 0 0 1 0-3.59 3.51 3.51 0 0 1 1.374-1.28 3.575 3.575 0 0 1 1.847-.398Zm-.963 4.84c.271.198.596.312.932.33.469.012.923-.16 1.264-.478.34-.318.538-.756.551-1.218a1.68 1.68 0 0 0-.284-.934 1.718 1.718 0 0 0-.759-.627 1.748 1.748 0 0 0-1.867.328 1.675 1.675 0 0 0-.431 1.82 1.7 1.7 0 0 0 .594.78Zm7.856-3.804v-.859h-2.05v6.593h2.055v-3.078c0-1.038 1.142-1.597 1.935-1.597l.012.001h.012V9.533a2.53 2.53 0 0 0-1.08.21c-.34.149-.642.37-.884.648Zm19.464 3.604a1.271 1.271 0 0 1 1.587.154 1.226 1.226 0 0 1 .156 1.564 1.254 1.254 0 0 1-.564.457 1.275 1.275 0 0 1-1.37-.268 1.223 1.223 0 0 1-.273-1.35c.096-.227.257-.42.464-.556Z"/>
</svg>
