<?xml version="1.0" encoding="UTF-8"?>
<svg width="110px" height="99px" viewBox="0 0 110 99" version="1.1" xmlns="http://www.w3.org/2000/svg" xmlns:xlink="http://www.w3.org/1999/xlink">
    <!-- Generator: Sketch 51.1 (57501) - http://www.bohemiancoding.com/sketch -->
    <title>Page 1</title>
    <desc>Created with Sketch.</desc>
    <defs>
        <polygon id="path-1" points="0.59125 0.723655914 57.06085 0.723655914 57.06085 41.1822559 0.59125 41.1822559"></polygon>
    </defs>
    <g id="Page-1" stroke="none" stroke-width="1" fill="none" fill-rule="evenodd">
        <g transform="translate(0.000000, -1.000000)">
            <g id="Group-3" transform="translate(16.500000, 0.351613)">
                <mask id="mask-2" fill="white">
                    <use xlink:href="#path-1"></use>
                </mask>
                <g id="Clip-2"></g>
                <path d="M47.41935,0.723548387 L10.23165,0.723548387 C4.92965,0.723548387 0.59125,4.9644086 0.59125,10.1472043 L0.59125,25.4611828 C0.59125,30.6439785 4.92965,34.8848387 10.23165,34.8848387 L12.83205,34.8848387 C15.33565,34.8848387 17.26395,37.1224731 16.57535,39.1719355 C16.03305,40.785914 16.66005,41.6482796 18.33425,40.9224731 C21.20525,39.6773118 23.50095,38.3998925 25.29505,37.1353763 C27.40925,35.646129 29.96895,34.8848387 32.57595,34.8848387 L47.41935,34.8848387 C52.72135,34.8848387 57.06085,30.6439785 57.06085,25.4611828 L57.06085,10.1472043 C57.06085,4.9644086 52.72135,0.723548387 47.41935,0.723548387" id="Fill-1" fill="#BAD1ED" mask="url(#mask-2)"></path>
            </g>
            <path d="M56.90905,22.0487097 L85.46065,22.0487097 C89.53065,22.0487097 92.86255,25.3046237 92.86255,29.2841935 L92.86255,41.0411828 C92.86255,45.0196774 89.53065,48.2755914 85.46065,48.2755914 L83.46525,48.2755914 C81.54245,48.2755914 80.06185,49.993871 80.58985,51.5669892 C81.00565,52.8056989 80.52495,53.4680645 79.24015,52.9110753 C77.03575,51.954086 75.27245,50.9745161 73.89525,50.0035484 C72.27275,48.8594624 70.30705,48.2755914 68.30615,48.2755914 L56.90905,48.2755914 C52.83905,48.2755914 49.50715,45.0196774 49.50715,41.0411828 L49.50715,29.2841935 C49.50715,25.3046237 52.83905,22.0487097 56.90905,22.0487097" id="Fill-4" fill="#00599D"></path>
            <path d="M12.69631,93.1555914 C15.30001,93.1555914 17.19641,92.7254839 18.38331,91.8641935 C19.56911,91.0029032 20.16421,89.7856989 20.16421,88.2136559 C20.16421,87.278172 19.96291,86.4727957 19.56031,85.7986022 C19.15881,85.1254839 18.58461,84.517957 17.83771,83.973871 C17.09081,83.4319355 16.18001,82.9254839 15.10861,82.4577419 C14.03611,81.99 12.81071,81.5308602 11.43241,81.0813978 C10.05301,80.5953763 8.72201,80.062043 7.43941,79.4813978 C6.15571,78.901828 5.02601,78.1803226 4.05031,77.3190323 C3.07351,76.4588172 2.28811,75.4297849 1.69411,74.2297849 C1.10121,73.0330108 0.80421,71.5910753 0.80421,69.906129 C0.80421,66.3878495 2.04831,63.6265591 4.53761,61.6244086 C7.02801,59.6211828 10.41711,58.6201075 14.70601,58.6201075 C17.19641,58.6201075 19.40741,58.8921505 21.34121,59.434086 C23.27501,59.9770968 24.79741,60.5663441 25.90841,61.201828 L23.66881,66.9297849 C22.36531,66.2190323 20.93971,65.6760215 19.38871,65.301828 C17.83771,64.9276344 16.23831,64.7394624 14.59271,64.7394624 C12.63801,64.7394624 11.11561,65.1330108 10.02441,65.9201075 C8.93321,66.7050538 8.38761,67.8115054 8.38761,69.2330108 C8.38761,70.0943011 8.56801,70.8330108 8.93321,71.4502151 C9.29621,72.0684946 9.81321,72.6211828 10.48421,73.1072043 C11.15411,73.5953763 11.93951,74.0448387 12.83931,74.4545161 C13.73801,74.8674194 14.72581,75.2598925 15.79721,75.6351613 C17.67381,76.3082796 19.35021,76.9921505 20.82531,77.6835484 C22.29821,78.378172 23.54341,79.1996774 24.55871,80.1545161 C25.57291,81.1104301 26.34841,82.2330108 26.88521,83.5244086 C27.42201,84.8158065 27.68931,86.3792473 27.68931,88.2136559 C27.68931,91.7330108 26.41661,94.4566667 23.86901,96.3846237 C21.32251,98.3136559 17.59791,99.2760215 12.69631,99.2760215 C11.04851,99.2760215 9.54591,99.1727957 8.18631,98.9674194 C6.82561,98.7609677 5.61891,98.5093548 4.56621,98.2093548 C3.51241,97.9104301 2.60381,97.601828 1.83821,97.2835484 C1.07151,96.9652688 0.45881,96.6749462 0.000110000281,96.4125806 L2.12531,90.6276344 C3.15931,91.19 4.55741,91.7512903 6.31961,92.3125806 C8.08071,92.873871 10.20591,93.1555914 12.69631,93.1555914" id="Fill-6" fill="#00599D"></path>
            <path d="M42.84962,59.5177419 C43.69222,60.9403226 44.63052,62.6811828 45.66562,64.7392473 C46.69852,66.7994624 47.75122,68.961828 48.82482,71.2263441 C49.89622,73.4919355 50.95882,75.794086 52.01262,78.1327957 C53.06532,80.4736559 54.03222,82.6360215 54.91442,84.6198925 C55.79552,82.6360215 56.75252,80.4736559 57.78652,78.1327957 C58.82052,75.794086 59.87322,73.4919355 60.94572,71.2263441 C62.01822,68.961828 63.07202,66.7994624 64.10492,64.7392473 C65.14002,62.6811828 66.07722,60.9403226 66.92092,59.5177419 L73.44282,59.5177419 C73.79372,62.3629032 74.12482,65.3865591 74.43722,68.5876344 C74.74852,71.7876344 75.03122,75.0639785 75.28422,78.4145161 C75.53722,81.7650538 75.77152,85.1349462 75.98602,88.5231183 C76.20052,91.9112903 76.38642,95.2145161 76.54262,98.433871 L69.41902,98.433871 C69.26392,93.9048387 69.07802,89.2446237 68.86242,84.45 C68.64792,79.6596774 68.32562,75.0166667 67.89772,70.5241935 C67.47532,71.3854839 66.97812,72.4155914 66.40282,73.6123656 C65.82972,74.8123656 65.21592,76.1123656 64.56472,77.5155914 C63.91352,78.9198925 63.25242,80.3715054 62.58252,81.8682796 C61.91262,83.366129 61.26142,84.8155914 60.63002,86.2198925 C59.99862,87.6241935 59.41342,88.933871 58.87772,90.1510753 C58.34092,91.3682796 57.88112,92.4069892 57.49832,93.2682796 L52.09842,93.2682796 C51.71672,92.4069892 51.25582,91.3586022 50.72012,90.1231183 C50.18332,88.8876344 49.60032,87.5682796 48.96782,86.1639785 C48.33642,84.7607527 47.68522,83.3091398 47.01422,81.8112903 C46.34432,80.3145161 45.68322,78.8736559 45.03202,77.4876344 C44.38192,76.1037634 43.76922,74.8026882 43.19392,73.5854839 C42.61972,72.3682796 42.12142,71.3489247 41.70122,70.5241935 C41.27002,75.0166667 40.94772,79.6596774 40.73322,84.45 C40.51982,89.2446237 40.33502,93.9048387 40.17772,98.433871 L33.05522,98.433871 C33.21142,95.2145161 33.39622,91.8833333 33.61072,88.438172 C33.82522,84.994086 34.05952,81.5790323 34.31252,78.1897849 C34.56552,74.8026882 34.84822,71.5166667 35.16062,68.3349462 C35.47302,65.1521505 35.80302,62.2134409 36.15502,59.5177419 L42.84962,59.5177419 Z" id="Fill-8" fill="#00599D"></path>
            <path d="M94.50023,93.1555914 C97.10503,93.1555914 99.00033,92.7254839 100.18833,91.8641935 C101.37413,91.0029032 101.96813,89.7856989 101.96813,88.2136559 C101.96813,87.278172 101.76683,86.4727957 101.36533,85.7986022 C100.96383,85.1254839 100.38963,84.517957 99.64273,83.973871 C98.89473,83.4319355 97.98503,82.9254839 96.91253,82.4577419 C95.84113,81.99 94.61463,81.5308602 93.23743,81.0813978 C91.85803,80.5953763 90.52703,80.062043 89.24443,79.4813978 C87.96073,78.901828 86.83103,78.1803226 85.85533,77.3190323 C84.87743,76.4588172 84.09203,75.4297849 83.49913,74.2297849 C82.90513,73.0330108 82.60813,71.5910753 82.60813,69.906129 C82.60813,66.3878495 83.85223,63.6265591 86.34263,61.6244086 C88.83303,59.6211828 92.22213,58.6201075 96.51103,58.6201075 C99.00033,58.6201075 101.21243,58.8921505 103.14623,59.434086 C105.08003,59.9770968 106.60243,60.5663441 107.71343,61.201828 L105.47383,66.9297849 C104.17033,66.2190323 102.74363,65.6760215 101.19263,65.301828 C99.64273,64.9276344 98.04333,64.7394624 96.39663,64.7394624 C94.44303,64.7394624 92.91953,65.1330108 91.82833,65.9201075 C90.73713,66.7050538 90.19263,67.8115054 90.19263,69.2330108 C90.19263,70.0943011 90.37303,70.8330108 90.73713,71.4502151 C91.10123,72.0684946 91.61823,72.6211828 92.28813,73.1072043 C92.95803,73.5953763 93.74453,74.0448387 94.64433,74.4545161 C95.54303,74.8674194 96.53083,75.2598925 97.60223,75.6351613 C99.47883,76.3082796 101.15413,76.9921505 102.63033,77.6835484 C104.10323,78.378172 105.34733,79.1996774 106.36263,80.1545161 C107.37683,81.1104301 108.15343,82.2330108 108.68913,83.5244086 C109.22593,84.8158065 109.49433,86.3792473 109.49433,88.2136559 C109.49433,91.7330108 108.22163,94.4566667 105.67403,96.3846237 C103.12643,98.3136559 99.40293,99.2760215 94.50023,99.2760215 C92.85353,99.2760215 91.34983,99.1727957 89.99023,98.9674194 C88.63063,98.7609677 87.42393,98.5093548 86.37123,98.2093548 C85.31743,97.9104301 84.40883,97.601828 83.64323,97.2835484 C82.87653,96.9652688 82.26383,96.6749462 81.80403,96.4125806 L83.93033,90.6276344 C84.96433,91.19 86.36133,91.7512903 88.12353,92.3125806 C89.88463,92.873871 92.00983,93.1555914 94.50023,93.1555914" id="Fill-10" fill="#00599D"></path>
        </g>
    </g>
</svg>