<?xml version="1.0" encoding="UTF-8"?>
<svg width="140px" height="24px" viewBox="0 0 140 24" version="1.1" xmlns="http://www.w3.org/2000/svg" xmlns:xlink="http://www.w3.org/1999/xlink">
    <title>Monetix_Wallet Copy 2</title>
    <defs>
        <polygon id="path-1" points="0.00459903382 0.387601109 19.8800902 0.387601109 19.8800902 6.65821221 0.00459903382 6.65821221"></polygon>
        <polygon id="path-3" points="0 23.3980966 139.761572 23.3980966 139.761572 0.000615399294 0 0.000615399294"></polygon>
        <radialGradient cx="43.4147135%" cy="30.7161458%" fx="43.4147135%" fy="30.7161458%" r="49.1350825%" gradientTransform="translate(0.434147,0.307161),scale(1.000000,0.996434),rotate(90.000000),scale(1.000000,1.041478),translate(-0.434147,-0.307161)" id="radialGradient-5">
            <stop stop-color="#FFFFFF" offset="0%"></stop>
            <stop stop-color="#E9E9E9" offset="24.8442016%"></stop>
            <stop stop-color="#E1E1E1" offset="29.4837957%"></stop>
            <stop stop-color="#CECECE" offset="33.1805455%"></stop>
            <stop stop-color="#000000" offset="100%"></stop>
        </radialGradient>
    </defs>
    <g id="UI-Kit" stroke="none" stroke-width="1" fill="none" fill-rule="evenodd">
        <g id="NEW-ICON-VERSIONS-yo" transform="translate(-270.000000, -212.000000)">
            <g id="Monetix_Wallet-Copy-4" transform="translate(270.000000, 212.000000)">
                <g id="Group-26">
                    <g id="Group-3" transform="translate(3.066023, 16.739884)">
                        <mask id="mask-2" fill="white">
                            <use xlink:href="#path-1"></use>
                        </mask>
                        <g id="Clip-2"></g>
                        <path d="M19.8800902,3.52306051 C19.8800902,5.25387103 15.4312915,6.65851991 9.94311111,6.65851991 C4.45339775,6.65851991 0.00459903382,5.25387103 0.00459903382,3.52306051 C0.00459903382,1.79225 4.45339775,0.387601109 9.94311111,0.387601109 C15.4312915,0.387601109 19.8800902,1.79225 19.8800902,3.52306051" id="Fill-1" fill="#FBB03B" mask="url(#mask-2)"></path>
                    </g>
                    <path d="M39.1534145,12.3421405 C39.1534145,10.1713195 39.1871407,7.73895382 39.2438622,6.30045797 L39.1549475,6.30045797 C38.5586061,8.89590449 37.2923388,13.1344671 36.0766609,17.1145621 L33.7434177,17.1145621 C32.8174789,13.6344791 31.5082873,8.8051331 30.9502712,6.26507251 L30.8659556,6.26507251 C30.9732663,7.7589543 31.0269217,10.3759398 31.0269217,12.5575303 L31.0269217,17.1145621 L28.5281134,17.1145621 L28.5281134,4.39272016 L32.6074564,4.39272016 C33.5962486,7.71587635 34.7046158,11.8852066 35.0848026,13.7821749 L35.1047317,13.7821749 C35.415933,12.1113658 36.8094403,7.65125942 37.865685,4.39272016 L41.7978589,4.39272016 L41.7978589,17.1145621 L39.1534145,17.1145621 L39.1534145,12.3421405 Z" id="Fill-4" fill="#999999"></path>
                    <path d="M46.5520335,12.3390635 C46.5520335,14.1760304 47.3400013,15.2652872 48.6093346,15.2652872 C49.9001301,15.2652872 50.6145134,14.1760304 50.6145134,12.3544485 C50.6145134,10.3559393 49.8848,9.4113014 48.5725424,9.4113014 C47.3507324,9.4113014 46.5520335,10.3205539 46.5520335,12.3390635 M53.291151,12.3190631 C53.291151,15.2099012 51.5665134,17.3345673 48.5526132,17.3345673 C45.6000335,17.3345673 43.8784618,15.2222092 43.8784618,12.371372 C43.8784618,9.42360939 45.6536889,7.34202128 48.6767871,7.34202128 C51.4775987,7.34202128 53.291151,9.3251455 53.291151,12.3190631" id="Fill-6" fill="#999999"></path>
                    <path d="M54.9342325,9.96977626 C54.9342325,9.15744919 54.9342325,8.26973571 54.9158364,7.56356502 L57.4683002,7.56356502 C57.5204225,7.80972474 57.5556818,8.47281748 57.5694789,8.78051713 C57.8944773,8.18050281 58.664049,7.34202128 60.3319652,7.34202128 C62.2420973,7.34202128 63.4838364,8.63897529 63.4838364,11.037494 L63.4838364,17.1145621 L60.84859,17.1145621 L60.84859,11.3328857 C60.84859,10.2574754 60.4929314,9.48053382 59.3293758,9.48053382 C58.2102776,9.48053382 57.5694789,10.1051641 57.5694789,11.7913582 L57.5694789,17.1145621 L54.9342325,17.1145621 L54.9342325,9.96977626 Z" id="Fill-8" fill="#999999"></path>
                    <path d="M71.4006132,11.2799614 C71.3822171,10.1676271 70.9391768,9.23222021 69.6545134,9.23222021 C68.3928451,9.23222021 67.8854184,10.1060872 67.7796406,11.2799614 L71.4006132,11.2799614 Z M67.7259852,12.9046155 C67.7275182,14.0984901 68.3223266,15.2662103 69.6361172,15.2662103 C70.7306873,15.2662103 71.0464876,14.8246613 71.2963684,14.246186 L73.9316148,14.246186 C73.5958853,15.4154446 72.5565037,17.3354904 69.5655987,17.3354904 C66.4321237,17.3354904 65.0708097,14.9831266 65.0708097,12.476913 C65.0708097,9.48145692 66.6038209,7.34140588 69.6591124,7.34140588 C72.9290254,7.34140588 74.0404586,9.71377016 74.0404586,12.0984424 C74.0404586,12.421527 74.0404586,12.6323013 74.0051994,12.9046155 L67.7259852,12.9046155 Z" id="Fill-10" fill="#999999"></path>
                    <path d="M74.8169288,7.56279577 L76.2840206,7.56279577 L76.2840206,4.97658024 L78.919267,4.97658024 L78.919267,7.56279577 L80.7849417,7.56279577 L80.7849417,9.55053549 L78.919267,9.55053549 L78.919267,14.2644941 C78.919267,14.9891268 79.1400206,15.2722104 79.9249224,15.2722104 C80.0720915,15.2722104 80.3281043,15.2691334 80.5258628,15.2414405 L80.5258628,17.0614839 C80.003106,17.2384112 79.2856567,17.2430267 78.7537018,17.2430267 C76.8972251,17.2430267 76.2840206,16.2476183 76.2840206,14.5752707 L76.2840206,9.55053549 L74.8169288,9.55053549 L74.8169288,7.56279577 Z" id="Fill-12" fill="#999999"></path>
                    <mask id="mask-4" fill="white">
                        <use xlink:href="#path-3"></use>
                    </mask>
                    <g id="Clip-15"></g>
                    <path d="M82.2353237,17.1133313 L84.87057,17.1133313 L84.87057,7.56233422 L82.2353237,7.56233422 L82.2353237,17.1133313 Z M82.2353237,6.00229701 L84.87057,6.00229701 L84.87057,3.64377922 L82.2353237,3.64377922 L82.2353237,6.00229701 Z" id="Fill-14" fill="#999999" mask="url(#mask-4)"></path>
                    <path d="M88.8565527,7.56279577 C89.8468779,9.36130021 90.2515929,10.0674709 90.538266,10.5551748 L90.5551291,10.5551748 C90.8831936,9.9766995 91.4626718,8.92590521 92.2368425,7.56279577 L95.161828,7.56279577 L92.0774093,12.1090581 L95.15263,17.1137928 L92.172456,17.1137928 C91.3170357,15.4968312 90.7835478,14.4521909 90.5030068,13.902947 L90.4846106,13.902947 C90.2316638,14.4060359 89.584733,15.644527 88.8044303,17.1137928 L85.9254351,17.1137928 L88.8718828,12.4598357 L85.9438312,7.56279577 L88.8565527,7.56279577 Z" id="Fill-16" fill="#999999" mask="url(#mask-4)"></path>
                    <path d="M102.472605,17.1137928 L99.2548148,4.33810347 L100.524148,4.33810347 C102.035697,10.401325 102.900316,13.881408 103.176258,15.7060669 L103.196187,15.7060669 C103.429205,14.2352626 105.255021,7.47202438 106.041456,4.33810347 L107.2602,4.33810347 C108.014441,7.362791 109.823395,14.2629556 110.044148,15.6676045 L110.062544,15.6676045 C110.436599,13.5398614 112.234821,7.23048015 112.949205,4.33810347 L114.174081,4.33810347 L110.668084,17.1137928 L109.309836,17.1137928 C108.567858,14.1106443 106.89381,7.61664321 106.607137,5.98121959 L106.588741,5.98121959 C106.253011,7.82280198 104.586628,14.0767973 103.800193,17.1137928 L102.472605,17.1137928 Z" id="Fill-17" fill="#FBB03B" mask="url(#mask-4)"></path>
                    <path d="M119.620103,12.4849132 L118.025771,12.4849132 C115.563755,12.4849132 115.100786,13.4864755 115.100786,14.4188055 C115.100786,15.4280603 115.710924,16.2542339 116.967994,16.2542339 C118.924116,16.2542339 119.620103,14.9265099 119.620103,12.67261 L119.620103,12.4849132 Z M120.742267,15.1849776 C120.742267,15.8311468 120.80972,16.6880904 120.88637,17.1142544 L119.796399,17.1142544 C119.738145,16.7757848 119.667626,16.2942348 119.66456,15.5603711 C119.322699,16.5619335 118.363034,17.2804122 116.787098,17.2804122 C114.541237,17.2804122 113.892773,15.714221 113.892773,14.4695759 C113.892773,13.1756989 114.694538,11.5587372 118.047233,11.5587372 L119.58791,11.5587372 L119.58791,10.5740984 C119.58791,9.64638393 119.33343,8.61405162 117.582731,8.61405162 C116.134035,8.61405162 115.588283,9.26175937 115.407388,10.4156331 L114.259163,10.4156331 C114.413997,8.82790287 115.313874,7.64479773 117.634853,7.64479773 C119.472934,7.64479773 120.742267,8.43404732 120.742267,10.48025 L120.742267,15.1849776 Z" id="Fill-18" fill="#FBB03B" mask="url(#mask-4)"></path>
                    <polygon id="Fill-19" fill="#FBB03B" mask="url(#mask-4)" points="122.473804 17.1133313 123.635826 17.1133313 123.635826 3.66839519 122.473804 3.66839519"></polygon>
                    <polygon id="Fill-20" fill="#FBB03B" mask="url(#mask-4)" points="125.346667 17.1133313 126.508689 17.1133313 126.508689 3.66839519 125.346667 3.66839519"></polygon>
                    <path d="M134.048958,11.7336645 C133.996836,9.95208353 133.285519,8.65205252 131.547084,8.65205252 C129.544971,8.65205252 129.074337,10.5213279 128.974691,11.7336645 L134.048958,11.7336645 Z M128.939432,12.6644559 C128.924102,14.795276 129.846975,16.2737728 131.579277,16.2737728 C133.213467,16.2737728 133.713229,15.0891291 133.903322,14.5737322 L135.056147,14.5737322 C134.807799,15.5876026 133.973841,17.2953356 131.505693,17.2953356 C128.635896,17.2953356 127.743683,14.9091248 127.743683,12.4275272 C127.743683,10.1567038 128.845918,7.64433618 131.585409,7.64433618 C134.40615,7.64433618 135.214047,9.93208306 135.214047,11.9798242 C135.214047,12.0044402 135.210981,12.6383015 135.207915,12.6644559 L128.939432,12.6644559 Z" id="Fill-21" fill="#FBB03B" mask="url(#mask-4)"></path>
                    <path d="M135.102904,7.82880212 L136.655844,7.82880212 L136.655844,5.06258229 L137.814801,5.06258229 L137.814801,7.82880212 L139.761725,7.82880212 L139.761725,8.83190297 L137.814801,8.83190297 L137.814801,15.0382048 C137.814801,15.8674554 138.021757,16.2166945 138.826588,16.2166945 C139.093332,16.2166945 139.421396,16.187463 139.606891,16.1490006 L139.606891,17.0844075 C139.29109,17.2028719 138.818923,17.2367188 138.500057,17.2367188 C137.322704,17.2367188 136.655844,16.7997853 136.655844,15.328981 L136.655844,8.83190297 L135.102904,8.83190297 L135.102904,7.82880212 Z" id="Fill-22" fill="#FBB03B" mask="url(#mask-4)"></path>
                    <path d="M5.81793108,10.2522445 C5.81793108,5.61521086 8.87628857,1.70588684 13.0752064,0.415086824 C12.1676638,0.148926629 11.2095317,-0.000307699647 10.2161404,-0.000307699647 C4.57312593,-0.000307699647 0.000153301127,4.59057103 0.000153301127,10.2522445 C0.000153301127,15.9154565 4.57312593,20.5047968 10.2161404,20.5047968 C11.2095317,20.5047968 12.1676638,20.3555624 13.0752064,20.0894023 C8.87628857,18.8001407 5.81793108,14.8892782 5.81793108,10.2522445" id="Fill-23" fill="#F15A24" mask="url(#mask-4)"></path>
                    <path d="M20.4309011,10.2522445 C20.4309011,6.17522422 18.0532006,2.66283274 14.6192554,1.01202414 C11.2129043,2.68744872 8.86126506,6.1890707 8.86126506,10.2522445 C8.86126506,14.3154184 11.2129043,17.8170404 14.6192554,19.4924649 C18.0532006,17.8416563 20.4309011,14.3292649 20.4309011,10.2522445" id="Fill-24" fill="#F15A24" mask="url(#mask-4)"></path>
                    <path d="M8.86157166,10.2522445 C8.86157166,6.1890707 11.213211,2.68744872 14.619562,1.01202414 C14.1243994,0.773556913 13.6108406,0.572013644 13.0758196,0.415086824 C8.87690177,1.70588684 5.81854428,5.61521086 5.81854428,10.2522445 C5.81854428,14.8892782 8.87690177,18.8001407 13.0758196,20.0894023 C13.6108406,19.9324754 14.1243994,19.7309322 14.619562,19.4924649 C11.213211,17.8170404 8.86157166,14.3154184 8.86157166,10.2522445" id="Fill-25" fill="#FFFFFF" mask="url(#mask-4)"></path>
                </g>
                <ellipse id="Oval" fill="url(#radialGradient-5)" fill-rule="nonzero" opacity="0.8" style="mix-blend-mode: lighten;" cx="10.2200751" cy="10.2566549" rx="10.2200751" ry="10.2566549"></ellipse>
            </g>
        </g>
    </g>
</svg>