<svg viewBox="0 0 81 75" fill="none" xmlns="http://www.w3.org/2000/svg"><g clip-path="url(#a)"><path d="M81 57H0v18h81V57Z" fill="#F5F8F6"/><path fill-rule="evenodd" clip-rule="evenodd" d="M-.368 56.632h81.736v18.736H-.368V56.632Zm.736.736v17.264h80.264V57.368H.368Z" fill="#009B3A"/><path d="M81 0H0v56.7h81V0Z" fill="#009B3A"/><path d="m6.7 28.35 33.616 21.465L73.93 28.35 40.316 6.885 6.7 28.35Z" fill="#FEDF00"/><path d="M40.316 42.525c7.829 0 14.175-6.346 14.175-14.175 0-7.829-6.346-14.175-14.175-14.175-7.829 0-14.175 6.346-14.175 14.175 0 7.829 6.346 14.175 14.175 14.175Z" fill="#002776"/><path fill-rule="evenodd" clip-rule="evenodd" d="M26.593 24.786a32.602 32.602 0 0 1 5.623-.486 32.28 32.28 0 0 1 21.633 8.28c.227-.725.396-1.475.504-2.244a34.287 34.287 0 0 0-22.137-8.06 34.73 34.73 0 0 0-4.868.34 14.09 14.09 0 0 0-.755 2.17Z" fill="#fff"/><path fill-rule="evenodd" clip-rule="evenodd" d="m33.969 24.006-1.215-.045-.03-1.347 1.156.037v.25h-.928v.272h.737v.236h-.737v.346h1.017v.25Zm-2.931-.03h.633a.596.596 0 0 0 .574-.589v-.192a.599.599 0 0 0-.589-.574h-.633l.015 1.355Zm.243-.25h.368c.28-.006.36-.257.36-.494a.371.371 0 0 0-.367-.353h-.376l.015.847Zm-1.952.36h.25v-.522c.176 0 .364.02.537-.004.103.133.117.321.126.437v.001l.229.008c0-.142-.024-.41-.152-.534a.42.42 0 0 0 .152-.343.432.432 0 0 0-.405-.434l-.796.059.06 1.333Zm.192-.773h.523a.182.182 0 0 0 .162-.191.174.174 0 0 0-.184-.155h-.523l.022.346Zm-1.296.891a.64.64 0 0 0 .523-.736.611.611 0 0 0-1.223 0c0 .393.308.717.7.736Zm0-.243a.41.41 0 0 0 .31-.471.36.36 0 1 0-.303.471h-.007Zm6.237.074h.236l.08-.928.185.95h.198l.346-.898-.08.927h.235l.133-1.259h-.339l-.346.898-.191-.95h-.34l-.117 1.26Zm3.8.486-1.002-.17.11-1.2.95.17v.228l-.736-.133v.214l.626.103v.228l-.626-.103-.059.302.773.133-.036.228Zm1.56.331.244.067.125-.486.523.132c.532.14.727-.683.213-.817l-.736-.2-.368 1.304Zm.435-.663.5.126c.216.069.306-.266.09-.324l-.53-.14-.06.338Zm1.223 1.105.242.074.148-.479.511.161c.083.172.017.396-.023.532l-.002.007.22.051c.047-.144.133-.424.038-.58.399-.098.428-.683.029-.811l-.736-.236-.427 1.281Zm.463-.64.501.154c.21.068.31-.26.103-.331l-.493-.177-.11.354Zm1.738 1.384c.245.123.54.087.748-.093.448-.387.195-1.147-.396-1.188a.677.677 0 0 0-.654.375c-.004.02-.004-.02 0 0-.14.323-.018.759.302.906Zm.11-.236c.325.196.738-.108.647-.476a.435.435 0 0 0-.794-.12c-.09.195-.045.5.148.596Zm2.237.825a.677.677 0 0 1-.756.051c-.316-.159-.411-.6-.258-.905-.001-.02-.001.02 0 0a.678.678 0 0 1 .67-.354c.593.063.814.842.344 1.208Zm-.13-.412a.405.405 0 0 1-.501.25.398.398 0 0 1-.155-.53.402.402 0 0 1 .494-.25c.188.103.26.338.162.53Zm.382.913.221.117.229-.449.419.207c.074.19-.04.415-.102.53l.257.11c.069-.132.2-.393.123-.565.423-.024.542-.608.164-.805l-.692-.338-.619 1.193Zm.56-.56.464.236c.195.094.351-.195.154-.295l-.463-.236-.155.295Zm.965 1.34 1.06.597.125-.214-.854-.486.17-.302.67.376.11-.2-.67-.382.132-.236.81.457.118-.214-1.001-.574-.67 1.178Zm2.135 1.002c-.162-.103-.235-.229-.162-.34l-.265-.235c-.184.287.066.523.287.685.221.162.457.405.737 0 .183-.265-.1-.54-.298-.73-.104-.101-.184-.179-.159-.22.074-.118.162-.08.302 0 .14.081.22.199.14.324l.25.118c.224-.502-.63-1.035-.957-.574-.165.233.057.444.248.625.14.133.264.25.201.347-.051.103-.162.103-.324 0Zm1.289.618c-.081.11 0 .236.14.354.14.117.272.11.324.037.066-.095-.048-.22-.18-.361-.174-.19-.378-.41-.218-.634.263-.366.578-.083.713.038.098.088.196.14.237.278a.427.427 0 0 1-.037.332l-.206-.147c.081-.118 0-.236-.125-.331-.125-.096-.22-.125-.302 0-.029.044.05.131.15.242.182.2.435.479.255.73-.28.39-.53.14-.736 0a.545.545 0 0 1-.25-.737l.235.2Zm2.133 1.652a.678.678 0 1 1-.622-1.204.678.678 0 0 1 .622 1.204Zm-.054-.396a.418.418 0 0 1-.368.156.3.3 0 0 1-.254-.219.434.434 0 0 1 .422-.546.3.3 0 0 1 .283.217c.037.133.01.28-.083.392Z" fill="#009B3A"/><path fill-rule="evenodd" clip-rule="evenodd" d="m44.713 24.184-.354.263.133-.421-.354-.264h.463l.133-.42.138.42h.422l-.36.264.139.421-.36-.263Zm-13.33 6.42-.064.206h-.208l.167.12-.064.196.182-.136.157.136-.053-.199.164-.117h-.21l-.07-.207ZM30 31.993l-.36.259.138-.415-.359-.263h.45l.14-.42.132.42h.434l-.351.26.13.418-.354-.258Zm-1.75 1.247.285.205-.111-.33.317-.237h-.366l-.112-.346-.112.346h-.352l.284.211-.115.356.281-.205Zm4.7.124.298.213-.12-.342.304-.217h-.364l-.115-.354-.12.354h-.366l.304.217-.12.342.299-.213Zm-.424 1.367-.236.172.09-.277-.237-.173h.291l.092-.28.092.28h.29l-.237.173.09.277-.235-.172Zm17.735-1.184-.371.266.138-.415-.359-.263h.444l.138-.42.133.42h.441l-.336.25.137.428-.365-.266Zm1.945.075.246.169-.09-.284.237-.173h-.291l-.092-.28-.091.28h-.291l.238.173-.091.284.225-.17Zm-1.377 1.15.298.219-.113-.355.297-.212h-.368l-.118-.353-.113.353h-.366l.297.212-.113.355.298-.218Zm-3.43 2.977.282.21-.108-.334.321-.233h-.367l-.111-.347-.112.346h-.36l.291.208-.121.36.286-.21Zm-.005 1.38-.236.177.09-.283-.238-.173h.292l.091-.28.092.28h.291l-.232.169.092.287-.242-.177Zm1.428-2.542-.236.171.087-.264-.256-.192h.315l.09-.28.09.28h.293l-.238.178.09.278-.235-.171Zm.655-1.029.297.217-.113.35.298-.213.299.213-.113-.35.297-.217h-.367l-.112-.346-.117.346h-.369Zm-2.533.479.262.19-.085.259.236-.172.235.172-.086-.28.234-.17h-.292l-.091-.28-.092.28h-.32Zm-12.029-6.914-.298.213.116-.342-.307-.225h.376l.117-.346.112.346h.367l-.297.217.113.35-.299-.213Zm8.877-1.613.237.171-.097.3.242-.178.237.178-.095-.296.242-.175h-.296l-.087-.266-.086.265h-.297Zm-4.05 7.017.356.258-.134.42.353-.258.353.258-.13-.423.351-.255h-.44l-.134-.42-.135.42h-.44Zm2.214-2.435.298.219-.113-.355.297-.212h-.366l-.113-.354-.118.354h-.368l.297.212-.113.355.299-.219Zm-1.751-1.622h-.367l.296.215-.111.352.294-.22.295.22-.112-.352.296-.215h-.367l-.112-.354-.112.354Zm-1.316 1.58-.236.172.09-.276-.238-.173h.292l.091-.28.092.28h.291l-.232.169.092.28-.242-.172Zm.714.964.169.121-.07-.217.173-.129h-.232l-.063-.198-.062.198h-.188l.175.126-.072.22.17-.121Zm4.956 5.061-.295.215.108-.334-.292-.218h.366l.112-.346.112.346h.374l-.278.203.094.349-.3-.215Zm1.215-1.28-.236.177.09-.279-.237-.178h.291l.092-.28.091.28h.292l-.231.174.09.283-.242-.178Zm-2.334-.347-.237.178.091-.284-.238-.173h.292l.091-.28.092.28h.298l-.239.17.092.287-.242-.178Zm-9.39-.765.338.242-.117.436.357-.256.357.256-.14-.42.361-.258h-.441l-.14-.42-.135.42h-.44Zm6.192 3.78-.043.138.118-.086.118.086-.043-.139.116-.09h-.15l-.041-.14-.041.14h-.15l.116.09ZM28.166 25.617l.36.258-.14.42.358-.256.357.255-.135-.422.356-.255h-.44l-.134-.42-.156.42h-.426Z" fill="#fff"/><path d="M12.192 63.855V59.69h-1.486v-.847h3.982v.847h-1.484v4.163h-1.012Zm3.155 0v-5.011h2.13c.535 0 .924.045 1.165.136.244.09.439.249.585.479.145.23.218.493.218.79 0 .375-.11.686-.331.933-.221.243-.552.397-.991.461.218.128.398.268.54.42.143.153.336.424.577.814l.612.977h-1.21l-.731-1.09c-.26-.39-.438-.634-.534-.735a.754.754 0 0 0-.304-.208c-.107-.039-.277-.058-.509-.058h-.205v2.092h-1.012Zm1.012-2.892h.748c.486 0 .789-.02.91-.062a.545.545 0 0 0 .283-.212.652.652 0 0 0 .103-.376.59.59 0 0 0-.137-.406.608.608 0 0 0-.38-.198 8.513 8.513 0 0 0-.738-.018h-.79v1.272Zm8.562 2.892h-1.1l-.438-1.139H21.38l-.414 1.139h-1.073l1.952-5.011h1.07l2.006 5.01Zm-1.863-1.983-.69-1.86-.677 1.86h1.367Zm2.413 1.983v-5.011h.985l2.05 3.346v-3.346h.94v5.01h-1.015l-2.02-3.267v3.267h-.94Zm4.792-1.63.985-.097c.059.33.178.574.358.728.183.155.428.233.735.233.326 0 .571-.069.735-.205.166-.14.25-.301.25-.486a.444.444 0 0 0-.106-.3c-.069-.085-.19-.158-.363-.22a12.468 12.468 0 0 0-.81-.218c-.542-.134-.922-.3-1.141-.495a1.304 1.304 0 0 1-.462-1.009c0-.255.072-.493.216-.714a1.37 1.37 0 0 1 .625-.51c.274-.116.603-.174.988-.174.629 0 1.102.138 1.418.414.32.276.487.644.503 1.104l-1.012.044c-.043-.257-.137-.442-.28-.553-.141-.114-.355-.171-.64-.171-.293 0-.523.06-.69.18a.365.365 0 0 0-.16.312c0 .118.05.22.15.304.128.107.438.219.93.335.492.116.855.237 1.09.362.237.123.422.293.554.51.134.214.201.48.201.796a1.476 1.476 0 0 1-.916 1.367c-.291.121-.655.181-1.09.181-.633 0-1.12-.145-1.46-.437-.339-.294-.542-.721-.608-1.282Zm4.932 1.63v-5.011h3.435v.847h-2.423v1.186h2.092v.848h-2.092v2.13h-1.012Zm4.273 0v-5.011h3.715v.847H40.48v1.111h2.515v.845H40.48v1.363h2.799v.845h-3.811Zm4.672 0v-5.011h2.13c.535 0 .923.045 1.165.136.244.09.439.249.584.479.146.23.22.493.22.79 0 .375-.111.686-.332.933-.221.243-.552.397-.991.461.218.128.398.268.54.42.143.153.336.424.577.814l.612.977h-1.21l-.731-1.09c-.26-.39-.438-.634-.534-.735a.754.754 0 0 0-.304-.208c-.107-.039-.277-.058-.51-.058h-.204v2.092H44.14Zm1.012-2.892h.748c.486 0 .789-.02.91-.062a.546.546 0 0 0 .283-.212.653.653 0 0 0 .103-.376.59.59 0 0 0-.137-.406.608.608 0 0 0-.38-.198 8.513 8.513 0 0 0-.738-.018h-.79v1.272Zm4.043 2.892v-5.011h3.716v.847h-2.704v1.111h2.516v.845h-2.516v1.363h2.8v.845h-3.812Zm.643-5.298.718-1.009h.888l.708 1.009h-.773l-.396-.51-.37.51h-.775Zm4.036 5.297v-5.01h.985l2.05 3.346v-3.346h.94v5.01h-1.014l-2.02-3.267v3.267h-.94Zm8.255-1.842.98.311c-.15.547-.4.954-.751 1.22-.349.265-.792.397-1.33.397-.665 0-1.212-.227-1.64-.68-.429-.456-.643-1.078-.643-1.866 0-.834.215-1.482.646-1.942.43-.462.997-.694 1.699-.694.613 0 1.11.181 1.493.544.228.214.4.522.513.923l-1.001.239a1.059 1.059 0 0 0-.373-.615 1.056 1.056 0 0 0-.683-.226c-.372 0-.674.133-.906.4-.23.267-.345.698-.345 1.295 0 .634.114 1.085.341 1.354.228.269.525.403.89.403.268 0 .5-.085.693-.256.194-.171.333-.44.417-.807Zm1.822 1.843v-5.011h1.011v5.01h-1.011Zm6.497 0h-1.1l-.438-1.139h-2.003l-.413 1.139H65.42l1.952-5.011h1.07l2.006 5.01Zm-1.863-1.983-.69-1.86-.677 1.86h1.367Zm-46.238 4.201h2.003c.397 0 .692.017.885.051a1.273 1.273 0 0 1 .91.625c.102.174.153.369.153.585 0 .235-.063.45-.191.646a1.165 1.165 0 0 1-.513.44c.306.09.54.241.704.456.164.214.246.465.246.755 0 .228-.053.45-.16.666a1.34 1.34 0 0 1-.434.517 1.434 1.434 0 0 1-.677.235c-.169.018-.575.03-1.22.034h-1.706v-5.01Zm1.012.834v1.158h.663c.394 0 .64-.005.735-.017a.666.666 0 0 0 .407-.177c.1-.1.15-.232.15-.393a.539.539 0 0 0-.13-.376c-.084-.098-.21-.158-.38-.178-.1-.012-.388-.017-.864-.017h-.581Zm0 1.992v1.34h.936c.365 0 .596-.01.694-.03a.623.623 0 0 0 .366-.199.617.617 0 0 0 .143-.427.654.654 0 0 0-.109-.383.618.618 0 0 0-.318-.229c-.136-.048-.435-.072-.895-.072h-.817Zm8.562 2.184h-1.1l-.438-1.138H28.38l-.414 1.139h-1.073l1.952-5.011h1.07l2.006 5.01Zm-1.863-1.982-.69-1.86-.677 1.86h1.367Zm2.413 1.983v-5.011h.985l2.05 3.346v-3.346h.94v5.01h-1.015l-2.02-3.267v3.267h-.94Zm8.255-1.843.98.311c-.15.547-.4.954-.751 1.22-.349.265-.792.397-1.33.397-.665 0-1.212-.227-1.64-.68-.429-.456-.643-1.078-.643-1.866 0-.834.215-1.482.646-1.942.43-.462.997-.694 1.699-.694.613 0 1.11.181 1.493.544.228.214.399.522.513.923l-1.002.239a1.058 1.058 0 0 0-.372-.615 1.055 1.055 0 0 0-.684-.226c-.371 0-.673.133-.905.4-.23.267-.346.698-.346 1.295 0 .634.114 1.085.342 1.354.228.269.524.403.889.403.269 0 .5-.085.694-.256.193-.171.332-.44.417-.807Zm6.37 1.843h-1.1l-.437-1.139h-2.003l-.414 1.139H42.07l1.951-5.011h1.07l2.007 5.01ZM45.235 69.1l-.69-1.86-.677 1.86h1.367Zm-1.272-3.315.472-1.022h1.077l-.94 1.022h-.609Zm3.678 5.297v-5.01h2.13c.535 0 .923.045 1.165.137.244.088.439.248.584.478.146.23.22.493.22.79 0 .376-.111.687-.332.933-.221.243-.552.397-.991.461.218.128.398.268.54.42.143.153.336.424.577.814l.612.978h-1.21l-.731-1.09c-.26-.39-.438-.635-.534-.736a.754.754 0 0 0-.304-.208c-.107-.039-.277-.058-.51-.058h-.204v2.091H47.64Zm1.012-2.891h.748c.486 0 .789-.02.91-.062a.546.546 0 0 0 .283-.212.653.653 0 0 0 .103-.376.59.59 0 0 0-.137-.406.608.608 0 0 0-.38-.198 8.513 8.513 0 0 0-.738-.018h-.79v1.272Zm4.013 2.892v-5.011h1.011v5.01h-1.011Zm6.497 0h-1.1l-.438-1.139h-2.003l-.413 1.139h-1.074l1.952-5.011h1.07l2.006 5.01ZM57.3 69.1l-.69-1.86-.677 1.86H57.3Z" fill="#000"/></g><defs><clipPath id="a"><path fill="#fff" d="M0 0h81v75H0z"/></clipPath></defs></svg>