<svg width="160" height="100" viewBox="0 0 160 100" fill="none" xmlns="http://www.w3.org/2000/svg">
<rect width="160" height="100" fill="#FEC514"/>
<path d="M23.7761 39.7819C23.5433 39.7821 23.3182 39.8653 23.1412 40.0166C22.9643 40.1679 22.847 40.3773 22.8106 40.6072L21.2064 50.7817C21.2812 50.3066 21.6907 49.9564 22.1719 49.9564H26.8727C31.6038 49.9564 35.6183 46.5051 36.3518 41.8281C36.4064 41.4789 36.4374 41.1264 36.4444 40.7731C35.2421 40.1426 33.8297 39.7819 32.2822 39.7819H23.7761Z" fill="#001C64"/>
<path d="M36.4445 40.7734C36.4375 41.1268 36.4066 41.4793 36.352 41.8284C35.6184 46.5055 31.6035 49.9568 26.8729 49.9568H22.172C21.6912 49.9568 21.2813 50.3066 21.2066 50.7821L19.7315 60.1317L18.8076 65.9971C18.7896 66.1104 18.7963 66.2263 18.8274 66.3367C18.8585 66.4472 18.9132 66.5496 18.9877 66.6368C19.0623 66.7241 19.1548 66.7941 19.259 66.8422C19.3632 66.8902 19.4766 66.915 19.5914 66.915H24.6937C24.9266 66.9148 25.1517 66.8316 25.3286 66.6803C25.5056 66.529 25.6228 66.3196 25.6592 66.0896L27.0032 57.5654C27.0396 57.3353 27.1569 57.1258 27.3341 56.9745C27.5112 56.8232 27.7365 56.7401 27.9694 56.7401H30.9735C35.7046 56.7401 39.7191 53.2887 40.4526 48.6117C40.9735 45.2922 39.3017 42.2715 36.4445 40.7734Z" fill="#0070E0"/>
<path d="M17.9793 33C17.4984 33 17.0886 33.3498 17.0138 33.8246L13.0099 59.214C12.9339 59.696 13.3064 60.1319 13.7944 60.1319H19.7319L21.2062 50.7824L22.8104 40.6078C22.8468 40.3779 22.9641 40.1685 23.141 40.0172C23.318 39.8659 23.5431 39.7827 23.7759 39.7825H32.282C33.8299 39.7825 35.2419 40.1436 36.4442 40.7737C36.5265 36.5155 33.0129 33 28.1821 33H17.9793Z" fill="#003087"/>
<path d="M100.542 39L98.6574 54.3877H103.71L103.409 56.8502H95.7094L97.9059 39H100.542Z" fill="#0070E0"/>
<path d="M117.583 45.9597L116.242 56.8502H113.687L113.837 55.671C112.743 56.6267 111.61 57.1045 110.438 57.1045C108.997 57.1045 107.821 56.6151 106.912 55.6363C106.002 54.6574 105.548 53.3896 105.548 51.8327C105.548 50.0369 106.068 48.5648 107.108 47.4164C108.164 46.268 109.517 45.6938 111.166 45.6938C111.945 45.6938 112.608 45.821 113.155 46.0753C113.71 46.3297 114.276 46.769 114.854 47.3933L115.028 45.9597H117.583ZM114.473 51.0928C114.473 50.1294 114.195 49.3471 113.64 48.7459C113.086 48.137 112.369 47.8326 111.49 47.8326C110.534 47.8326 109.733 48.2064 109.085 48.954C108.438 49.7093 108.114 50.6342 108.114 51.7287C108.114 52.6844 108.384 53.4667 108.924 54.0755C109.463 54.6844 110.157 54.9889 111.005 54.9889C111.945 54.9889 112.758 54.6073 113.444 53.8443C114.13 53.0659 114.473 52.1487 114.473 51.0928Z" fill="#0070E0"/>
<path d="M123.606 48.3297L122.554 56.8502H119.999L121.051 48.3297H119.606L119.895 45.9597H121.34L121.964 40.9076H124.519L123.895 45.9597H126.254L125.964 48.3297H123.606Z" fill="#0070E0"/>
<path d="M129.837 52.3183C129.837 53.1198 130.115 53.7788 130.67 54.2952C131.232 54.8116 131.949 55.0698 132.82 55.0698C134.015 55.0698 134.932 54.6228 135.572 53.7287L137.479 54.7808C136.816 55.6748 136.134 56.2991 135.433 56.6536C134.724 57.0159 133.838 57.197 132.774 57.197C131.086 57.197 129.741 56.6999 128.739 55.7056C127.737 54.7114 127.236 53.3819 127.236 51.7171C127.236 49.9752 127.787 48.5186 128.889 47.347C129.984 46.1832 131.367 45.6013 133.04 45.6013C134.658 45.6013 135.934 46.1254 136.867 47.1736C137.815 48.2295 138.289 49.6438 138.289 51.4165C138.289 51.6015 138.277 51.9021 138.254 52.3183H129.837ZM135.699 50.2604C135.429 48.5802 134.5 47.7401 132.913 47.7401C131.41 47.7401 130.431 48.5802 129.976 50.2604H135.699Z" fill="#0070E0"/>
<path d="M144.416 45.9597L144.3 46.8962C145.163 46.0792 146.034 45.6707 146.913 45.6707C147.684 45.6707 148.385 45.952 149.017 46.5146L147.387 48.6188C146.917 48.218 146.447 48.0176 145.977 48.0176C145.653 48.0176 145.368 48.0831 145.121 48.2141C144.874 48.3374 144.659 48.5378 144.474 48.8153C144.296 49.085 144.146 49.4357 144.023 49.8673C143.907 50.2989 143.815 50.8153 143.745 51.4165L143.075 56.8502H140.52L141.861 45.9597H144.416Z" fill="#0070E0"/>
<path d="M100.542 39L98.6574 54.3877H103.71L103.409 56.8502H95.7094L97.9059 39H100.542Z" stroke="#0070E0" stroke-width="1.2"/>
<path d="M117.583 45.9597L116.242 56.8502H113.687L113.837 55.671C112.743 56.6267 111.61 57.1045 110.438 57.1045C108.997 57.1045 107.821 56.6151 106.912 55.6363C106.002 54.6574 105.548 53.3896 105.548 51.8327C105.548 50.0369 106.068 48.5648 107.108 47.4164C108.164 46.268 109.517 45.6938 111.166 45.6938C111.945 45.6938 112.608 45.821 113.155 46.0753C113.71 46.3297 114.276 46.769 114.854 47.3933L115.028 45.9597H117.583ZM114.473 51.0928C114.473 50.1294 114.195 49.3471 113.64 48.7459C113.086 48.137 112.369 47.8326 111.49 47.8326C110.534 47.8326 109.733 48.2064 109.085 48.954C108.438 49.7093 108.114 50.6342 108.114 51.7287C108.114 52.6844 108.384 53.4667 108.924 54.0755C109.463 54.6844 110.157 54.9889 111.005 54.9889C111.945 54.9889 112.758 54.6073 113.444 53.8443C114.13 53.0659 114.473 52.1487 114.473 51.0928Z" stroke="#0070E0" stroke-width="1.2"/>
<path d="M123.606 48.3297L122.554 56.8502H119.999L121.051 48.3297H119.606L119.895 45.9597H121.34L121.964 40.9076H124.519L123.895 45.9597H126.254L125.964 48.3297H123.606Z" stroke="#0070E0" stroke-width="1.2"/>
<path d="M129.837 52.3183C129.837 53.1198 130.115 53.7788 130.67 54.2952C131.232 54.8116 131.949 55.0698 132.82 55.0698C134.015 55.0698 134.932 54.6228 135.572 53.7287L137.479 54.7808C136.816 55.6748 136.134 56.2991 135.433 56.6536C134.724 57.0159 133.838 57.197 132.774 57.197C131.086 57.197 129.741 56.6999 128.739 55.7056C127.737 54.7114 127.236 53.3819 127.236 51.7171C127.236 49.9752 127.787 48.5186 128.889 47.347C129.984 46.1832 131.367 45.6013 133.04 45.6013C134.658 45.6013 135.934 46.1254 136.867 47.1736C137.815 48.2295 138.289 49.6438 138.289 51.4165C138.289 51.6015 138.277 51.9021 138.254 52.3183H129.837ZM135.699 50.2604C135.429 48.5802 134.5 47.7401 132.913 47.7401C131.41 47.7401 130.431 48.5802 129.976 50.2604H135.699Z" stroke="#0070E0" stroke-width="1.2"/>
<path d="M144.416 45.9597L144.3 46.8962C145.163 46.0792 146.034 45.6707 146.913 45.6707C147.684 45.6707 148.385 45.952 149.017 46.5146L147.387 48.6188C146.917 48.218 146.447 48.0176 145.977 48.0176C145.653 48.0176 145.368 48.0831 145.121 48.2141C144.874 48.3374 144.659 48.5378 144.474 48.8153C144.296 49.085 144.146 49.4357 144.023 49.8673C143.907 50.2989 143.815 50.8153 143.745 51.4165L143.075 56.8502H140.52L141.861 45.9597H144.416Z" stroke="#0070E0" stroke-width="1.2"/>
<path d="M49.1357 39.1142C48.9052 39.1142 48.7094 39.2815 48.6734 39.5094L46.0052 56.4301C45.9955 56.4919 45.9993 56.5551 46.0164 56.6153C46.0334 56.6755 46.0633 56.7313 46.104 56.7788C46.1447 56.8263 46.1951 56.8645 46.252 56.8907C46.3088 56.9169 46.3706 56.9304 46.4332 56.9304H49.5974C49.8276 56.9304 50.0237 56.7628 50.0597 56.5352L50.8435 51.5664C50.8792 51.3388 51.0753 51.1712 51.3058 51.1712H54.1827C57.544 51.1712 60.3973 48.7186 60.9185 45.3953C61.444 42.0439 58.8258 39.1215 55.1149 39.1142H49.1357ZM52.2116 42.8915H54.5134C56.4083 42.8915 57.0254 44.0097 56.8303 45.2462C56.6352 46.4854 55.6768 47.3981 53.8437 47.3981H51.5009L52.2116 42.8915ZM67.3541 44.0417C66.5551 44.0447 65.6358 44.2084 64.6036 44.6383C62.2361 45.6252 61.0991 47.6647 60.6163 49.1515C60.6163 49.1515 59.0795 53.6878 62.5516 56.1801C62.5516 56.1801 65.7717 58.5794 69.3966 56.0322L69.3341 56.4301C69.3244 56.4918 69.3282 56.555 69.3452 56.6151C69.3622 56.6753 69.392 56.731 69.4326 56.7785C69.4732 56.8261 69.5236 56.8643 69.5803 56.8905C69.6371 56.9167 69.6988 56.9303 69.7613 56.9304H72.7652C72.9957 56.9304 73.1914 56.7628 73.2275 56.5352L75.0547 44.9479C75.0645 44.8861 75.0607 44.8229 75.0438 44.7627C75.0268 44.7024 74.997 44.6466 74.9564 44.599C74.9158 44.5514 74.8654 44.5131 74.8086 44.4869C74.7518 44.4606 74.69 44.447 74.6274 44.4469H71.6236C71.3931 44.4469 71.1969 44.6145 71.1612 44.8421L71.063 45.4658C71.063 45.4658 69.7514 44.0328 67.3541 44.0417ZM67.4523 47.7017C67.7973 47.7017 68.1128 47.7493 68.3958 47.8403C69.6919 48.2563 70.4267 49.5014 70.2141 50.851C69.9518 52.5128 68.589 53.7365 66.8412 53.7365C66.4966 53.7365 66.1811 53.6892 65.8977 53.5982C64.602 53.1822 63.8625 51.9371 64.0751 50.5875C64.3374 48.9257 65.7045 47.7017 67.4523 47.7017Z" fill="#003087"/>
<path d="M76.48 44.4469C76.2419 44.4469 76.0726 44.6794 76.1453 44.9059L79.4385 55.1251L76.4608 59.9409C76.3163 60.1747 76.4843 60.4767 76.7591 60.4767H80.2785C80.3792 60.4766 80.4781 60.4505 80.5658 60.4011C80.6534 60.3516 80.7268 60.2804 80.7789 60.1942L89.9762 44.9793C90.1174 44.7455 89.9488 44.4466 89.6756 44.4466H86.1566C86.0549 44.4467 85.9551 44.4732 85.8668 44.5236C85.7785 44.574 85.7049 44.6465 85.6532 44.7339L82.0329 50.8461L80.1952 44.7793C80.1353 44.5818 79.9531 44.4466 79.7471 44.4466L76.48 44.4469Z" fill="#003087"/>
</svg>
