<?xml version="1.0" encoding="UTF-8"?>
<svg width="140px" height="100px" viewBox="0 0 140 100" version="1.1" xmlns="http://www.w3.org/2000/svg" xmlns:xlink="http://www.w3.org/1999/xlink">
    <!-- Generator: Sketch 51.3 (57544) - http://www.bohemiancoding.com/sketch -->
    <title>Artboard@1x</title>
    <desc>Created with Sketch.</desc>
    <defs>
        <polygon id="path-1" points="111.642235 25.3693396 111.642235 9.80983309 95.8393336 9.80983309 95.8393336 25.3693396 111.642235 25.3693396"></polygon>
    </defs>
    <g id="Artboard" stroke="none" stroke-width="1" fill="none" fill-rule="evenodd">
        <g id="Group-5" transform="translate(14.000000, 35.000000)">
            <g id="Group-3">
                <path d="M12.0637155,0.000108853411 C11.8761248,0.000108853411 11.6881713,0.0650580552 11.5343251,0.193142235 C11.380479,0.325580552 11.2883164,0.501197388 11.2574746,0.686248186 L6.79521045,28.9112119 C6.75892598,29.1365385 6.81952104,29.3771045 6.98171263,29.5661466 C7.14100145,29.7551887 7.37068215,29.8524311 7.60145138,29.8524311 L10.0796807,29.8524311 C10.2661829,29.8524311 10.455225,29.7874819 10.6090711,29.6564949 C10.7618287,29.5240566 10.8536284,29.3498911 10.8848331,29.1648403 L15.3481858,0.940239478 C15.3848331,0.713098694 15.3224238,0.472895501 15.1616836,0.28530479 C15.0023948,0.0958998549 14.7727141,0.000108853411 14.5433962,0.000108853411 L12.0637155,0.000108853411 Z" id="Fill-1" fill="#01689D"></path>
                <path d="M5.27550798,0.000108853411 C5.09045718,0.000108853411 4.90286647,0.0650580552 4.74756894,0.193142235 C4.59481132,0.325580552 4.50301161,0.501197388 4.47180697,0.686248186 L0.00990566038,28.9112119 C-0.0252902758,29.1365385 0.0342162554,29.3771045 0.194593614,29.5661466 C0.356785196,29.7551887 0.585014514,29.8524311 0.81469521,29.8524311 L3.29147315,29.8524311 C3.48051524,29.8524311 3.6684688,29.7874819 3.82231495,29.6564949 C3.9761611,29.5240566 4.06796081,29.3498911 4.09662554,29.1648403 L8.56142961,0.940239478 C8.59662554,0.713098694 8.53566763,0.472895501 8.37492743,0.28530479 C8.21418723,0.0958998549 7.98450653,0.000108853411 7.75772859,0.000108853411 L5.27550798,0.000108853411 Z" id="Fill-3" fill="#86191C"></path>
                <path d="M23.7959361,14.065566 L26.3133527,14.065566 C27.8246009,14.065566 28.97373,13.4607039 29.3006531,11.3943033 C29.588389,9.57790276 28.8739478,8.6878447 27.0492017,8.6878447 L24.646807,8.6878447 L23.7959361,14.065566 Z M26.7955733,4.65228592 C31.2400581,4.65228592 35.4606676,5.89212627 34.5557329,11.6130987 C33.8427431,16.1250726 30.2393324,18.1874819 25.8797533,18.1874819 L23.1449927,18.1874819 L22.1845428,24.2553338 C22.153701,24.4403846 22.0619013,24.6160015 21.9091437,24.745537 C21.7567489,24.8765239 21.567344,24.9429245 21.3797533,24.9429245 L17.9330914,24.9429245 C17.7037736,24.9429245 17.4755443,24.8442308 17.3148041,24.6566401 C17.1526125,24.467598 17.0920174,24.2284833 17.1283019,24.000254 L20.0793179,5.34132801 C20.1076197,5.15627721 20.2008708,4.979209 20.3561684,4.84822206 C20.5085631,4.7186865 20.6965167,4.65228592 20.8841074,4.65228592 L26.7955733,4.65228592 Z" id="Fill-5" fill="#86191C"></path>
                <path d="M52.3867562,17.5902032 C52.130225,19.2135704 52.2151306,21.3231495 54.5638244,21.3231495 C56.9433599,21.3231495 57.6403846,19.1569666 57.8969158,17.5335994 C58.1574383,15.880479 58.0551161,13.8870102 55.6752177,13.8870102 C53.8722424,13.8870102 52.7782656,15.1105225 52.3867562,17.5902032 M62.9263062,17.5335994 C62.1944485,22.1497097 58.5032293,25.3692308 53.9223149,25.3692308 C49.3116473,25.3692308 46.6280479,22.2063135 47.3573657,17.5902032 C48.0866836,12.9740929 51.7993106,9.80972424 56.4368287,9.80972424 C60.9898041,9.80972424 63.6516328,12.9472424 62.9263062,17.5335994" id="Fill-7" fill="#86191C"></path>
                <path d="M46.9683237,9.81582003 C46.9683237,9.81582003 46.5982221,9.81037736 46.4766691,9.81037736 C45.803955,9.81037736 45.1519231,9.87677794 44.5238389,10.0048621 C44.0107765,10.1100871 43.5136792,10.2548621 43.0383527,10.4399129 C42.2752903,10.7356313 41.5673803,11.1314949 40.9247823,11.6133527 C40.862373,11.4754717 40.8017779,11.3325109 40.7342888,11.1797533 C40.6384978,10.958418 40.5398041,10.7124093 40.3790639,10.52373 C40.2168723,10.3357765 39.988643,10.2399855 39.7593251,10.2399855 L37.2226778,10.2399855 C37.0336357,10.2399855 36.846045,10.3020319 36.6921988,10.4330189 C36.5379898,10.5654572 36.4461901,10.741074 36.4178882,10.9261248 L34.3503991,24.000508 C34.3137518,24.2272859 34.3732583,24.467852 34.5350871,24.656894 C34.6958273,24.8433962 34.9240566,24.9431785 35.1551887,24.9431785 L38.6018505,24.9431785 C38.7894412,24.9431785 38.9770319,24.8771408 39.1312409,24.7461538 C39.2836357,24.6151669 39.3768868,24.4395501 39.4066401,24.2559507 L40.4614296,17.5894049 C40.5869739,16.7820755 40.9625181,16.0687228 41.5202104,15.4867199 C41.9226052,15.0694485 42.4211538,14.7196662 42.9951742,14.453701 C43.4893687,14.2240203 44.0416183,14.0563861 44.6345065,13.9605951 C45.0115022,13.9 45.4015602,13.8687954 45.8083091,13.8687954 C45.9353048,13.8687954 46.3253628,13.874238 46.3253628,13.874238 C46.7683962,13.9442671 47.1856676,13.6365747 47.257148,13.1949927 L47.6504717,10.708418 C47.7205007,10.266836 47.4124456,9.86298984 46.9683237,9.81582003" id="Fill-9" fill="#86191C"></path>
                <path d="M77.3887155,15.0056967 C77.4239115,14.7789187 77.3629536,14.5383527 77.2022134,14.350762 C77.0414731,14.1602685 76.8132438,14.0659289 76.583926,14.0659289 L70.5117199,14.0659289 L71.3625907,8.6878447 L79.1485123,8.6878447 C79.3346517,8.6878447 79.5226052,8.62434688 79.6764514,8.49335994 C79.829209,8.362373 79.9224601,8.18675617 79.9518505,8.00061684 L80.3328374,5.5953193 C80.3680334,5.3696299 80.3070755,5.12797533 80.1463353,4.94038462 C79.9855951,4.75097968 79.7577286,4.6537373 79.5280479,4.6537373 L67.5988026,4.65264877 C67.4123004,4.65264877 67.2232583,4.7186865 67.0705007,4.84822206 C66.9166546,4.979209 66.8248549,5.15482583 66.7976415,5.34132801 L63.845537,24.0017054 C63.8088897,24.2270319 63.8683962,24.467598 64.0305878,24.6551887 C64.191328,24.8442308 64.4195573,24.9429245 64.649238,24.9429245 L68.095537,24.9429245 C68.2820392,24.9429245 68.4710813,24.8768868 68.6238389,24.7469884 C68.7776851,24.6160015 68.8709361,24.4392961 68.899238,24.2556967 L69.8607765,18.1874819 L76.1895138,18.1874819 C76.3756531,18.1874819 76.5646952,18.1228955 76.7189042,17.9919086 C76.871299,17.8620102 76.9634615,17.6853048 76.9917634,17.5013425 L77.3887155,15.0056967 Z" id="Fill-11" fill="#01689D"></path>
                <path d="M84.1375907,16.1788462 C84.6818578,14.6472787 85.6597242,13.8856676 87.07627,13.8856676 C88.8226415,13.8856676 89.342598,14.9567852 89.3937591,16.1788462 L84.1375907,16.1788462 Z M87.837881,9.80983309 C83.2029028,9.80983309 79.4917271,12.9742017 78.7609579,17.590312 C78.0316401,22.2064224 80.7141509,25.3693396 85.3248186,25.3693396 C87.2156023,25.3693396 88.9561684,24.81709 90.3984761,23.8457547 C90.6553701,23.7082366 90.8309869,23.4379173 90.8309869,23.1262337 C90.8309869,22.9342888 90.7714804,22.7466981 90.6499274,22.6157112 C89.8288099,21.747061 89.7275762,21.6403846 89.1183599,21.0043179 C88.9819303,20.861357 88.779463,20.7855225 88.5661103,20.7855225 C88.4699565,20.7855225 88.3875907,20.8043904 88.2798258,20.845029 C88.1782293,20.8813135 88.0595791,20.9393687 87.9772134,20.9734761 C87.422061,21.2042453 86.7711176,21.3228955 86.0174891,21.3228955 C85.9957184,21.3228955 85.9743106,21.321807 85.95,21.3203556 C84.2333817,21.3000363 83.725762,20.2223875 83.6811321,19.0014151 L93.2899855,19.0014151 C93.2899855,19.0014151 93.4358491,18.9974238 93.4656023,18.9934325 C93.8048621,18.9517054 94.0788099,18.700254 94.1571843,18.3747823 C94.1611756,18.3584543 94.1775036,18.2804427 94.1829463,18.2561321 C94.2395501,18.0195573 94.2881713,17.7793541 94.3273585,17.5333454 C95.0526851,12.9469884 92.3933962,9.80983309 87.837881,9.80983309 L87.837881,9.80983309 Z" id="Fill-13" fill="#01689D"></path>
                <mask id="mask-2" fill="white">
                    <use xlink:href="#path-1"></use>
                </mask>
                <g id="Clip-16"></g>
                <path d="M101.333745,16.1788462 C101.878012,14.6472787 102.855878,13.8856676 104.272424,13.8856676 C106.018795,13.8856676 106.540203,14.9567852 106.589913,16.1788462 L101.333745,16.1788462 Z M105.034035,9.80983309 C100.399057,9.80983309 96.687881,12.9742017 95.9585631,17.590312 C95.2277939,22.2064224 97.9103048,25.3693396 102.520972,25.3693396 C104.411756,25.3693396 106.152322,24.81709 107.59463,23.8457547 C107.851524,23.7082366 108.027141,23.4379173 108.027141,23.1262337 C108.027141,22.9342888 107.967634,22.7466981 107.84463,22.6157112 C107.024964,21.747061 106.92373,21.6403846 106.315965,21.0043179 C106.178084,20.861357 105.975617,20.7855225 105.760813,20.7855225 C105.66611,20.7855225 105.583745,20.8043904 105.47598,20.845029 C105.374383,20.8813135 105.255733,20.9393687 105.174819,20.9734761 C104.618215,21.2042453 103.96582,21.3228955 103.213643,21.3228955 C103.191872,21.3228955 103.170464,21.321807 103.147605,21.3203556 C101.429536,21.3000363 100.923004,20.2223875 100.877286,19.0014151 L110.486139,19.0014151 C110.486139,19.0014151 110.632003,18.9974238 110.661756,18.9934325 C111.001016,18.9517054 111.274964,18.700254 111.353338,18.3747823 C111.357329,18.3584543 111.373657,18.2804427 111.3791,18.2561321 C111.435704,18.0195573 111.484325,17.7793541 111.523512,17.5333454 C112.249927,12.9469884 109.591001,9.80983309 105.034035,9.80983309 L105.034035,9.80983309 Z" id="Fill-15" fill="#01689D" mask="url(#mask-2)"></path>
            </g>
        </g>
    </g>
</svg>