<?xml version="1.0" encoding="UTF-8"?>
<svg width="116px" height="35px" viewBox="0 0 116 35" version="1.1" xmlns="http://www.w3.org/2000/svg" xmlns:xlink="http://www.w3.org/1999/xlink">
    <!-- Generator: Sketch 51.3 (57544) - http://www.bohemiancoding.com/sketch -->
    <title>rapid-transfer-bank-logo_dsg_155_desktop</title>
    <desc>Created with Sketch.</desc>
    <defs>
        <polygon id="path-1" points="0.00935046729 0.0156428604 25.3403936 0.0156428604 25.3403936 34.7265625 0.00935046729 34.7265625"></polygon>
        <polygon id="path-3" points="0.12673271 0.00328125 24.8082025 0.00328125 24.8082025 34.7157617 0.12673271 34.7157617"></polygon>
        <polygon id="path-5" points="0.00913364486 0.00328125 17.1288907 0.00328125 17.1288907 34.7157617 0.00913364486 34.7157617"></polygon>
        <polygon id="path-7" points="0.020164486 0.00328125 24.6939143 0.00328125 24.6939143 34.6882539 0.020164486 34.6882539"></polygon>
    </defs>
    <g id="DSG-155_logotype_V2" stroke="none" stroke-width="1" fill="none" fill-rule="evenodd">
        <g id="DSG_155_logo_desktop-Copy" transform="translate(-324.000000, -686.000000)">
            <g id="rapid-transfer-bank-logo_dsg_155_desktop" transform="translate(324.000000, 686.000000)">
                <path d="M14.3993402,17.7958594 C15.8000131,17.8089844 15.6869944,17.3758594 16.0032841,16.5101562 C16.3767607,15.4825781 19.9285832,6.00878906 20.2210224,5.27050781 C20.4920505,4.58691406 20.6107607,4.10265625 20.0508168,4.10265625 L16.3878729,4.10265625 L11.294443,17.7958594 L14.3993402,17.7958594 Z M13.1965178,0.273710938 L22.1388168,0.273710938 C25.3705551,0.24609375 25.5930692,2.93945313 25.1187701,4.30664063 C24.3962093,6.47144531 21.3243776,14.6062109 20.4663028,16.9304297 C20.0144991,18.1152344 19.3008822,19.6205078 16.8841252,20.7369531 L14.5367514,34.9863281 L9.78319065,34.9863281 L12.2991439,21.3521875 L9.86043364,21.3521875 L4.68190093,34.9863281 L0.000162616822,34.9863281 L13.1965178,0.273710938 Z" id="Fill-1" fill="#000000"></path>
                <g id="Group-5" transform="translate(21.140187, 0.270156)">
                    <mask id="mask-2" fill="white">
                        <use xlink:href="#path-1"></use>
                    </mask>
                    <g id="Clip-4"></g>
                    <path d="M20.6446121,3.83258203 L16.138771,3.83258203 L11.1635093,17.1973867 L15.6414346,17.1973867 L20.6446121,3.83258203 Z M9.19367757,34.7266445 L14.2347991,21.0818398 L9.73573364,21.0818398 L4.62441589,34.7266445 L0.00935046729,34.7266445 C0.00935046729,34.7266445 8.41257477,12.4291836 11.2602664,4.50469141 C12.3105,1.58246484 14.8007056,0.0443789063 16.8840981,0.0271523438 C18.6799299,0.0126601563 20.6272664,0.00855859375 22.2450327,0.0345351563 C26.0480981,0.0955117188 25.438285,3.42816797 25.0488178,4.50469141 C22.0992196,12.6558633 13.8689112,34.7266445 13.8689112,34.7266445 L9.19367757,34.7266445 Z" id="Fill-3" fill="#000000" mask="url(#mask-2)"></path>
                </g>
                <g id="Group-8" transform="translate(42.551402, 0.270156)">
                    <mask id="mask-4" fill="white">
                        <use xlink:href="#path-3"></use>
                    </mask>
                    <g id="Clip-7"></g>
                    <path d="M13.2921907,19.9862305 C14.0551346,19.9711914 14.2754804,19.7830664 14.4955551,19.1508789 C14.8609009,18.1719727 19.1935551,6.25283203 19.4927701,5.41064453 C19.8993121,4.26548828 20.3397327,3.82115234 18.5051439,3.83263672 L16.0810692,3.83263672 L10.1802467,19.9862305 L13.2921907,19.9862305 Z M12.889714,0.00314453125 L21.7574804,0.00314453125 C24.0324897,0.0102539062 25.3537514,1.71923828 24.5916206,4.02623047 C23.7779944,6.48826172 19.5095738,18.2108008 18.8490785,19.9370117 C18.3747794,21.3895117 16.4605084,23.8162695 13.6187794,23.7883789 L8.82510654,23.7883789 L4.80847103,34.7157617 L0.12673271,34.7157617 L12.889714,0.00314453125 Z" id="Fill-6" fill="#000000" mask="url(#mask-4)"></path>
                </g>
                <g id="Group-11" transform="translate(63.420561, 0.270156)">
                    <mask id="mask-6" fill="white">
                        <use xlink:href="#path-5"></use>
                    </mask>
                    <g id="Clip-10"></g>
                    <polygon id="Fill-9" fill="#000000" mask="url(#mask-6)" points="12.5281897 0.00314453125 17.1288907 0.00314453125 4.60956355 34.7157617 0.00913364486 34.7157617"></polygon>
                </g>
                <g id="Group-14" transform="translate(76.158879, 0.270156)">
                    <mask id="mask-8" fill="white">
                        <use xlink:href="#path-7"></use>
                    </mask>
                    <g id="Clip-13"></g>
                    <path d="M9.30206168,30.9079805 C10.4539308,30.9079805 10.6506972,30.2175508 11.0233607,29.1921602 C12.0735944,26.2868867 18.6937252,7.42106641 19.5268654,5.16383984 C19.8203888,4.36813672 19.9559028,3.79856641 19.0460617,3.79665234 L15.6647159,3.79665234 L6.01178131,30.9079805 L9.30206168,30.9079805 Z M12.4034355,0.00325390625 L22.0235757,0.00325390625 C24.1682206,0.0368867187 25.2523327,2.29274609 24.4053701,4.37770703 C23.6044822,6.34891797 16.6504449,26.368918 15.4614449,29.8073945 C13.8802673,34.3779023 10.7523327,34.6609102 9.55601495,34.6882539 L0.020164486,34.6882539 L12.4034355,0.00325390625 Z" id="Fill-12" fill="#000000" mask="url(#mask-8)"></path>
                </g>
                <polygon id="Fill-15" fill="#65C18F" points="94.4498561 34.9214687 102.461445 34.9214687 102.461445 13.7174844"></polygon>
                <polygon id="Fill-17" fill="#000000" points="115.4548 1.89202344 115.4548 0.32440625 115.951594 0.32440625 115.951594 3.94389844 115.4548 3.94389844 115.4548 2.41483594 106.809006 2.41483594 106.809006 1.89202344"></polygon>
                <path d="M109.138844,12.2550039 L115.20662,11.3064492 L109.138844,10.3677383 L109.138844,12.2550039 Z M115.951676,10.9966445 L115.951676,11.6066836 L106.808816,13.2615273 L106.808816,12.7291445 L108.687311,12.3228164 L108.687311,10.290082 L106.808816,9.87418359 L106.808816,9.35164453 L115.951676,10.9966445 Z" id="Fill-19" fill="#000000"></path>
                <polygon id="Fill-21" fill="#000000" points="115.951594 14.3459805 115.951594 14.7621523 108.231903 17.423793 115.951594 17.423793 115.951594 17.8883633 106.809006 17.8883633 106.809006 17.4721914 114.540622 14.8105508 106.809006 14.8105508 106.809006 14.3459805"></polygon>
                <polygon id="Fill-23" fill="#000000" points="115.951594 24.1200312 115.951594 26.8202266 115.466183 26.8202266 115.466183 24.6425703 111.651464 24.6425703 111.651464 26.5752266 111.12323 26.5752266 111.12323 24.6425703 106.809006 24.6425703 106.809006 24.1200312"></polygon>
                <polygon id="Fill-25" fill="#000000" points="115.951594 27.6901953 115.951594 30.3999609 115.4548 30.3999609 115.4548 28.2223047 111.651464 28.2223047 111.651464 30.3958594 111.12323 30.3958594 111.12323 28.2223047 107.29523 28.2223047 107.29523 30.4292188 106.809006 30.4292188 106.809006 27.6901953"></polygon>
                <path d="M106.800956,21.2011406 C106.800956,21.1275859 106.801227,21.0622344 106.801498,20.9905937 L106.802311,20.6857109 L106.80204,20.591375 C106.798788,20.2752812 106.798517,20.0245391 107.019947,19.7448125 C107.211293,19.5030937 107.525685,19.3950859 108.071264,19.3836016 C108.816592,19.3682891 109.786601,19.3836016 109.796358,19.3836016 L109.78904,19.8347734 C109.779554,19.8345 108.817676,19.8194609 108.08075,19.8347734 C107.692367,19.8427031 107.46633,19.9036797 107.369573,20.0261797 C107.25276,20.1738359 107.247339,20.2843047 107.249236,20.5886406 L107.249507,20.6857109 L107.248694,20.9925078 C107.247881,21.1409844 107.24761,21.2637578 107.249507,21.4868828 C107.25276,21.8336016 107.324853,21.9396953 107.404536,22.0255547 C107.495872,22.1239922 107.581788,22.1939922 107.852274,22.1953594 C107.986433,22.1961797 108.13062,22.1980937 108.284293,22.2005547 C108.588386,22.2049297 108.929881,22.2098516 109.305526,22.2062969 C109.857339,22.1980937 109.962769,22.1814141 110.243554,22.0583672 C110.494255,21.9484453 110.673947,21.7009844 110.675844,21.6985234 L111.912274,20.0647344 C111.944797,20.0220781 112.231816,19.6562187 112.542956,19.5148516 C112.794741,19.4005547 113.057909,19.4008281 113.289638,19.4011016 L113.50619,19.3991875 C114.154218,19.3896172 114.511162,19.3841484 114.773517,19.4011016 C115.154582,19.4046562 115.479816,19.5274297 115.677395,19.7467266 C115.903433,19.9974687 116.004797,20.2670781 115.999648,20.6501641 C115.996666,21.0059062 115.999648,21.4157891 115.999648,21.4157891 C115.990704,21.9090703 115.712358,22.3143047 115.255134,22.5054375 C114.955377,22.6309453 114.278891,22.6230156 114.146358,22.6202812 L113.026199,22.6202812 L113.026199,22.1691094 L114.150694,22.1691094 C114.446386,22.1753984 114.926648,22.1540703 115.084115,22.0884453 C115.222068,22.03075 115.544592,21.8491875 115.552722,21.4130547 C115.552451,21.4116875 115.549741,21.0020781 115.552451,20.6466094 C115.560311,20.3920391 115.497162,20.2170391 115.34647,20.0499687 C115.235349,19.9266484 115.020423,19.8544609 114.756984,19.8517266 C114.50005,19.8355937 114.149339,19.8407891 113.512965,19.8503594 L113.289367,19.8522734 C113.093414,19.852 112.890685,19.8517266 112.726171,19.926375 C112.548106,20.0073125 112.329386,20.2583281 112.26705,20.3398125 L111.035498,21.9664922 C111.030078,21.9746953 110.789405,22.3112969 110.42162,22.4720781 C110.060068,22.6306719 109.888507,22.6487187 109.311218,22.6574687 C108.930152,22.6612969 108.584863,22.6561016 108.277517,22.6517266 C108.12547,22.6495391 107.982638,22.6473516 107.849835,22.6465312 C107.448442,22.6443437 107.250863,22.5199297 107.077947,22.3342656 C106.885788,22.1272734 106.806106,21.8828203 106.802311,21.4912578 C106.801227,21.3725859 106.800956,21.2820781 106.800956,21.2011406" id="Fill-27" fill="#000000"></path>
                <path d="M111.346503,5.4495 L115.466129,5.4495 L115.466129,6.60750781 C115.466129,7.01301562 115.325194,7.29219531 115.043054,7.44504687 C114.760914,7.597625 114.311007,7.59215625 113.694148,7.59215625 C113.084877,7.59215625 112.089391,7.59899219 111.792344,7.44914844 C111.495026,7.29930469 111.346503,7.02149219 111.346503,6.61625781 L111.346503,5.4495 Z M109.495652,8.10266406 C110.29383,8.08789844 110.538297,7.97551562 110.783849,7.72942187 L111.114774,7.39692187 C111.215867,7.55469531 111.368185,7.78629687 111.685017,7.90332812 C112.068793,8.04496875 113.099783,8.03375781 113.694148,8.03375781 C114.40126,8.03375781 114.954428,8.00723437 115.353381,7.79094531 C115.752064,7.57438281 115.95154,7.18801562 115.95154,6.63266406 L115.95154,4.99969531 L106.808951,4.99969531 L106.808951,5.4495 L110.872475,5.4495 L110.872475,7.00344531 L110.468914,7.40922656 C110.328521,7.54649219 110.240979,7.63754687 109.487521,7.65121875 C109.216222,7.65641406 106.832802,7.65121875 106.808951,7.65121875 L106.808951,8.10266406 C106.907064,8.1029375 109.219746,8.10758594 109.495652,8.10266406 Z" id="Fill-29" fill="#000000"></path>
                <path d="M111.346503,32.269207 L115.466129,32.269207 L115.466129,33.4272148 C115.466129,33.8327227 115.325194,34.1119023 115.043054,34.2647539 C114.760914,34.417332 114.311007,34.4118633 113.694148,34.4118633 C113.084877,34.4118633 112.089391,34.4186992 111.792344,34.2688555 C111.495026,34.1190117 111.346503,33.8411992 111.346503,33.4359648 L111.346503,32.269207 Z M109.495652,34.9220977 C110.29383,34.907332 110.538297,34.7949492 110.783849,34.5491289 L111.114774,34.2166289 C111.215867,34.3744023 111.368185,34.6060039 111.685017,34.7230352 C112.068793,34.8644023 113.099783,34.8534648 113.694148,34.8534648 C114.40126,34.8534648 114.954428,34.8269414 115.353381,34.6106523 C115.752064,34.3940898 115.95154,34.0077227 115.95154,33.4523711 L115.95154,31.8191289 L106.808951,31.8191289 L106.808951,32.269207 L110.872475,32.269207 L110.872475,33.8231523 L110.468914,34.2286602 C110.328521,34.3661992 110.240979,34.4572539 109.487521,34.4709258 C109.216222,34.4758477 106.832802,34.4709258 106.808951,34.4709258 L106.808951,34.9220977 C106.907064,34.9223711 109.219746,34.927293 109.495652,34.9220977 Z" id="Fill-31" fill="#000000"></path>
            </g>
        </g>
    </g>
</svg>