<?xml version="1.0" encoding="utf-8"?>
<!-- Generator: Adobe Illustrator 19.0.0, SVG Export Plug-In . SVG Version: 6.00 Build 0)  -->
<svg version="1.1" id="Layer_1" xmlns="http://www.w3.org/2000/svg" xmlns:xlink="http://www.w3.org/1999/xlink" x="0px" y="0px"
	 viewBox="-372 266.3 96 64" style="enable-background:new -372 266.3 96 64;" xml:space="preserve">
<style type="text/css">
	.st0{filter:url(#Adobe_OpacityMaskFilter);}
	.st1{fill:#FFFFFF;}
	.st2{mask:url(#mask-2);}
	.st3{fill:#EB6F93;}
</style>
<title>Badge / de_de / pay_now / descriptive /pink</title>
<desc>Created with Sketch.</desc>
<g id="Badges">
	<g id="DE" transform="translate(-24.000000, -116.000000)">
		<g id="Badge-_x2F_-de_x5F_de-_x2F_-pay_x5F_now-_x2F_-descriptive-_x2F_pink" transform="translate(24.000000, 116.000000)">
			<g id="BG-_x2F_-Radius-5">
				<g id="BG">
				</g>
				<defs>
					<filter id="Adobe_OpacityMaskFilter" filterUnits="userSpaceOnUse" x="-372" y="266.3" width="96" height="64">
						<feColorMatrix  type="matrix" values="1 0 0 0 0  0 1 0 0 0  0 0 1 0 0  0 0 0 1 0"/>
					</filter>
				</defs>
				<mask maskUnits="userSpaceOnUse" x="-372" y="266.3" width="96" height="64" id="mask-2">
					<g class="st0">
						<path id="path-1" class="st1" d="M-367,266.3h86c2.8,0,5,2.2,5,5v54c0,2.8-2.2,5-5,5h-86c-2.8,0-5-2.2-5-5v-54
							C-372,268.5-369.8,266.3-367,266.3z"/>
					</g>
				</mask>
				<g id="Color-_x2F_-Pink" class="st2">
					<rect id="BG_1_" x="-372" y="266.3" class="st3" width="96" height="64"/>
				</g>
			</g>
			<path id="Sofort." class="st1" d="M-343.2,323.5c2.2,0,3.8-1.5,3.8-3.6c0-2-1.4-2.8-3.1-3.4c-1.1-0.3-1.8-0.6-1.8-1.3
				c0-0.7,0.5-1.2,1.2-1.2c0.6,0,1.1,0.4,1.5,0.9l1.8-1.1c-0.6-1.2-1.8-1.9-3.2-1.9c-2.2,0-3.6,1.6-3.6,3.4c0,1.4,0.9,2.6,3,3.2
				c1.2,0.3,1.9,0.6,1.9,1.5c0,0.9-0.6,1.4-1.5,1.4c-1,0-1.7-0.6-2.2-1.2l-1.5,1.5C-346,322.8-344.7,323.5-343.2,323.5z
				 M-334.4,323.5c-2.3,0-4.2-1.8-4.2-4.1c0-2.2,1.9-4.1,4.2-4.1c2.3,0,4.2,1.8,4.2,4.1C-330.2,321.6-332.1,323.5-334.4,323.5z
				 M-334.4,321.4c1.1,0,2-0.9,2-2c0-1.2-0.9-2-2-2c-1.1,0-2,0.9-2,2C-336.4,320.6-335.5,321.4-334.4,321.4z M-324.8,314.1v-2h-0.3
				c-2.7,0-4,1.8-4,3.8v7.4h2.2V320c0-1.1,0.8-1.8,2-1.9v-2.1c-0.9,0-1.6,0.3-2,0.8V316C-326.9,314.7-326,314.1-324.8,314.1z
				 M-320.1,323.5c-2.3,0-4.2-1.8-4.2-4.1c0-2.2,1.9-4.1,4.2-4.1c2.3,0,4.2,1.8,4.2,4.1C-315.9,321.6-317.8,323.5-320.1,323.5z
				 M-320.1,321.4c1.1,0,2-0.9,2-2c0-1.2-0.9-2-2-2s-2,0.9-2,2C-322.1,320.6-321.2,321.4-320.1,321.4z M-312.6,316.4v-0.9h-2.1v7.7
				h2.2v-3.5c0-1.3,0.8-2,2.1-2v-2.3C-311.5,315.4-312.2,315.7-312.6,316.4z M-307.1,319.3v-1.9c0.5,0.5,1.2,0.8,2,0.8v-2.1
				c-1.2,0-2-0.8-2-1.9V313h-2.2v6.4c0,2.1,1.3,3.8,4,3.8h0.3v-2C-306.2,321.3-307.1,320.7-307.1,319.3z M-302.4,323.4
				c0.8,0,1.5-0.7,1.5-1.5c0-0.8-0.7-1.5-1.5-1.5c-0.8,0-1.5,0.7-1.5,1.5C-303.8,322.8-303.2,323.4-302.4,323.4z"/>
			<g id="Icons-_x2F_-Pay-now-_x2F_-White" transform="translate(36.000000, 5.000000)">
				<path id="_Path_" class="st1" d="M-363.4,291c0.7,0.7,0.7,1.8,0,2.4l-0.1,0.1c-0.7,0.7-1.8,0.7-2.4,0l-3.8-3.8
					c-1.1-1.1-1.2-2.4-0.5-3.1l0.1-0.1c0.6-0.6,1.5-0.6,2.1-0.1c0.3,0.2,0.7,0.2,1-0.1c0.2-0.3,0.2-0.7-0.1-1
					c-1.2-0.9-2.9-0.8-3.9,0.3l-0.1,0.1c-1.2,1.3-1,3.4,0.6,5l3.8,3.8c1.2,1.2,3.2,1.2,4.4-0.1l0.1-0.1c1.2-1.2,1.2-3.2-0.1-4.4
					c-0.3-0.3-0.7-0.3-1,0S-363.7,290.8-363.4,291z"/>
				<path id="_Path_2" class="st1" d="M-365.7,270.4l1.6,12.9c0,0.4,0.4,0.6,0.8,0.6c0.4,0,0.6-0.4,0.6-0.8l-1.6-13l0-0.1
					c-0.3-1.1,0.4-2.3,1.3-2.5c0.5-0.1,1,0,1.4,0.3c0.4,0.3,0.7,0.7,0.8,1.2l2.7,11.7c0.1,0.4,0.5,0.6,0.8,0.5s0.6-0.5,0.5-0.8
					l-2.7-11.7c-0.2-0.8-0.7-1.6-1.4-2.1s-1.6-0.7-2.5-0.5C-365.1,266.6-366.2,268.6-365.7,270.4z"/>
				<path id="_Path_3" class="st1" d="M-351.3,285.6l3.1-15.5c0.4-1.7-0.6-3.3-2.3-3.8c-1.8-0.5-3.7,0.6-4.2,2.4l-3.4,11.8
					c-0.1,0.4,0.1,0.7,0.5,0.9s0.7-0.1,0.9-0.5l3.4-11.8c0.3-1.1,1.4-1.7,2.5-1.5c0.9,0.3,1.5,1.2,1.3,2.2l-3.1,15.5
					c-0.1,0.4,0.2,0.7,0.5,0.8C-351.7,286.2-351.4,286-351.3,285.6z"/>
				<path id="Shape" class="st1" d="M-359.1,300.5c-4.9,0-9-3.6-9-8.7c0-0.4-0.3-0.7-0.7-0.7s-0.7,0.3-0.7,0.7
					c0,5.9,4.8,10.1,10.4,10.1c0.4,0,0.7-0.3,0.7-0.7C-358.4,300.8-358.7,300.5-359.1,300.5z"/>
				<path id="_Path_4" class="st1" d="M-361.6,288.4c-0.1,0.4-0.3,0.7-0.7,1l-0.1,0.1c-0.8,0.5-1.9,0.3-2.4-0.5l-3-4.5
					c-0.8-1.3-0.7-2.6,0.1-3.1l0.1-0.1c1-0.6,1.9-0.1,2.8,1.2l2.5,3.8c0.2,0.3,0.6,0.4,1,0.2c0.3-0.2,0.4-0.6,0.2-1l-2.5-3.8
					c-1.2-1.8-2.8-2.6-4.6-1.5l-0.2,0.1c-1.5,1-1.7,3.2-0.5,5l3,4.5c1,1.4,2.9,1.8,4.3,0.8l0.2-0.1c0.6-0.4,1-1,1.2-1.7
					c0.1-0.4-0.1-0.7-0.5-0.8S-361.5,288.1-361.6,288.4z"/>
				<path id="Shape_1_" class="st1" d="M-357,290.7c-1.4,0.8-2.3,2.3-2.4,4.6c0,0.4,0.3,0.7,0.7,0.7c0.4,0,0.7-0.3,0.7-0.7
					c0.1-2.1,0.9-3.2,2.2-3.7c0.7-0.3,1.5-0.3,2.1-0.2c0.1,0,0.1,0,0.2,0c0.9,0.2,1.2-1.2,0.3-1.4l-5.3-1.2
					c-2.5-0.7-2.9-1.6-2.4-3.1c0.2-0.7,0.6-1,1.2-1.1c0.4-0.1,0.9-0.1,1.3,0c0.1,0,0.2,0,0.3,0.1l8.1,1.9c0.1,0,0.1,0,0.2,0.1
					c0.1,0.1,0.3,0.2,0.4,0.3c0.5,0.6,0.8,1.7,0.7,3.5c-0.5,6.3-3.4,10.2-10.4,10.1c-0.4,0-0.7,0.3-0.7,0.7c0,0.4,0.3,0.7,0.7,0.7
					c7.8,0.1,11.2-4.5,11.8-11.4c0.2-2.1-0.2-3.6-1.1-4.5c-0.5-0.5-0.9-0.7-1.3-0.8l-8-1.9c-0.1,0-0.2,0-0.4-0.1
					c-0.6-0.1-1.2-0.1-1.8,0c-1.1,0.2-1.9,0.9-2.2,2.1c-0.7,2.2,0,4,3.4,4.9L-357,290.7z"/>
			</g>
		</g>
	</g>
</g>
</svg>
