<svg width="70" height="44" viewBox="0 0 70 44" fill="none" xmlns="http://www.w3.org/2000/svg">
<path d="M13.7111 0H31.1807C33.6165 0 35.1332 1.98471 34.5668 4.43338L26.434 39.3537C25.8662 41.7908 23.4182 43.7843 20.9777 43.7843H3.49791C1.06484 43.7843 -0.449801 41.7908 0.119972 39.3537L8.24941 4.43338C8.83071 1.98403 11.2678 0 13.7111 0Z" fill="#D43D3E"/>
<path d="M29.7278 0H49.8164C52.263 0 51.1587 1.98471 50.5815 4.43338L42.4521 39.3537C41.8809 41.7908 42.0566 43.7843 39.6168 43.7843H19.5262C17.0775 43.7843 15.5676 41.7908 16.1388 39.3537L24.275 4.43338C24.8536 1.98403 27.2826 0 29.7278 0Z" fill="#084C7F"/>
<path d="M49.0214 0H66.489C68.9356 0 70.457 1.98471 69.8764 4.43338L61.7415 39.3537C61.1718 41.7908 58.7312 43.7843 56.2867 43.7843H38.8204C36.3765 43.7843 34.8612 41.7908 35.4391 39.3537L43.5712 4.43338C44.1424 1.98403 46.5788 0 49.0214 0Z" fill="#107C80"/>
<path d="M51.8865 25.7789L49.7587 32.8223H50.3231L49.8869 34.2814H49.3097L49.1761 34.7372H47.154L47.2863 34.2814H43.1731L43.5889 32.9356H44.006L46.1603 25.7789L46.5951 24.3416H48.6633L48.4442 25.068C48.4442 25.068 48.9977 24.6699 49.5213 24.5294C50.0368 24.4012 53.0329 24.3456 53.0329 24.3456L52.5906 25.7789H51.8865ZM48.2298 25.7789L47.6906 27.5859C47.6906 27.5859 48.3078 27.3057 48.6368 27.2162C48.976 27.1253 49.4854 27.0914 49.4854 27.0914L49.8876 25.7782H48.2298V25.7789ZM47.422 28.4744L46.8576 30.354C46.8576 30.354 47.4749 30.0325 47.8188 29.9307C48.1545 29.8541 48.6687 29.7815 48.6687 29.7815L49.0696 28.4738H47.422V28.4744ZM46.1013 32.8481H47.7469L48.2298 31.2656H46.5761L46.1013 32.8481Z" fill="white"/>
<path d="M52.7908 24.3457H55.0054L55.0332 25.1664C55.0142 25.3143 55.1323 25.3699 55.3873 25.3699H55.8438L55.4226 26.736H54.2376C53.2005 26.8039 52.8138 26.3691 52.8355 25.8637L52.7908 24.3457Z" fill="white"/>
<path d="M53.0842 30.786H50.9788L51.3451 29.5732H53.7429L54.0881 28.4683H51.7127L52.1224 27.113H58.729L58.3166 28.4683H56.0986L55.7547 29.5732H57.9775L57.6071 30.786H55.2039L54.7793 31.2927H55.7547L55.9914 32.8148C56.0158 32.9702 56.0186 33.0651 56.0674 33.1316C56.1122 33.1893 56.4059 33.211 56.5741 33.211H56.8712L56.4316 34.6971H55.676C55.5593 34.6971 55.3877 34.6883 55.1497 34.6815C54.9312 34.6578 54.7657 34.5235 54.6104 34.4536C54.4714 34.381 54.2672 34.2176 54.2231 33.934L53.9884 32.4133L52.8977 33.9076C52.5545 34.3804 52.0817 34.746 51.2922 34.746H49.7612L50.156 33.4233H50.7421C50.913 33.4233 51.0588 33.3582 51.1748 33.3005C51.2874 33.2544 51.383 33.1974 51.4936 33.0305L53.0842 30.786Z" fill="white"/>
<path d="M30.0562 27.4832H35.6264L35.2167 28.8099H32.981L32.6371 29.942H34.9169L34.5011 31.3122H32.224L31.6759 33.1517C31.6047 33.3566 32.2098 33.3932 32.4295 33.3932L33.5698 33.2236L33.1119 34.745H30.5405C30.3431 34.745 30.1823 34.724 29.9585 34.6637C29.7441 34.6182 29.6499 34.511 29.5535 34.3618C29.4579 34.218 29.3161 34.0966 29.4158 33.7717L30.1525 31.3318H28.8875L29.2992 29.942H30.5818L30.9135 28.8099H29.6505L30.0562 27.4832Z" fill="white"/>
<path d="M33.8044 25.0904H36.0773L35.6738 26.4789H32.5468L32.2103 26.7712C32.0693 26.9171 32.0197 26.8608 31.8325 26.9578C31.6501 27.0405 31.2763 27.2237 30.8008 27.2237H29.7949L30.1999 25.8888H30.5058C30.7568 25.8888 30.9331 25.8637 31.0172 25.8074C31.1149 25.7409 31.2302 25.6039 31.3577 25.3699L31.9261 24.3293H34.1937L33.8044 25.0904Z" fill="white"/>
<path d="M37.0657 24.3478H39.0097L38.7357 25.3273C38.7357 25.3273 39.3441 24.8335 39.7694 24.6605C40.1995 24.5004 41.1728 24.3539 41.1728 24.3539L44.3195 24.3403L43.2525 27.9143C43.0633 28.5241 42.8577 28.9263 42.7207 29.0979C42.6047 29.2851 42.4711 29.4439 42.1889 29.5958C41.9346 29.7321 41.6904 29.8142 41.4618 29.8339C41.259 29.8536 40.9314 29.8536 40.4979 29.8617H37.4646L36.6038 32.6841C36.5244 32.9697 36.4844 33.0985 36.5367 33.1813C36.5801 33.2444 36.6866 33.3224 36.8331 33.3224L38.1646 33.1969L37.7108 34.7448H36.2104C35.7403 34.7448 35.3856 34.7373 35.1509 34.7238C34.9148 34.6966 34.6727 34.7238 34.5153 34.5915C34.3736 34.4748 34.1626 34.3046 34.1626 34.1418C34.1735 33.9912 34.246 33.7321 34.339 33.3916L37.0657 24.3478ZM41.1986 27.955H38.012L37.8159 28.6007H40.5719C40.8947 28.556 40.9727 28.6028 40.9924 28.5879L41.1986 27.955ZM38.187 27.3791C38.187 27.3791 38.809 26.8032 39.8753 26.6167C40.1154 26.5767 41.6348 26.5875 41.6348 26.5875L41.862 25.8272H38.6462L38.187 27.3791Z" fill="white"/>
<path d="M42.7402 30.1174L42.5652 30.9755C42.49 31.238 42.4201 31.4422 42.2119 31.6158C42.0043 31.7969 41.7513 31.9787 41.1673 31.9787L40.0854 32.0296L40.0752 33.0043C40.0644 33.2675 40.1396 33.2444 40.179 33.2858C40.2305 33.3346 40.2739 33.3604 40.3241 33.3719L40.6646 33.3604L41.6923 33.3007L41.2744 34.7211H40.0854C39.2612 34.7211 38.6392 34.6973 38.4459 34.5332C38.2451 34.4138 38.218 34.253 38.218 33.9804L38.2974 30.2056H40.181L40.1668 30.9762H40.6192C40.7664 30.9762 40.8681 30.9612 40.9428 30.9185C40.997 30.8744 41.0418 30.8127 41.0676 30.7232L41.2609 30.1181H42.7402V30.1174Z" fill="white"/>
<path d="M15.7752 11.1514C15.7114 11.4593 14.4945 17.0526 14.4945 17.0526C14.23 18.1881 14.0462 18.9993 13.3998 19.5135C13.0321 19.8173 12.6 19.9652 12.1056 19.9652C11.3086 19.9652 10.8466 19.5691 10.7632 18.8141L10.7496 18.5625C10.7496 18.5625 10.9925 17.0424 10.9925 17.0343C10.9925 17.0343 12.2697 11.9362 12.4976 11.2653C12.5051 11.2253 12.5159 11.2104 12.5159 11.1853C10.0408 11.2104 9.59992 11.1853 9.56872 11.1514C9.55312 11.2029 9.488 11.5238 9.488 11.5238L8.19109 17.2561L8.07917 17.7553L7.8689 19.3439C7.8689 19.8173 7.95233 20.2101 8.13683 20.5289C8.73916 21.5667 10.422 21.72 11.3805 21.72C12.6028 21.72 13.7579 21.4595 14.5373 20.9813C15.8946 20.185 16.25 18.924 16.5634 17.8211L16.7119 17.2479C16.7119 17.2479 18.0203 11.9558 18.2489 11.266C18.2503 11.226 18.2578 11.2111 18.2639 11.186C16.4745 11.2104 15.9447 11.1853 15.7752 11.1514Z" fill="white"/>
<path d="M23.0248 21.6609C22.1471 21.6535 21.8371 21.6535 20.8054 21.701L20.7654 21.6284C20.8617 21.2363 20.9519 20.8504 21.0496 20.4515L21.1737 19.9164C21.3609 19.0895 21.5461 18.1202 21.5698 17.8272C21.5936 17.644 21.6478 17.1977 21.1486 17.1977C20.9255 17.1977 20.6996 17.311 20.4764 17.4161C20.3597 17.8557 20.1081 19.0936 19.9887 19.6654C19.7371 20.8599 19.712 20.9955 19.6 21.5897L19.5349 21.6609C18.6226 21.6535 18.3086 21.6535 17.264 21.701L17.2158 21.6202C17.3962 20.906 17.5631 20.1938 17.7381 19.4856C18.1783 17.5613 18.2713 16.826 18.4035 15.8438L18.4727 15.7916C19.4936 15.6505 19.7391 15.6234 20.8434 15.3921L20.9322 15.4959L20.7647 16.1043C20.9492 15.9985 21.1296 15.8886 21.3114 15.7916C21.8364 15.5332 22.4191 15.4579 22.7352 15.4579C23.2086 15.4579 23.739 15.5949 23.9595 16.1511C24.1745 16.6469 24.0307 17.2567 23.754 18.4675L23.6136 19.0807C23.3354 20.4136 23.288 20.6713 23.1299 21.5884L23.0248 21.6609Z" fill="white"/>
<path d="M26.5962 21.661C26.063 21.661 25.7273 21.6535 25.3908 21.661C25.0598 21.661 24.7403 21.6813 24.2472 21.701L24.2214 21.661L24.1848 21.6196C24.3191 21.1068 24.3958 20.9271 24.4602 20.7514C24.5294 20.5737 24.5904 20.3871 24.7119 19.8737C24.8658 19.1981 24.9662 18.728 25.0307 18.3217C25.0998 17.9235 25.1344 17.5858 25.1907 17.191L25.2335 17.1584L25.2715 17.117C25.8005 17.0445 26.1315 16.9936 26.4748 16.938C26.8159 16.8912 27.1619 16.8247 27.7106 16.7175L27.735 16.7657L27.7445 16.8166C27.6387 17.2371 27.5424 17.6434 27.4427 18.068C27.3477 18.4954 27.2419 18.9132 27.1537 19.3229C26.9482 20.2142 26.8702 20.5418 26.8302 20.7772C26.782 21.0024 26.7739 21.1238 26.6925 21.5891L26.6443 21.6278L26.5962 21.661Z" fill="white"/>
<path d="M34.4941 18.6362C34.7994 17.2959 34.5626 16.657 34.2581 16.271C33.805 15.6829 32.9931 15.4971 32.1499 15.4971C31.6521 15.4971 30.4508 15.5466 29.5073 16.4141C28.8398 17.0348 28.5244 17.884 28.3345 18.6912C28.1541 19.5174 27.9309 21.0123 29.2984 21.5672C29.7209 21.7422 30.326 21.8039 30.7208 21.8039C31.7212 21.8039 32.7557 21.517 33.5242 20.7037C34.1197 20.0302 34.4012 19.0439 34.4941 18.6362ZM32.1933 18.5447C32.1452 18.7733 31.9471 19.615 31.6738 19.9718C31.4893 20.2397 31.2647 20.4025 31.0172 20.4025C30.9398 20.4025 30.5166 20.4025 30.5044 19.7636C30.4983 19.4387 30.5627 19.1111 30.6333 18.7597C30.8734 17.7328 31.1488 16.8754 31.8501 16.8754C32.3928 16.8754 32.4287 17.515 32.1933 18.5447Z" fill="white"/>
<path d="M55.9701 21.7539C54.9113 21.741 54.5992 21.741 53.6245 21.7844L53.5635 21.7091C53.8246 20.7045 54.0959 19.6986 54.334 18.6757C54.6433 17.3531 54.7085 16.7941 54.8109 16.0175L54.895 15.9585C55.9443 15.8004 56.2373 15.7651 57.3348 15.5603L57.364 15.6498C57.1639 16.4774 56.9699 17.3117 56.7752 18.1385C56.373 19.8831 56.2211 20.7697 56.0718 21.6806L55.9701 21.7539Z" fill="white"/>
<path d="M56.4697 18.7592C56.7824 17.4155 55.5445 18.6391 55.3491 18.1948C55.0331 17.5077 55.227 16.1009 54.0122 15.6349C53.5388 15.4518 52.4352 15.6831 51.4923 16.5473C50.8337 17.1652 50.5088 18.0104 50.3216 18.8128C50.1378 19.6274 49.9153 21.1163 51.2793 21.6521C51.7114 21.8366 52.1075 21.8862 52.4976 21.8706C53.863 21.8041 54.911 19.7237 55.6829 18.9118C56.2852 18.2613 56.3863 19.1546 56.4697 18.7592ZM54.3765 18.6602C54.3229 18.8718 54.1228 19.7298 53.8542 20.0887C53.6703 20.341 53.2451 20.5011 52.9982 20.5011C52.933 20.5011 52.5043 20.5011 52.4847 19.8662C52.4847 19.5528 52.5532 19.2238 52.6271 18.8616C52.8584 17.8632 53.1372 17.0031 53.8345 17.0031C54.3765 17.0038 54.6091 17.6278 54.3765 18.6602Z" fill="white"/>
<path d="M40.4923 21.6609C39.6098 21.6535 39.3066 21.6535 38.2824 21.701L38.2349 21.6284C38.3231 21.2363 38.4214 20.8504 38.5171 20.4515L38.6398 19.9164C38.8359 19.0895 39.0177 18.1202 39.0306 17.8272C39.057 17.644 39.1167 17.1977 38.6107 17.1977C38.395 17.1977 38.1752 17.311 37.9487 17.4161C37.8218 17.8557 37.5708 19.0936 37.4569 19.6654C37.2039 20.8599 37.1896 20.9955 37.0743 21.5897L37.0018 21.6609C36.0894 21.6535 35.7835 21.6535 34.7362 21.701L34.6921 21.6202C34.8699 20.906 35.0326 20.1938 35.2009 19.4856C35.6472 17.5613 35.7408 16.826 35.867 15.8438L35.9477 15.7916C36.959 15.6505 37.208 15.6234 38.3082 15.3921L38.395 15.4959L38.2356 16.1043C38.4153 15.9985 38.6059 15.8886 38.7843 15.7916C39.3073 15.5332 39.8845 15.4579 40.1972 15.4579C40.6707 15.4579 41.2032 15.5949 41.4317 16.1511C41.6359 16.6469 41.4989 17.2567 41.2235 18.4675L41.0811 19.0807C40.7989 20.4136 40.746 20.6713 40.5974 21.5884L40.4923 21.6609Z" fill="white"/>
<path d="M49.0622 14.4267C48.9001 15.1253 48.4504 15.7121 47.8623 15.9976C47.3773 16.2438 46.7886 16.2588 46.1822 16.2588H45.7949L45.8193 16.0987C45.8193 16.0987 46.5491 12.9581 46.5423 12.9636L46.5634 12.8069L46.5776 12.6787L46.8659 12.7119C46.8659 12.7119 48.3575 12.8415 48.3866 12.8449C48.9856 13.0667 49.225 13.6582 49.0622 14.4267ZM48.1011 11.1403L47.3726 11.1498C45.4781 11.1722 44.7157 11.1654 44.4016 11.1301C44.3752 11.2658 44.3196 11.5134 44.3196 11.5134L43.6419 14.6715C43.6419 14.6715 42.0167 21.3813 41.9387 21.6933C43.589 21.6709 44.2795 21.6709 44.559 21.7021C44.6295 21.3894 45.0121 19.5132 45.0121 19.5132C45.0121 19.5132 45.3431 18.139 45.3648 18.0902C45.3648 18.0902 45.4652 17.9457 45.5724 17.8887H45.7155C47.1542 17.8887 48.7706 17.8887 50.0363 16.9622C50.8916 16.3198 51.4844 15.3776 51.7449 14.2347C51.8155 13.96 51.865 13.6168 51.865 13.2858C51.865 12.8469 51.7754 12.4108 51.5211 12.0689C50.8767 11.1654 49.5947 11.1498 48.1011 11.1403Z" fill="white"/>
<path d="M64.6563 15.5473L64.5647 15.4551C63.4828 15.6742 63.2895 15.7081 62.2904 15.841L62.2178 15.9082C62.2097 15.9251 62.2097 15.9462 62.2042 15.9563L62.1954 15.9462C61.4635 17.6616 61.4818 17.296 60.8836 18.6343C60.8693 18.5712 60.8693 18.5298 60.8673 18.4728L60.7215 15.5473L60.6252 15.4551C59.4883 15.6742 59.4578 15.7081 58.4146 15.841L58.3332 15.9082C58.3162 15.9509 58.3162 15.9842 58.3074 16.0242L58.3162 16.0384C58.4512 16.712 58.4186 16.5627 58.5475 17.6216C58.6072 18.1411 58.6879 18.6675 58.751 19.1796C58.8534 20.0302 58.9172 20.4596 59.0372 21.7612C58.3338 22.9333 58.1602 23.3797 57.4907 24.4107L57.5267 24.5002C58.5482 24.4629 58.7856 24.4629 59.5426 24.4629L59.7094 24.2743C60.286 23.0426 64.6563 15.5473 64.6563 15.5473Z" fill="white"/>
<path d="M27.5625 16.2717C28.1451 15.8674 28.2096 15.3058 27.7287 15.0277C27.2288 14.7272 26.3578 14.8181 25.7785 15.2244C25.1925 15.6239 25.1186 16.1842 25.6117 16.4765C26.1116 16.7594 26.9758 16.6773 27.5625 16.2717Z" fill="white"/>
<path d="M59.641 24.3755L58.7788 25.8379C58.5102 26.3419 58.0144 26.7088 57.2201 26.7149L55.854 26.698L56.2583 25.3773H56.5174C56.6544 25.3773 56.7561 25.3699 56.8382 25.3346C56.9088 25.3088 56.9542 25.2539 57.0092 25.1772L57.5084 24.3755H59.641Z" fill="white"/>
<path d="M13.7111 0H31.1834C33.6158 0 35.1325 1.98471 34.5668 4.43338L26.434 39.3537C25.8662 41.7908 23.4183 43.7843 20.9777 43.7843H3.49791C1.06484 43.7843 -0.449801 41.7908 0.119972 39.3537L8.25144 4.43338C8.83071 1.98403 11.2678 0 13.7111 0Z" fill="#D43D3D"/>
<path d="M29.7278 0H49.8191C52.2637 0 51.1594 1.98471 50.5815 4.43338L42.4521 39.3537C41.8809 41.7908 42.0566 43.7843 39.6168 43.7843H19.5262C17.0775 43.7843 15.5676 41.7908 16.1388 39.3537L24.275 4.43338C24.8536 1.98403 27.2826 0 29.7278 0Z" fill="#0F4A7E"/>
<path d="M49.022 0H66.4848C68.9342 0 70.4556 1.98471 69.875 4.43338L61.7415 39.3537C61.1717 41.7908 58.7312 43.7843 56.2886 43.7843H38.8203C36.3778 43.7843 34.8611 41.7908 35.439 39.3537L43.5691 4.43338C44.1423 1.98403 46.5787 0 49.022 0Z" fill="#0D7D80"/>
<path d="M51.8865 25.7789L49.7587 32.8223H50.3231L49.8869 34.2814H49.3097L49.1761 34.7372H47.154L47.2863 34.2814H43.1731L43.5889 32.9356H44.006L46.1603 25.7789L46.5951 24.3416H48.6633L48.4442 25.068C48.4442 25.068 48.9977 24.6699 49.5213 24.5294C50.0368 24.4012 53.0329 24.3456 53.0329 24.3456L52.5906 25.7789H51.8865ZM48.2298 25.7789L47.6906 27.5859C47.6906 27.5859 48.3078 27.3057 48.6368 27.2162C48.976 27.1253 49.4854 27.0914 49.4854 27.0914L49.8876 25.7782H48.2298V25.7789ZM47.422 28.4744L46.8576 30.354C46.8576 30.354 47.4749 30.0325 47.8208 29.9307C48.1545 29.8541 48.6714 29.7815 48.6714 29.7815L49.0696 28.4738H47.422V28.4744ZM46.1013 32.8481H47.7469L48.2298 31.2656H46.5761L46.1013 32.8481Z" fill="white"/>
<path d="M52.7908 24.3457H55.0054L55.0332 25.1664C55.0142 25.3143 55.1323 25.3699 55.3873 25.3699H55.8438L55.4226 26.736H54.2376C53.2005 26.8039 52.8138 26.3691 52.8355 25.8637L52.7908 24.3457Z" fill="white"/>
<path d="M53.0842 30.786H50.9788L51.3451 29.5732H53.7429L54.0881 28.4683H51.7127L52.1224 27.113H58.729L58.3166 28.4683H56.0986L55.7547 29.5732H57.9775L57.6071 30.786H55.2039L54.7793 31.2927H55.7547L55.9914 32.8148C56.0158 32.9702 56.0186 33.0651 56.0674 33.1316C56.1122 33.1893 56.4059 33.211 56.5741 33.211H56.8712L56.4316 34.6971H55.676C55.5593 34.6971 55.3877 34.6883 55.1497 34.6815C54.9312 34.6578 54.7657 34.5235 54.6104 34.4536C54.4714 34.381 54.2672 34.2176 54.2231 33.934L53.9884 32.4133L52.8977 33.9076C52.5545 34.3804 52.0817 34.746 51.2922 34.746H49.7612L50.156 33.4233H50.7421C50.913 33.4233 51.0588 33.3582 51.1748 33.3005C51.2874 33.2544 51.383 33.1974 51.4936 33.0305L53.0842 30.786Z" fill="white"/>
<path d="M30.0562 27.4832H35.6264L35.2167 28.8099H32.981L32.6371 29.942H34.9169L34.5011 31.3122H32.224L31.6759 33.1517C31.6047 33.3566 32.2098 33.3932 32.4295 33.3932L33.5698 33.2236L33.1119 34.745H30.5405C30.3431 34.745 30.1823 34.724 29.9585 34.6637C29.7441 34.6182 29.6499 34.511 29.5535 34.3618C29.4579 34.218 29.3161 34.0966 29.4158 33.7717L30.1525 31.3318H28.8875L29.2992 29.942H30.5852L30.9135 28.8099H29.6505L30.0562 27.4832Z" fill="white"/>
<path d="M33.8044 25.0904H36.0773L35.6738 26.4789H32.5468L32.2103 26.7712C32.0693 26.9171 32.0197 26.8608 31.8325 26.9578C31.6501 27.0405 31.2763 27.2237 30.8008 27.2237H29.7949L30.1999 25.8888H30.5058C30.7568 25.8888 30.9331 25.8637 31.0172 25.8074C31.1149 25.7409 31.2302 25.6039 31.3577 25.3699L31.9261 24.3293H34.1937L33.8044 25.0904Z" fill="white"/>
<path d="M37.0657 24.3478H39.0097L38.7357 25.3273C38.7357 25.3273 39.3441 24.8335 39.7694 24.6605C40.1995 24.5004 41.1728 24.3539 41.1728 24.3539L44.3215 24.3403L43.2525 27.9143C43.0633 28.5241 42.8577 28.9263 42.7228 29.0979C42.6047 29.2851 42.4711 29.4439 42.1889 29.5958C41.9346 29.7321 41.6904 29.8142 41.4618 29.8339C41.259 29.8536 40.9314 29.8536 40.4979 29.8617H37.4646L36.6038 32.6841C36.5244 32.9697 36.4844 33.0985 36.5367 33.1813C36.5801 33.2444 36.6866 33.3224 36.8331 33.3224L38.1646 33.1969L37.7108 34.7448H36.2104C35.7403 34.7448 35.3856 34.7373 35.1509 34.7238C34.9148 34.6966 34.6727 34.7238 34.5153 34.5915C34.3736 34.4748 34.1626 34.3046 34.1626 34.1418C34.1735 33.9912 34.246 33.7321 34.339 33.3916L37.0657 24.3478ZM41.1986 27.955H38.012L37.8159 28.6007H40.5746C40.8947 28.556 40.9727 28.6028 40.9924 28.5879L41.1986 27.955ZM38.187 27.3791C38.187 27.3791 38.809 26.8032 39.8753 26.6167C40.1154 26.5767 41.6348 26.5875 41.6348 26.5875L41.862 25.8272H38.6462L38.187 27.3791Z" fill="white"/>
<path d="M42.7402 30.1174L42.5652 30.9755C42.49 31.238 42.4201 31.4422 42.2119 31.6158C42.0043 31.7969 41.7513 31.9787 41.1673 31.9787L40.0854 32.0296L40.0752 33.0043C40.0644 33.2675 40.1396 33.2444 40.179 33.2858C40.2305 33.3346 40.2753 33.3604 40.3241 33.3719L40.6646 33.3604L41.6923 33.3007L41.2744 34.7211H40.0854C39.2612 34.7211 38.6392 34.6973 38.4459 34.5332C38.2451 34.4138 38.218 34.253 38.218 33.9804L38.2974 30.2056H40.181L40.1668 30.9762H40.6192C40.7664 30.9762 40.8742 30.9612 40.9428 30.9185C40.997 30.8744 41.0418 30.8127 41.0676 30.7232L41.2609 30.1181H42.7402V30.1174Z" fill="white"/>
<path d="M15.7752 11.1514C15.7114 11.4593 14.4993 17.0526 14.4993 17.0526C14.23 18.1881 14.0462 18.9993 13.3998 19.5135C13.0321 19.8173 12.6028 19.9652 12.1056 19.9652C11.3086 19.9652 10.8466 19.5691 10.7632 18.8141L10.7496 18.5625C10.7496 18.5625 10.9925 17.0424 10.9925 17.0343C10.9925 17.0343 12.2697 11.9362 12.4976 11.2653C12.5051 11.2253 12.5159 11.2104 12.5159 11.1853C10.0408 11.2104 9.59992 11.1853 9.56872 11.1514C9.55312 11.2029 9.488 11.5238 9.488 11.5238L8.19109 17.2561L8.07917 17.7553L7.8689 19.3439C7.8689 19.8173 7.95233 20.2101 8.13683 20.5289C8.73916 21.5667 10.422 21.72 11.3805 21.72C12.6028 21.72 13.7579 21.4595 14.5373 20.9813C15.8946 20.185 16.25 18.924 16.5634 17.8211L16.7119 17.2479C16.7119 17.2479 18.0203 11.9558 18.2489 11.266C18.2503 11.226 18.2578 11.2111 18.2639 11.186C16.4745 11.2104 15.9447 11.1853 15.7752 11.1514Z" fill="white"/>
<path d="M23.0248 21.6609C22.1471 21.6535 21.8371 21.6535 20.8054 21.701L20.7654 21.6284C20.8617 21.2363 20.9519 20.8504 21.0496 20.4515L21.1737 19.9164C21.3609 19.0895 21.5461 18.1202 21.5698 17.8272C21.5936 17.644 21.6478 17.1977 21.1486 17.1977C20.9255 17.1977 20.6996 17.311 20.4764 17.4161C20.3597 17.8557 20.1081 19.0936 19.9887 19.6654C19.7371 20.8599 19.712 20.9955 19.6 21.5897L19.5349 21.6609C18.6226 21.6535 18.3086 21.6535 17.264 21.701L17.2158 21.6202C17.3962 20.906 17.5631 20.1938 17.7381 19.4856C18.1783 17.5613 18.2713 16.826 18.4035 15.8438L18.4727 15.7916C19.4956 15.6505 19.7398 15.6234 20.8447 15.3921L20.9322 15.4959L20.7647 16.1043C20.9492 15.9985 21.1296 15.8886 21.3114 15.7916C21.8364 15.5332 22.4191 15.4579 22.7352 15.4579C23.2086 15.4579 23.739 15.5949 23.9595 16.1511C24.1745 16.6469 24.0307 17.2567 23.754 18.4675L23.6136 19.0807C23.3375 20.4136 23.288 20.6713 23.1299 21.5884L23.0248 21.6609Z" fill="white"/>
<path d="M26.5962 21.661C26.063 21.661 25.7273 21.6535 25.3908 21.661C25.0598 21.661 24.7403 21.6813 24.2472 21.701L24.2214 21.661L24.1848 21.6196C24.3191 21.1068 24.3958 20.9271 24.4602 20.7514C24.5294 20.5737 24.5918 20.3871 24.7119 19.8737C24.8658 19.1981 24.9662 18.728 25.0307 18.3217C25.0998 17.9235 25.1344 17.5858 25.1907 17.191L25.2335 17.1584L25.2715 17.117C25.8005 17.0445 26.1315 16.9936 26.4748 16.938C26.8159 16.8912 27.1619 16.8247 27.7106 16.7175L27.7364 16.7657L27.7452 16.8166C27.6394 17.2371 27.5431 17.6434 27.4434 18.068C27.3484 18.4954 27.2426 18.9132 27.1544 19.3229C26.9489 20.2142 26.8709 20.5418 26.8309 20.7772C26.7827 21.0024 26.7746 21.1238 26.6932 21.5891L26.645 21.6278L26.5962 21.661Z" fill="white"/>
<path d="M34.4942 18.6362C34.7994 17.2959 34.5627 16.657 34.2581 16.271C33.805 15.6829 32.9931 15.4971 32.15 15.4971C31.6521 15.4971 30.4508 15.5466 29.5073 16.4141C28.8398 17.0348 28.5244 17.884 28.3372 18.6912C28.1541 19.5174 27.9309 21.0123 29.2984 21.5672C29.721 21.7422 30.326 21.8039 30.7208 21.8039C31.7213 21.8039 32.7557 21.517 33.5242 20.7037C34.1197 20.0302 34.4012 19.0439 34.4942 18.6362ZM32.1934 18.5447C32.1452 18.7733 31.9471 19.615 31.6738 19.9718C31.4893 20.2397 31.2648 20.4025 31.0172 20.4025C30.9399 20.4025 30.5166 20.4025 30.5044 19.7636C30.4983 19.4387 30.5627 19.1111 30.6333 18.7597C30.8734 17.7328 31.1488 16.8754 31.8501 16.8754C32.3928 16.8754 32.4287 17.515 32.1934 18.5447Z" fill="white"/>
<path d="M55.9701 21.7539C54.9113 21.741 54.5992 21.741 53.6245 21.7844L53.5635 21.7091C53.8246 20.7045 54.0959 19.6986 54.334 18.6757C54.6433 17.3531 54.7085 16.7941 54.8109 16.0175L54.895 15.9585C55.9443 15.8004 56.2373 15.7651 57.3348 15.5603L57.364 15.6498C57.1666 16.4774 56.9699 17.3117 56.7752 18.1385C56.373 19.8831 56.2211 20.7697 56.0718 21.6806L55.9701 21.7539Z" fill="white"/>
<path d="M56.4697 18.7592C56.7824 17.4155 55.5445 18.6391 55.3491 18.1948C55.0331 17.5077 55.227 16.1009 54.0122 15.6349C53.5388 15.4518 52.4352 15.6831 51.4923 16.5473C50.8337 17.1652 50.5088 18.0104 50.3216 18.8128C50.1378 19.6274 49.9153 21.1163 51.2793 21.6521C51.7114 21.8366 52.1075 21.8862 52.4976 21.8706C53.863 21.8041 54.911 19.7237 55.6829 18.9118C56.2852 18.2613 56.3863 19.1546 56.4697 18.7592ZM54.3765 18.6602C54.3229 18.8718 54.1228 19.7298 53.8542 20.0887C53.6703 20.341 53.2451 20.5011 52.9982 20.5011C52.933 20.5011 52.5043 20.5011 52.4847 19.8662C52.4847 19.5528 52.5532 19.2238 52.6271 18.8616C52.8584 17.8632 53.1372 17.0031 53.8345 17.0031C54.3765 17.0038 54.6091 17.6278 54.3765 18.6602Z" fill="white"/>
<path d="M40.4923 21.6609C39.6098 21.6535 39.3066 21.6535 38.2824 21.701L38.2349 21.6284C38.3258 21.2363 38.4214 20.8504 38.5171 20.4515L38.6398 19.9164C38.8359 19.0895 39.0177 18.1202 39.0306 17.8272C39.057 17.644 39.1167 17.1977 38.6107 17.1977C38.395 17.1977 38.1759 17.311 37.9487 17.4161C37.8218 17.8557 37.5708 19.0936 37.4569 19.6654C37.2039 20.8599 37.1896 20.9955 37.0743 21.5897L37.0018 21.6609C36.0894 21.6535 35.7835 21.6535 34.7362 21.701L34.6921 21.6202C34.8699 20.906 35.0326 20.1938 35.2009 19.4856C35.6472 17.5613 35.7408 16.826 35.867 15.8438L35.9477 15.7916C36.959 15.6505 37.208 15.6234 38.3082 15.3921L38.395 15.4959L38.2356 16.1043C38.4153 15.9985 38.6059 15.8886 38.7843 15.7916C39.3073 15.5332 39.8845 15.4579 40.1972 15.4579C40.6707 15.4579 41.2032 15.5949 41.4317 16.1511C41.6359 16.6469 41.4989 17.2567 41.2235 18.4675L41.0811 19.0807C40.7989 20.4136 40.746 20.6713 40.5974 21.5884L40.4923 21.6609Z" fill="white"/>
<path d="M49.0622 14.4267C48.9001 15.1253 48.4504 15.7121 47.8623 15.9976C47.3773 16.2438 46.7886 16.2588 46.1822 16.2588H45.7949L45.8233 16.0987C45.8233 16.0987 46.5491 12.9581 46.543 12.9636L46.5641 12.8069L46.5783 12.6787L46.8666 12.7119C46.8666 12.7119 48.3582 12.8415 48.3873 12.8449C48.9856 13.0667 49.225 13.6582 49.0622 14.4267ZM48.1011 11.1403L47.3726 11.1498C45.4781 11.1722 44.7157 11.1654 44.4016 11.1301C44.3752 11.2658 44.3196 11.5134 44.3196 11.5134L43.6419 14.6715C43.6419 14.6715 42.0167 21.3813 41.9387 21.6933C43.589 21.6709 44.2795 21.6709 44.559 21.7021C44.6295 21.3894 45.0121 19.5132 45.0121 19.5132C45.0121 19.5132 45.3431 18.139 45.3648 18.0902C45.3648 18.0902 45.4652 17.9457 45.5724 17.8887H45.7155C47.1542 17.8887 48.7706 17.8887 50.0363 16.9622C50.8916 16.3198 51.4844 15.3776 51.7449 14.2347C51.8155 13.96 51.865 13.6168 51.865 13.2858C51.865 12.8469 51.7754 12.4108 51.5211 12.0689C50.8767 11.1654 49.5947 11.1498 48.1011 11.1403Z" fill="white"/>
<path d="M64.6563 15.5473L64.5647 15.4551C63.4828 15.6742 63.2895 15.7081 62.2904 15.841L62.2178 15.9082C62.2117 15.9251 62.2117 15.9462 62.2042 15.9563L62.1954 15.9462C61.4635 17.6616 61.4818 17.296 60.8836 18.6343C60.8693 18.5712 60.8693 18.5298 60.8673 18.4728L60.7215 15.5473L60.6252 15.4551C59.4883 15.6742 59.4619 15.7081 58.4146 15.841L58.3332 15.9082C58.3162 15.9509 58.3162 15.9842 58.3074 16.0242L58.3162 16.0384C58.4512 16.712 58.4186 16.5627 58.5475 17.6216C58.6072 18.1411 58.6879 18.6675 58.751 19.1796C58.8534 20.0302 58.9172 20.4596 59.0372 21.7612C58.3338 22.9333 58.165 23.3797 57.4907 24.4107L57.5267 24.5002C58.5482 24.4629 58.7856 24.4629 59.5426 24.4629L59.7094 24.2743C60.286 23.0426 64.6563 15.5473 64.6563 15.5473Z" fill="white"/>
<path d="M27.5625 16.2717C28.1451 15.8674 28.2096 15.3058 27.7287 15.0277C27.2288 14.7272 26.3578 14.8181 25.7785 15.2244C25.1925 15.6239 25.1186 16.1842 25.6117 16.4765C26.1116 16.7594 26.9758 16.6773 27.5625 16.2717Z" fill="white"/>
<path d="M59.641 24.3755L58.7788 25.8379C58.5136 26.3419 58.0144 26.7088 57.2201 26.7149L55.854 26.698L56.2583 25.3773H56.5174C56.6544 25.3773 56.7561 25.3699 56.8382 25.3346C56.9088 25.3088 56.9542 25.2539 57.0092 25.1772L57.5138 24.3755H59.641Z" fill="white"/>
</svg>
