<svg xmlns="http://www.w3.org/2000/svg" width="75" height="19" viewBox="0 0 75 19">
    <g fill="#0072B8" fill-rule="evenodd">
        <path d="M65.234.293a9.31 9.31 0 0 1 4.075.933c.197.093.39.194.587.304l-.857.756L67.748.973l-2.17 1.915-1.291-1.391-4.045 3.609 2.592 2.826-1.02.887 2.556 2.831-1.013.887 3.652 4.022 2.17-1.977 1.868 2.12a9.85 9.85 0 0 1-1.228.803 9.3 9.3 0 0 1-4.585 1.2c-5.122 0-9.305-4.134-9.305-9.206 0-5.067 4.183-9.206 9.305-9.206z"/>
        <path d="M63.538 8.916l2.213-1.969 1.994 2.19-2.211 1.972zM65.108 12.701l2.216-1.966 1.993 2.184-2.211 1.97zM61.955 5.18l2.215-1.97 1.991 2.188-2.213 1.97zM66.017 4.117l1.66-1.474 1.491 1.64-1.657 1.478zM68.964 10.893l1.661-1.482 1.494 1.642-1.66 1.485zM70.423 14.209l1.663-1.482 1.496 1.643-1.663 1.482zM71.094 6.604l1.108-.981.994 1.092-1.11.988zM69.68 3.353l1.107-.984.995 1.091-1.108.989zM72.506 9.858l1.11-.985.997 1.091-1.108.989zM67.543 7.423l1.663-1.476 1.496 1.641-1.661 1.475z"/>
        <g fill-rule="nonzero">
            <path d="M4.527 7.915h-.075L3.05 13.159H1.9L.18 5.708h1.192l1.185 5.557h.076l1.38-5.557h.945l1.477 5.557h.073l1.084-5.557h1.243l-1.724 7.45H5.966zM13.54 12v.8a3.804 3.804 0 0 1-1.88.478c-1.785 0-2.518-1.094-2.518-2.748 0-1.595.82-2.749 2.41-2.749 1.327 0 2.149.846 2.149 2.56v.39h-3.463c0 1.255.518 1.816 1.614 1.816.574 0 1.103-.202 1.689-.547zm-3.284-1.976h2.435c-.054-1.103-.597-1.54-1.17-1.54-.649 0-1.146.49-1.265 1.54zM15.768 8.167c.316-.17.862-.386 1.432-.386 1.316 0 2.03.906 2.03 2.583 0 1.961-.956 2.914-2.495 2.914-.562 0-1.436-.174-2.072-.51V5.437l1.105-.266v2.996zm-.009 4.21c.337.15.71.17.976.17.787 0 1.38-.482 1.38-2.183 0-1.335-.488-1.769-1.202-1.769-.425 0-.733.117-1.154.349v3.434zM24.06 11.58h.054l2.271-5.872H27.7v7.45h-1.15v-5.4h-.088l-2.171 5.401h-.676L21.45 7.884h-.1v5.275h-.954V5.708h1.287zM28.869 10.53c0-1.836 1.022-2.749 2.422-2.749 1.403 0 2.418.913 2.418 2.749 0 1.795-.967 2.749-2.418 2.749-1.455 0-2.422-.954-2.422-2.749zm3.726 0c0-1.416-.581-2.018-1.303-2.018-.704 0-1.308.602-1.308 2.018 0 1.438.553 2.018 1.308 2.018.752 0 1.303-.58 1.303-2.018zM34.72 8.553c.481-.282 1.484-.772 2.706-.772 1.277 0 1.752.49 1.752 1.57v3.808h-1.106V9.595c0-.825-.411-.977-.953-.977-.427 0-.966.191-1.296.377v4.164H34.72V8.553zM44.56 12v.8a3.804 3.804 0 0 1-1.88.478c-1.78 0-2.513-1.094-2.513-2.748 0-1.595.817-2.749 2.41-2.749 1.33 0 2.145.846 2.145 2.56v.39h-3.464c0 1.255.523 1.816 1.614 1.816.572 0 1.104-.202 1.689-.547zm-3.278-1.976h2.427c-.049-1.103-.595-1.54-1.163-1.54-.65 0-1.149.49-1.264 1.54zM48.854 7.955h1.129l-1.918 5.252c-.53 1.45-1.181 2.206-2.398 2.206v-.86c.72 0 1.164-.565 1.422-1.346l-2.042-5.252h1.17l1.36 3.868h.062l1.215-3.868z"/>
        </g>
    </g>
</svg>
